<?xml version="1.0" encoding="utf-8"?>
<!-- Generator: Adobe Illustrator 18.0.0, SVG Export Plug-In . SVG Version: 6.00 Build 0)  -->
<!DOCTYPE svg PUBLIC "-//W3C//DTD SVG 1.1//EN" "http://www.w3.org/Graphics/SVG/1.1/DTD/svg11.dtd">
<svg version="1.1" id="Layer_1" xmlns="http://www.w3.org/2000/svg" xmlns:xlink="http://www.w3.org/1999/xlink" x="0px" y="0px"
	 viewBox="0 0 500 500" enable-background="new 0 0 500 500" xml:space="preserve">
<g>
	<path d="M324.9,348.1l1.1,3c0,0,8.3,2,10.3,1.8c2-0.3,24.9-1.9,24.9-1.9l14.1-2.9c0,0,1.6,2.5,2.9,2.5s6.1,0.7,8.8,0
		c2.7-0.6-1.2-27.7-1.2-27.7l-43.7-6.4L312,339.2L324.9,348.1z"/>
	<g>
		<circle fill="#27262C" cx="356.4" cy="348.1" r="22.1"/>
		<circle fill="#C3BFBE" cx="356.4" cy="348.1" r="16.7"/>
		<g>
			<path fill="#27262C" d="M350.6,336.9l3.9,4.4c0,0,0.7,1.1,1.6,1.1s1.6-0.7,1.6-0.7l4-4.7c0,0,0.6-0.7,0-1.1
				c-0.6-0.5-2.5-1.1-5.3-1.1C353.7,334.6,349.6,335.4,350.6,336.9z"/>
			<path fill="#27262C" d="M350.6,359.3l3.9-4.4c0,0,0.7-1.1,1.6-1.1s1.6,0.7,1.6,0.7l4,4.7c0,0,0.6,0.7,0,1.1
				c-0.6,0.5-2.5,1.1-5.3,1.1C353.7,361.5,349.6,360.8,350.6,359.3z"/>
			<path fill="#27262C" d="M367.7,342.5l-4.4,3.9c0,0-1.1,0.7-1.1,1.6s0.7,1.6,0.7,1.6l4.7,4c0,0,0.7,0.6,1.1,0
				c0.5-0.6,1.1-2.5,1.1-5.3C370,345.6,369.3,341.5,367.7,342.5z"/>
			<path fill="#27262C" d="M345.3,342.5l4.4,3.9c0,0,1.1,0.7,1.1,1.6s-0.7,1.6-0.7,1.6l-4.7,4c0,0-0.7,0.6-1.1,0
				c-0.5-0.6-1.1-2.5-1.1-5.3C343.1,345.6,343.8,341.5,345.3,342.5z"/>
		</g>
	</g>
	<path fill="none" d="M304.1,227.9h-41.5c-1.5,0-2.7,1.1-2.7,2.5v16.9c0,1.5,1.3,2.7,2.7,2.7h41.5c1.5,0,2.7-1.3,2.7-2.7v-16.9
		C306.8,229,305.6,227.9,304.1,227.9z"/>
	<path fill="none" d="M167.4,242.2c-1.2-0.8-13.6-1.3-31.3,3.3l-3.3,35.9l20.8-4c0,0,7.1-2.1,9.2-5.2c2.1-3.2,5.3-25.8,5.3-25.8
		S168.5,242.9,167.4,242.2z"/>
	<rect x="210.6" y="236.3" fill="none" width="22.4" height="33.8"/>
	<path fill="none" d="M126,231L126,231h0.3c0,0.1-0.3,0.3-0.3,0.6c0-0.2,0.3-0.4,0.3-0.6H126z"/>
	<path fill="#3F51B5" d="M126,231v0.6c0-0.2,0.3-0.4,0.3-0.6H126z"/>
	<path d="M67.2,345.5c5.8,1,40.3,6.4,40.3,6.4s3.5,1.3,10.2,0.6c1.8-0.2,0.9-13.7,0.6-18.6h59.1v-12.3v-0.7l-61.2-0.7
		c-0.7-3.7-1-5-1-5l-41.3-3.9L61,321.7c-4.9,0-23.4,0.2-28,0.2c-1,0-1,0.9-1.7,0.8c-0.6,0.3-2.9,1.5-2.9,2.8c0,1.5,1.5,5,1.5,6.7
		s-1,7.7,1.9,10c2.9,2.2,17.4,6.9,20.5,8.4s5.8,1.6,6.7,0.1c0.1-0.2,1.5-1.5,1.6-2.2"/>
	<g>
		<circle fill="#27262C" cx="87.1" cy="348.1" r="22.1"/>
		<circle fill="#C3BFBE" cx="87.2" cy="348.1" r="16.7"/>
		<g>
			<path fill="#27262C" d="M81.4,336.9l3.9,4.4c0,0,0.7,1.1,1.6,1.1s1.6-0.7,1.6-0.7l4-4.7c0,0,0.6-0.7,0-1.1
				c-0.6-0.5-2.5-1.1-5.3-1.1C84.4,334.6,80.4,335.4,81.4,336.9z"/>
			<path fill="#27262C" d="M81.4,359.3l3.9-4.4c0,0,0.7-1.1,1.6-1.1s1.6,0.7,1.6,0.7l4,4.7c0,0,0.6,0.7,0,1.1
				c-0.6,0.5-2.5,1.1-5.3,1.1C84.4,361.5,80.4,360.8,81.4,359.3z"/>
			<path fill="#27262C" d="M98.5,342.5l-4.4,3.9c0,0-1.1,0.7-1.1,1.6s0.7,1.6,0.7,1.6l4.7,4c0,0,0.7,0.6,1.1,0
				c0.5-0.6,1.1-2.5,1.1-5.3C100.8,345.6,100,341.5,98.5,342.5z"/>
			<path fill="#27262C" d="M76.1,342.5l4.4,3.9c0,0,1.1,0.7,1.1,1.6s-0.7,1.6-0.7,1.6l-4.7,4c0,0-0.7,0.6-1.1,0
				c-0.5-0.6-1.1-2.5-1.1-5.3C73.9,345.6,74.6,341.5,76.1,342.5z"/>
		</g>
	</g>
	<g>
		<path fill="#3F51B5" d="M88.6,226l15.3,5l8.6,1.6c0,0.1,9.4,0.1,9.4,0.4l4.2,5.6c-6.3,3.2-41.3,38.8-41.3,38.8
			c-2.1,0.3-4.5,1-4.5,1l-0.1,0.1c-2.7,0.9-43.3,15.1-45.3,26.7c0,0-4.1,7.7-3.4,17.2c0,0-0.1,0.1-0.2,0.1c0.7,0.1,1.6,0.2,2.5,0.2
			c5.4,0,28.3,0,28.3,0h8.7c4.1-3.2,9.6-4.7,17.2-4.7c6,0,10.8,1.2,14.7,3.4h74.5v12.2h-63.5c4.2,9,3.8,18.6,3.8,18.6s2.9,1,4.1-1.2
			h80.5h122c0,0,5.1,1.1,6.3-4.6c1.2-5.7,0.7-13.3,4.6-16.9c4-3.6,21-8.1,21-8.1s19.4,4.2,23.4,8.1c4,4,4.3,16,4.3,16
			s-0.3,4.6,3.3,5c3.6,0.3,35.1-1,41.1-1.9s33-5.7,36.5-7.2c3.4-1.5,6-4.1,6.7-10c0.7-5.8,0-10,0-10h-1.2V194.9c0,0,0.1-5.2-1.3-6
			c-1.4-0.9-174.8,0-174.8,0s-38.9,1.3-70.4-2.6c-27.8-3.5-107.9-5.3-107.9-5.3S88.6,182.8,88.6,226 M105.2,286.5v-10.1l27.5-28.8
			l-3.3,34.2L105.2,286.5z M168,246.4c0,0-3.2,22.6-5.3,25.8c-2.1,3.2-9.2,5.2-9.2,5.2l-20.8,4l3.3-35.9c17.7-4.6,30.1-4.1,31.3-3.3
			C168.5,242.9,168,246.4,168,246.4z M233,270h-22.4v-33.8H233V270z M306.8,247.4c0,1.5-1.3,2.7-2.7,2.7h-41.5
			c-1.5,0-2.7-1.3-2.7-2.7v-16.9c0-1.5,1.3-2.5,2.7-2.5h41.5c1.5,0,2.7,1.1,2.7,2.5V247.4z M445.1,258c0,2.4-1.6,4.4-3.7,4.4h-59.1
			c-2.1,0-3.7-2-3.7-4.4v-27.2c0-2.4,1.6-4.4,3.7-4.4h59.1c2.1,0,3.7,2.1,3.7,4.4V258z"/>
	</g>
	<path fill="none" stroke="#000000" stroke-width="0.5" stroke-miterlimit="10" d="M441.4,226.3h-59.1c-2.1,0-3.7,2.1-3.7,4.4V258
		c0,2.4,1.6,4.4,3.7,4.4h59.1c2.1,0,3.7-2,3.7-4.4v-27.2C445.1,228.3,443.5,226.3,441.4,226.3z"/>
	<path fill="#C3BFBE" d="M33.3,315.7c0,0,1.6-9.3,7.4-13.4s15.9-4.7,16.8-2.1S47.1,313.6,44.9,315c-2.2,1.4-10.4,4.7-11.6,2.9
		C32.7,317.1,33.3,315.7,33.3,315.7z"/>
	<path fill="#C3BFBE" d="M168.8,292.2c0,0.7-0.6,1.3-1.3,1.3h-13.8c-0.7,0-1.3-0.6-1.3-1.3l0,0c0-0.7,0.6-1.3,1.3-1.3h13.8
		C168.2,290.9,168.8,291.5,168.8,292.2L168.8,292.2z"/>
	<path fill="none" stroke="#000000" stroke-width="0.5" stroke-miterlimit="10" d="M207.5,225.6c-2.4,0-4.6,2.7-4.6,6V332
		c0,3.4,2.3,6.3,4.6,6.3h28.8c2.2,0,3.9-2.9,3.9-6.3V231.7c0-3.4-1.6-6-3.9-6L207.5,225.6L207.5,225.6z"/>
	<polygon fill="none" points="105.2,276.5 105.2,286.5 129.5,281.9 132.7,247.7 	"/>
	<rect x="210.6" y="236.3" fill="none" stroke="#000000" stroke-width="0.5" stroke-miterlimit="10" width="22.4" height="33.8"/>
	<path fill="none" stroke="#000000" stroke-width="0.5" stroke-miterlimit="10" d="M304.1,227.9h-41.5c-1.5,0-2.7,1.1-2.7,2.5v16.9
		c0,1.5,1.3,2.7,2.7,2.7h41.5c1.5,0,2.7-1.3,2.7-2.7v-16.9C306.8,229,305.6,227.9,304.1,227.9z"/>
	<polygon fill="none" stroke="#000000" stroke-width="0.5" stroke-miterlimit="10" points="105.2,276.5 105.2,286.5 129.5,281.9 
		132.7,247.7 	"/>
	<path fill="none" stroke="#000000" stroke-width="0.5" stroke-miterlimit="10" d="M167.4,242.2c-1.2-0.8-13.6-1.3-31.3,3.3
		l-3.3,35.9l20.8-4c0,0,7.1-2.1,9.2-5.2c2.1-3.2,5.3-25.8,5.3-25.8S168.5,242.9,167.4,242.2z"/>
</g>
</svg>
