<?xml version="1.0" encoding="utf-8"?>
<!-- Generator: Adobe Illustrator 18.0.0, SVG Export Plug-In . SVG Version: 6.00 Build 0)  -->
<!DOCTYPE svg PUBLIC "-//W3C//DTD SVG 1.1//EN" "http://www.w3.org/Graphics/SVG/1.1/DTD/svg11.dtd">
<svg version="1.1" id="Layer_1" xmlns="http://www.w3.org/2000/svg" xmlns:xlink="http://www.w3.org/1999/xlink" x="0px" y="0px"
	 viewBox="0 0 100 100" enable-background="new 0 0 100 100" xml:space="preserve">
<g display="none">
	<path display="inline" fill="#0B0001" d="M7.7,64.7l1.7,1.7c0,0,1.7,0,2-0.3c0.7-0.3,12,1,12,1s4-0.3,4.3-0.7
		C28,66,26,54.7,26,54.7l-9.7-2.3C16.3,52.3,7.7,56.7,7.7,64.7z"/>
	<path display="inline" d="M69,65l2.3,1.3c0,0,2,1.3,2.7,1.3s13.7-2.7,13.7-2.7s1.7,0,1.7,0.7s2.3-5.3,2.3-5.3l-5.7-6H73.3
		C73.3,54.3,67.7,61.7,69,65z"/>
	<path display="inline" fill="#CECECE" d="M92.7,64.7h5.7c0,0,0.7-0.7,0.7-1.3c0-0.3-6,0-6,0L92.7,64.7z"/>
	<path display="inline" fill="#2D2D2D" d="M43.7,40c0,0,0.7-1,2,0s1.7,1.7,1.3,2c-0.7,0.3-10.3,5.3-10.7,7c-0.3,1.3-7,1.7-7,1.7
		L31,48C30.3,48,41,41,43.7,40z"/>
	<path display="inline" fill="#141414" d="M42.7,48.7c0,0.3,0,0.7,0,0.7l0,0c-0.3,0-0.7,0-0.7,0l-2-3c0-0.3,0-0.7,0-0.7l0,0
		c0.3,0,0.7,0,0.7,0L42.7,48.7z"/>
	<path display="inline" fill="#2D2D2D" d="M59.3,42.7c0,0-1.7,1-1.7,2.7s0.7,2.3,0.7,2.3L61,48c0,0,0.3-3,0.3-4
		C61,43.3,60.7,42.7,59.3,42.7z"/>
	<path display="inline" fill="#2D2D2D" d="M58.7,47.7c0,0,0-1.3,0.7-1.7c0.3-0.3,7-0.7,10.3-0.3C73,45.7,83,45,85.3,46
		C87.7,47.7,59.7,48.3,58.7,47.7z"/>
	<path display="inline" fill="#2D2D2D" d="M25.3,48.3c0,0,0.7-0.7,1.3-0.7c0.7,0,3-1,4-0.3c1.3,0.7-2,2.3-2,2.3L25.3,48.3z"/>
	<path display="inline" fill="#C2C0C1" d="M29,48.7c0,0,9.3-7.3,15-9.3c0,0,0.7,0.3,0.7,0.7c-0.3,0.7-4.3,1.7-13.7,8.3
		c0,0,13.3-0.3,28.3-1c15.3-0.3,27-2.3,27-0.7C86.7,48,29,49.7,29,48.7z"/>
	<path display="inline" fill="#9D5C62" d="M96.7,48c0,0,1,1.3,1,2S97,53,97,53c-1.7,2-5.3-0.7-5.3-0.7C91.7,52,91.7,47.7,96.7,48z"
		/>
	<path display="inline" fill="#3F51B5" d="M9.7,66.7c0,0-1.7-12,8.3-12S27,67,27,67l44.3-0.3c0,0-1-11.3,9-11.3s8.7,11,8.7,11
		l6.7-1.3c0,0,2.7,0,4-3c0,0,0.7,0,0.3-0.7c0-0.7-0.3-0.7-0.3-0.7v-3.3c0,0-1.7-1-1.7-1.7c0-0.3-0.7-2.7-0.7-2.7s-2.3,0.3-2.7,0.3
		c-0.3-0.3-2-2.3-1.7-3c0-0.7,4-1.3,4-1.3s0.7-1,0.3-1.3C97,47.3,96.6,48.3,86,47c0,0-24.7,1.3-26.3,1.3c-1.7,0-29,0.3-30.3,0
		C27.7,48,25,47.7,25,47.7s-18.7,2-22.7,6.7c0,0-1.7,1.3-1.7,5.7c0,0-0.7,0.7-0.3,0.7s0.3,0.7,0.3,1.3c0,0.3,0,1.7,0,1.7
		s-1.3,1.7-0.7,2C0.7,65.3,3.3,66.3,9.7,66.7z"/>
	<path display="inline" fill="#2D2D2D" d="M75.3,46.3c0,0,1-2-0.7-2c-1.7-0.3-4,2.3-4,2.3C70.3,46.3,75.3,46.3,75.3,46.3z"/>
	<path display="inline" fill="#AFB3B6" d="M2,56c0,0,0-2,2-2.3c2.3-0.3,4.7-0.7,4.7-0.3c0,0.3-2.3,3-4,3S3.3,56,3,56S2.3,56.3,2,56z
		"/>
	<path display="inline" fill="#263677" d="M58.7,52.3c0,0.7-0.7,1-1,1h-1.3c-0.7,0-1-0.7-1-1l0,0c0-0.7,0.7-1,1-1h1.3
		C58.3,51,58.7,51.7,58.7,52.3L58.7,52.3z"/>
	<path display="inline" fill="#C2C0C1" d="M59.7,52.3c0,0.3,0,0.3-0.3,0.3H55c-0.3,0-0.3,0-0.3-0.3l0,0c0-0.3,0-0.3,0.3-0.3h4.3
		C59.3,51.7,59.7,52,59.7,52.3L59.7,52.3z"/>
	<path display="inline" fill="#231A1D" d="M34.7,47.7c0,0,0.3,1,0,1c0,0.3,0,0.7,0.7,1c1,0.3,1.3-0.3,1.3-0.7c0-0.3-0.3-0.7,0-0.7
		C36.7,48,34.7,47.7,34.7,47.7z"/>
	<g display="inline">
		<path fill="#263677" d="M38.3,47c0,0,0-0.3,0-0.7c-0.3-1.3-1-1.3-1-1.3s-3,0.7-2.7,2.3C35,47.3,37.3,47.3,38.3,47z"/>
		<path fill="#263677" d="M34.3,47.3L34.3,47.3c0.3,1.7,3.3,1,3.3,1s0.7-0.3,0.7-1.3C37.3,47.3,35,47.3,34.3,47.3z"/>
	</g>
	<g display="inline">
		<g>
			<circle fill="#27262C" cx="18.3" cy="63.7" r="8"/>
			<circle fill="#C3BFBE" cx="18.3" cy="63.7" r="6"/>
			<g>
				<path fill="#27262C" d="M16,59.7l1.3,1.7c0,0,0.3,0.3,0.7,0.3c0.3,0,0.7-0.3,0.7-0.3l1.3-1.7c0,0,0.3-0.3,0-0.3S19,59,18,59
					C17.3,58.7,15.7,59,16,59.7z"/>
				<path fill="#27262C" d="M16,67.7l1.3-1.7c0,0,0.3-0.3,0.7-0.3c0.3,0,0.7,0.3,0.7,0.3l1.3,1.7c0,0,0.3,0.3,0,0.3
					s-0.7,0.3-1.7,0.3S15.7,68,16,67.7z"/>
				<path fill="#27262C" d="M22.3,61.7L20.7,63c0,0-0.3,0.3-0.3,0.7c0,0.3,0.3,0.7,0.3,0.7l1.7,1.3c0,0,0.3,0.3,0.3,0s0.3-1,0.3-2
					C23,62.7,22.7,61.3,22.3,61.7z"/>
				<path fill="#27262C" d="M14.3,61.7L16,63c0,0,0.3,0.3,0.3,0.7c0,0.3-0.3,0.7-0.3,0.7l-1.7,1.3c0,0-0.3,0.3-0.3,0s-0.3-1-0.3-2
					C13.7,62.7,13.7,61.3,14.3,61.7z"/>
			</g>
		</g>
	</g>
	<g display="inline">
		<g>
			<circle fill="#27262C" cx="80" cy="63.7" r="8"/>
			<circle fill="#C3BFBE" cx="80" cy="63.7" r="6"/>
			<g>
				<path fill="#27262C" d="M78,59.7l1.3,1.7c0,0,0.3,0.3,0.7,0.3s0.7-0.3,0.7-0.3l1.3-1.7c0,0,0.3-0.3,0-0.3s-1-0.3-2-0.3
					C79,58.7,77.7,59,78,59.7z"/>
				<path fill="#27262C" d="M78,67.7l1.3-1.7c0,0,0.3-0.3,0.7-0.3s0.7,0.3,0.7,0.3l1.3,1.7c0,0,0.3,0.3,0,0.3s-1,0.3-2,0.3
					S77.7,68,78,67.7z"/>
				<path fill="#27262C" d="M84,61.7L82.3,63c0,0-0.3,0.3-0.3,0.7c0,0.3,0.3,0.7,0.3,0.7l1.7,1.3c0,0,0.3,0.3,0.3,0s0.3-1,0.3-2
					C85,62.7,84.7,61.3,84,61.7z"/>
				<path fill="#27262C" d="M76.3,61.7L78,63c0,0,0.3,0.3,0.3,0.7c0,0.3-0.3,0.7-0.3,0.7l-1.7,1.3c0,0-0.3,0.3-0.3,0s-0.3-1-0.3-2
					C75.3,62.7,75.7,61.3,76.3,61.7z"/>
			</g>
		</g>
	</g>
</g>
<g>
	<g>
		<path fill="#0B0001" d="M7.8,64.1l1.7,2c0,0,1.5-0.1,2-0.5s11.8,1.1,11.9,1s3.9-0.2,4.2-0.6c0.3-0.3-1.8-13.3-1.8-13.3l-9.7-2.5
			C16.2,50.4,7.7,55,7.8,64.1z"/>
		<path d="M68.9,64.5l2.2,1.5c0,0,1.9,1.4,2.6,1.6s13.8-3.1,13.8-3.1s1.5,0.1,1.5,0.7s2.3-6.2,2.3-6.2l-5.8-6.9l-12.1,0.3
			C73.3,52.4,67.4,60.5,68.9,64.5z"/>
		<path fill="#CECECE" d="M92.4,64.2h5.8c0,0,0.6-0.9,0.6-1.4s-5.9,0-5.9,0L92.4,64.2z"/>
		<path fill="#2D2D2D" d="M43.5,36.4c0,0,0.6-1,2,0s1.8,1.9,1.2,2.3c-0.5,0.4-10.5,6-10.8,7.7c-0.3,1.6-7.1,2-7.1,2l1.5-3
			C30.3,45.4,40.8,37.4,43.5,36.4z"/>
		<path fill="#2D2D2D" d="M59.4,39.2c0,0-1.8,1.1-1.7,3c0.1,2,0.6,2.7,0.6,2.7l2.7,0.5c0,0,0.5-3.4,0.2-4.4
			C61,40.1,60.5,39.2,59.4,39.2z"/>
		<path fill="#2D2D2D" d="M58.6,45c0,0,0.1-1.6,0.5-1.8c0.4-0.3,7.1-0.6,10.3-0.4c3.2,0.2,13.2-1,15.6,0.5
			C87.4,44.7,59.7,45.8,58.6,45z"/>
		<path fill="#2D2D2D" d="M25.4,45.6c0,0,0.8-0.8,1.3-0.7s2.8-1.2,4.1-0.5c1.2,0.7-1.9,2.8-1.9,2.8L25.4,45.6z"/>
		<path fill="#C2C0C1" d="M28.8,46c0,0,9.3-8.2,15.1-10.3c0,0,0.8,0.5,0.6,0.8s-4.4,1.5-13.5,9c0,0,13.2-0.5,28.4-1s27-2.5,27.1-0.9
			C86.6,45.3,29,47.2,28.8,46z"/>
		<path fill="#C3BFBE" d="M96.5,45.2c0,0,1,1.6,1,2.2S97,50.7,96.8,51c-1.5,2.1-5.2-0.8-5.2-0.9C91.6,49.9,91.4,44.9,96.5,45.2z"/>
		<path fill="#3F51B5" d="M9.5,66.2c0,0-1.7-13.5,8.4-13.5S27,66.3,27,66.3L71.1,66c0,0-0.9-12.8,8.9-12.8s8.7,12.3,8.7,12.3
			l6.7-1.3c0,0,2.6,0,3.9-3.5c0,0,0.5,0.1,0.4-0.8C99.6,59,99.4,59,99.4,59l0.1-3.9c0,0-1.7-1.3-1.8-1.7c-0.1-0.4-0.8-3-0.8-3
			s-2.3,0.5-2.6,0.2c-0.3-0.3-1.9-2.7-1.8-3.4c0.2-0.7,4.1-1.3,4.1-1.3s0.8-1.1,0.4-1.6s-0.9,0.9-11.3-0.8c0,0-24.6,1.4-26.4,1.4
			c-1.9,0-28.9,1.3-30.5,0.9c-1.6-0.4-4.2-0.9-4.2-0.9S6.4,47,2.4,52.2c0,0-1.5,1.6-1.6,6.3c0,0-0.6,0.7-0.3,0.7
			c0.2,0.1,0.3,0.9,0.4,1.4c0.1,0.4,0,1.9,0,1.9s-1.2,1.7-0.7,2.2C0.8,65,3.4,66,9.5,66.2z"/>
		<path fill="#2D2D2D" d="M75.1,43.2c0,0,1-2.1-0.8-2.4c-1.8-0.3-3.9,2.7-3.9,2.7C70.3,43.6,75.1,43.2,75.1,43.2z"/>
		<path fill="#C3BFBE" d="M2.2,54.2c0,0-0.1-2.3,2.1-2.7C6.6,51,9,50.6,9.1,51.2c0.1,0.5-2.2,3.5-4,3.6s-1.2-0.5-1.7-0.5
			C3,54.2,2.2,54.5,2.2,54.2z"/>
		<path fill="#3F51B5" d="M1.6,60.8c0,0-0.2-1,0-1.1c0.2-0.2,2-0.5,2.3,0.1c0.4,0.6,1,2,1,2.7s0,1.2-0.6,1.2
			c-0.6-0.1-2.5,0.1-2.6-0.4c-0.1-0.6,0.2-1.4,0-1.7c0,0-0.6,0.1-0.7-0.1c0-0.3,0-0.7,0.2-0.7C1.3,60.8,1.6,60.8,1.6,60.8z"/>
		<path fill="#C3BFBE" d="M59.5,50c0,0.2-0.2,0.5-0.4,0.5h-4.4c-0.2,0-0.4-0.2-0.4-0.5l0,0c0-0.2,0.2-0.5,0.4-0.5h4.4
			C59.3,49.6,59.5,49.8,59.5,50L59.5,50z"/>
		<path fill="#C2C0C1" d="M38.1,43.5C37.8,42,37,42.2,37,42.2s-2.8,0.8-2.8,2.4c0,0,0,0,0,0c0,0,0,0.1,0,0.1c0,0.3,0.2,0.6,0.4,0.7
			c0.1,0.3,0.1,0.6,0.1,0.7c-0.1,0.2-0.2,1,0.7,1.2c0.9,0.2,1.2-0.4,1.2-0.7c0-0.2-0.1-0.5-0.1-0.7c0.6,0,1-0.1,1-0.1
			s0.7-0.6,0.7-1.7C38.2,44,38.2,43.8,38.1,43.5z"/>
		<g>
			<g>
				<path fill="#27262C" d="M26.1,62.8c0,4.9-3.5,8.9-7.9,8.9s-7.9-4-7.9-8.9s3.5-8.9,7.9-8.9S26.1,57.9,26.1,62.8z"/>
				<path fill="#C3BFBE" d="M12.2,62.8c0,3.7,2.7,6.7,6,6.7s6-3,6-6.7s-2.7-6.7-6-6.7S12.2,59.1,12.2,62.8z"/>
				<g>
					<path fill="#27262C" d="M16.1,58.3l1.4,1.8c0,0,0.2,0.4,0.6,0.4c0.3,0,0.6-0.3,0.6-0.3l1.4-1.9c0,0,0.2-0.3,0-0.5
						s-0.9-0.5-1.9-0.5C17.2,57.4,15.8,57.7,16.1,58.3z"/>
					<path fill="#27262C" d="M16.1,67.3l1.4-1.8c0,0,0.2-0.4,0.6-0.4c0.3,0,0.6,0.3,0.6,0.3l1.4,1.9c0,0,0.2,0.3,0,0.4
						c-0.2,0.2-0.9,0.5-1.9,0.5C17.2,68.3,15.8,68,16.1,67.3z"/>
					<path fill="#27262C" d="M22.2,60.6l-1.6,1.6c0,0-0.4,0.3-0.4,0.6c0,0.4,0.3,0.6,0.3,0.6l1.7,1.6c0,0,0.2,0.2,0.4,0
						s0.4-1,0.4-2.1S22.8,60.2,22.2,60.6z"/>
					<path fill="#27262C" d="M14.2,60.6l1.6,1.6c0,0,0.4,0.3,0.4,0.6c0,0.4-0.3,0.6-0.3,0.6L14.2,65c0,0-0.2,0.2-0.4,0
						s-0.4-1-0.4-2.1S13.7,60.2,14.2,60.6z"/>
				</g>
			</g>
		</g>
		<g>
			<g>
				<path fill="#27262C" d="M87.8,62.8c0,4.9-3.5,8.9-7.9,8.9s-7.9-4-7.9-8.9s3.5-8.9,7.9-8.9C84.3,53.9,87.8,57.9,87.8,62.8z"/>
				<path fill="#C3BFBE" d="M74,62.8c0,3.7,2.7,6.7,6,6.7s6-3,6-6.7s-2.7-6.7-6-6.7S74,59.1,74,62.8z"/>
				<g>
					<path fill="#27262C" d="M77.9,58.3l1.4,1.8c0,0,0.2,0.4,0.6,0.4c0.3,0,0.6-0.3,0.6-0.3l1.4-1.9c0,0,0.2-0.3,0-0.5
						S81,57.3,80,57.3C79,57.4,77.5,57.7,77.9,58.3z"/>
					<path fill="#27262C" d="M77.9,67.3l1.4-1.8c0,0,0.2-0.4,0.6-0.4c0.3,0,0.6,0.3,0.6,0.3l1.4,1.9c0,0,0.2,0.3,0,0.4
						S81,68.2,80,68.2C79,68.3,77.5,68,77.9,67.3z"/>
					<path fill="#27262C" d="M84,60.6l-1.6,1.6c0,0-0.4,0.3-0.4,0.6c0,0.4,0.3,0.6,0.3,0.6L84,65c0,0,0.2,0.2,0.4,0s0.4-1,0.4-2.1
						S84.5,60.2,84,60.6z"/>
					<path fill="#27262C" d="M76,60.6l1.6,1.6c0,0,0.4,0.3,0.4,0.6c0,0.4-0.3,0.6-0.3,0.6L76,65.1c0,0-0.2,0.2-0.4,0s-0.4-1-0.4-2.1
						S75.5,60.2,76,60.6z"/>
				</g>
			</g>
		</g>
	</g>
</g>
</svg>
