<?xml version="1.0" encoding="utf-8"?>
<!-- Generator: Adobe Illustrator 18.0.0, SVG Export Plug-In . SVG Version: 6.00 Build 0)  -->
<!DOCTYPE svg PUBLIC "-//W3C//DTD SVG 1.1//EN" "http://www.w3.org/Graphics/SVG/1.1/DTD/svg11.dtd">
<svg version="1.1" id="Layer_1" xmlns="http://www.w3.org/2000/svg" xmlns:xlink="http://www.w3.org/1999/xlink" x="0px" y="0px"
	 viewBox="0 0 100 100" enable-background="new 0 0 100 100" xml:space="preserve">
<g>
	<g>
		<path d="M69.1,38.9c0,0,1.4-1.2,1.8-1.3c0.3-0.1,0.6-0.2,0.6,0.1s-0.6,1.2-0.5,1.6C71.1,39.7,69.1,38.9,69.1,38.9z"/>
		<path d="M89,65l-1.9,1.9l-3,0.2l-14.5-0.3l-43-0.4l-1.1,0.4c0,0-1.7-0.1-2.4,0c-0.7,0.1-10.8,0.3-10.8,0.3s-2.1,0.1-2.8,0.6
			l-1.9-4L9.1,54c0,0,5.1-2.4,5.5-2.5s8.1-0.3,8.1-0.3l13.2,1.4L75.6,50l12.3,0.4L89,65z"/>
		<path fill="#27262C" d="M98.8,61.2c0,0-0.3,0.8-0.2,1.1c0,0.2,0.6,0.6,0.6,1S98.6,64.9,98,65c0,0-0.2,1.1-0.8,1.1
			c-0.6,0-5.7,0.3-5.7,0.3S96.9,60.5,98.8,61.2z"/>
		<path fill="#C3BFBE" d="M92.5,49.1h4.3l0.3,0.2c0,0,1.5,1.2,0.3,4C96.3,56.2,90.6,53.2,92.5,49.1z"/>
		<path fill="#3F51B5" d="M72,39.9l2-0.1c0,0,9.7,2.6,15.8,6.1c6.1,3.5-3.7,2-3.7,2S71.2,41.8,72,39.9z"/>
		<path fill="#3F51B5" d="M44.5,38.6c-2.9,0.5-10.5,5.1-12.7,6.3c-1.1,0.6-2.3,1.5-3.1,2.2c-1.2,0.1-2.2,0.2-2.2,0.2l1.3,0.6
			c-0.3,0.2-0.4,0.4-0.4,0.4c0.7,4.8,19.2-7,19.2-7.1C46.6,41.1,47.3,38,44.5,38.6z"/>
		<path fill="#3F51B5" d="M9.4,67.8c0,0-9.2-0.7-9.4-2.6c0,0-0.1-0.4,0.4-0.7c0,0-0.3-6,0.4-7.8c0.7-1.9,0.7-4.1,4.5-5.7
			s12.9-3.4,21.2-3.8c0,0,2,0.8,3.1,0.7c0,0,12.1-8.1,15-8.3c0,0-0.8-0.6-0.6-0.9c0.2-0.3,7.2-1.6,16-1c9,0.6,14,2.1,14,2.1
			s-1.3,0.7-1.1,0.8c0.2,0.1,13.6,5.1,13.6,5.1s2,0.5,3-0.1c0,0,2.4,0.7,3.1,0.8s4.1-0.1,4.1,0.4c0.1,0.5,0,1.3,0.1,1.5
			c0.2,0.2,0.9,1.3,0.8,1.8L97,49.4c0,0-4.7,0.3-4.8,0.9c-0.1,0.7,0.4,2.4,0.7,2.7c0.3,0.3,4.6,0.1,4.6,0.1s0.3,2.3,0.7,2.6
			c0.4,0.3,1.6,0.6,1.6,1.4c0,0.8,0.1,4.2-1.2,4.5c0,0-1.4-0.2-2.4,1.1c-0.9,1.3-2,3-4,3.5c-1.9,0.5-5.1,0.7-5.1,0.7
			s1.2-12.8-8.8-12.7c-8.8-0.4-8.3,12.6-8.3,12.6l-44.7,0.1c0,0,2.3-12.7-8.3-12.7C6.7,54.2,9.4,67.8,9.4,67.8z"/>
		<g>
			<path fill="none" d="M32.4,48.5l25.4-1.1c0,0,0.3,0,0.7,0L33,47.9C32.6,48.3,32.4,48.5,32.4,48.5z"/>
			<path d="M59.3,47.9l16-0.9c0,0,1,0,1-0.5s-5.4-5.1-8.8-6s-14.5-2-19.7-0.7c-5.3,1.2-11.3,4-16.4,8.7h1c0,0,19.2-0.6,26.1-0.6"/>
		</g>
		<path fill="#FFFFFF" d="M38,47c0,0,6.1-4.6,10.9-5.5s10.3-0.4,10.3-0.4s-0.8,5.5-1.3,5.7S37,47.3,37,47.3L38,47z"/>
		<path fill="#FFFFFF" d="M62.1,41.2l-0.7,5.5l10.8-0.4c0,0,1.1,0,1.1-0.4C73.3,45.5,68.3,40.9,62.1,41.2z"/>
		<path fill="#C3BFBE" d="M37.6,44.3c-1.5,0.6-1.7,1.4-1.9,2.3c0,0-0.8-0.2-0.9,0.1c0,0.2,0.1,0.6,0.3,0.8c0.1,0.2,0.3,0.3,0.5,0.4
			c0.5,0.2,1.1,0.2,1.4,0.2c0.4,0,1.5-0.1,1.9-0.2c0.3-0.1,0.9-0.6,1-1.3c0-0.2,0-0.4,0-0.6C39.6,44.9,39,43.8,37.6,44.3z"/>
		<path fill="#C3BFBE" d="M3.2,53.1c0,0-1.1,0.4-1.6,2.2s0.1,1.4,0.4,1.3c0.2-0.1,3.7-0.5,4.2-0.5c0.5-0.1,0.5-0.6,0.6-0.8
			C6.9,55,8.4,53.2,8,52.7C7.6,52.3,3.9,52.8,3.2,53.1z"/>
		<path fill="#3F51B5" d="M0.8,60.5c0,0,0.1,2.8,0.3,3.2c0.2,0.4,0.7,0.8,1.6,0.9c0.8,0.1,2.3,0.2,2.4-0.9c0.1-1.2,0.3-3.4,0.3-3.4
			S0.7,60.2,0.8,60.5z"/>
		<g>
			<ellipse fill="#27262C" cx="17.2" cy="63.1" rx="7.2" ry="8"/>
			<path fill="#C3BFBE" d="M11.8,63.1c0,3.3,2.4,6,5.4,6s5.4-2.7,5.4-6c0-3.3-2.4-6-5.4-6C14.3,57.1,11.8,59.8,11.8,63.1z"/>
			<g>
				<path fill="#27262C" d="M15.4,59.1l1.3,1.6c0,0,0.2,0.4,0.5,0.4s0.5-0.3,0.5-0.3L19,59c0,0,0.2-0.2,0-0.4s-0.8-0.4-1.7-0.4
					C16.4,58.2,15.1,58.5,15.4,59.1z"/>
				<path fill="#27262C" d="M15.4,67.1l1.3-1.6c0,0,0.2-0.4,0.5-0.4s0.5,0.3,0.5,0.3l1.3,1.7c0,0,0.2,0.2,0,0.4
					c-0.2,0.2-0.8,0.4-1.7,0.4C16.4,68,15.1,67.7,15.4,67.1z"/>
				<path fill="#27262C" d="M20.9,61.1l-1.4,1.4c0,0-0.3,0.2-0.3,0.6c0,0.3,0.2,0.6,0.2,0.6l1.5,1.5c0,0,0.2,0.2,0.4,0
					c0.1-0.2,0.4-0.9,0.4-1.9C21.6,62.2,21.4,60.7,20.9,61.1z"/>
				<path fill="#27262C" d="M13.7,61.1l1.4,1.4c0,0,0.3,0.2,0.3,0.6s-0.2,0.6-0.2,0.6l-1.5,1.5c0,0-0.2,0.2-0.4,0s-0.4-0.9-0.4-1.9
					C12.9,62.2,13.2,60.7,13.7,61.1z"/>
			</g>
		</g>
		<g>
			<ellipse fill="#27262C" cx="78.6" cy="63" rx="7.2" ry="8"/>
			<path fill="#C3BFBE" d="M73.2,63c0,3.3,2.4,6,5.4,6s5.4-2.7,5.4-6c0-3.3-2.4-6-5.4-6S73.2,59.7,73.2,63z"/>
			<g>
				<path fill="#27262C" d="M76.7,59l1.2,1.6c0,0,0.2,0.4,0.5,0.4s0.5-0.3,0.5-0.3l1.3-1.7c0,0,0.2-0.2,0-0.4s-0.8-0.4-1.7-0.4
					C77.7,58.2,76.4,58.4,76.7,59z"/>
				<path fill="#27262C" d="M76.7,67.1l1.2-1.6c0,0,0.2-0.4,0.5-0.4s0.5,0.3,0.5,0.3l1.3,1.7c0,0,0.2,0.2,0,0.4
					c-0.2,0.2-0.8,0.4-1.7,0.4C77.7,67.9,76.4,67.6,76.7,67.1z"/>
				<path fill="#27262C" d="M82.3,61l-1.4,1.4c0,0-0.3,0.2-0.3,0.6c0,0.3,0.2,0.6,0.2,0.6l1.5,1.5c0,0,0.2,0.2,0.4,0
					c0.2-0.2,0.4-0.9,0.4-1.9C83,62.1,82.8,60.6,82.3,61z"/>
				<path fill="#27262C" d="M75,61l1.4,1.4c0,0,0.3,0.2,0.3,0.6c0,0.3-0.2,0.6-0.2,0.6L75,65c0,0-0.2,0.2-0.4,0
					c-0.2-0.2-0.4-0.9-0.4-1.9C74.3,62.1,74.6,60.6,75,61z"/>
			</g>
		</g>
	</g>
</g>
<path fill="#C3BFBE" d="M60.2,51.9c0,0.4,0,0.4-0.3,0.4l-3.5,0c-0.3,0-0.3,0-0.3-0.4l0,0c0-0.4,0-0.4,0.3-0.4l3.5,0
	C60.2,51.5,60.2,51.5,60.2,51.9L60.2,51.9z"/>
</svg>
