<?xml version="1.0" encoding="utf-8"?>
<!-- Generator: Adobe Illustrator 18.0.0, SVG Export Plug-In . SVG Version: 6.00 Build 0)  -->
<!DOCTYPE svg PUBLIC "-//W3C//DTD SVG 1.1//EN" "http://www.w3.org/Graphics/SVG/1.1/DTD/svg11.dtd">
<svg version="1.1" id="Layer_1" xmlns="http://www.w3.org/2000/svg" xmlns:xlink="http://www.w3.org/1999/xlink" x="0px" y="0px"
	 viewBox="0 0 500 500" enable-background="new 0 0 500 500" xml:space="preserve">
<g>
	<g>
		<path fill="#000308" d="M130.9,240.1l7.8-1.7c0,0,4.3-5.1,6.4-4.7c2.1,0.4,4.4,0.8,3.2,2.1s-2.4,7.7-6.4,9.5
			C137.9,247.3,128.2,245.8,130.9,240.1z"/>
		<path fill="#000308" d="M47.7,329.2l9.6,11.9c0,0,3.2,0.9,6.9-2.9c3.6-3.8,61.8,4.3,61.8,4.3s12.1,0,19.3,0c7.3,0,188-8.4,188-8.4
			l28,7c0,0,10-2.3,14.9-1.4c4.8,0.9,59.4-1.8,59.4-1.8s15.7,2.9,18.1-2.1c2.5-5,20.5-69.9-27.9-70.9s-268.4,37.9-268.4,37.9
			l-57.8-35.6l-50.2,16.3L47.7,329.2z"/>
		<path fill="#3F51B5" d="M492.6,272.8c0,0,0.8-3,0-7.5s-2.6-18.9-4.5-22.8c-2.1-4-3.5-4.4-3.5-4.4l0,0c-8.4-12.9-42-40.9-44.6-42.6
			c-1.2-0.7-2.1-1.3-2.8-1.8c1-3-15.4-4.1-15.4-4.1c-5.8-0.7-79.6-7.2-122.7-7.5c-35.8-0.3-64.9,7-74.8,10.2l0,0
			c0,0-25.7,7.4-80,46.3l-0.9,5.1c-3.8,0.2-8.3,0-10.5-1c-3.7-1.7,4.4-3.8,4.4-3.8s-20.4-0.2-72,12.8c-51.5,13-57.1,27-57.8,29.9
			c-0.8,3-1.8,7.7-1.8,7.7c-0.8,4-0.3,17-0.5,18.4s0.1,2.5,0.1,2.5c-0.1,0.5-0.1,1-0.1,1.5c0,5.6,3.4,9.3,3.6,11.1
			c0.2,1.7-1.4,2.4-2.3,3.7c-0.2,0.2-0.3,0.5-0.5,0.7c-0.9,1.9,1.6,2.8,1.6,2.8c8.3,5.9,49.7,11.1,49.7,11.1
			c-5-14.1-5.1-61.6,39.5-62c44.6-0.3,45.4,63.3,45.4,63.3l219.1-1.4c-2.7-8.5-8.1-59.7,41.8-59.6s46.2,57,46.2,57h0.6
			c5.7,0,17.1-3.6,20.9-4.2c3.8-0.7,16.3-7.9,20.7-10.6s3.2-18,3.2-20s-2.3-9-1.8-11.8 M296.8,241l-109.2,4.1l2-17.8
			c16.7-13.8,23.8-16.4,43.4-25.6c19.6-9.2,77.5-6.4,77.5-6.4L296.8,241z M402.7,237.7c-1.2,1.1-35.5,2.2-35.5,2.2s-43.4,1.9-44.9,1
			c-1.5-0.9,0-10.7,0-10.7l8.3-35.9c3.5-0.7,33.7,3,49.5,6.5c15.9,3.5,23.6,14.3,26.4,19.2C409.4,224.9,403.9,236.6,402.7,237.7z"/>
		<path fill="none" stroke="#000000" stroke-width="2.2629" stroke-miterlimit="10" d="M232.8,201.8c-19.6,9.2-26.7,11.8-43.4,25.6
			l-2,17.8l109.2-4.1l14.5-46.7C311.2,194.3,252.5,192.6,232.8,201.8z"/>
		<path fill="none" stroke="#000000" stroke-width="2.5051" stroke-miterlimit="10" d="M380.2,200.9c-15.9-4.3-46-7.3-49.5-6.5
			l-8.3,39.9c0,0-1.5,5.5,0,6.6c1.5,1.1,46.8-1.3,46.8-1.3s32.4-0.8,33.6-2.2c1.2-1.3,5.7-7.6,5.9-14.7
			C408.8,216.1,396.1,205.2,380.2,200.9z"/>
		<path fill="#C3BFBE" d="M9.3,287.4c0,0,0.4-5.5,6.6-9.1c6.5-3.8,9.9-4.1,12.2-2.7s5.4,5.8,5.6,8.3c0.2,2.5,1,7.7-4.4,7.8
			C23.8,291.8,10.2,294.5,9.3,287.4z"/>
		<path fill="#C3BFBE" d="M446.6,254.2c0,0,5.9-7.2,17.2-7.1c11.3,0.1,23.2,3.1,23,11.1c-0.2,8-16.5,5.5-16.5,5.5
			S442.4,261.2,446.6,254.2z"/>
		<path fill="#C3BFBE" d="M179.6,243c0,0-3.7-6.3,5.6-11.6s9.3,2.8,9.4,4.5s0.5,8-2.6,8.6C189.1,245.1,180.4,245.8,179.6,243z"/>
		<g>
			<ellipse fill="#27262C" cx="403.5" cy="324.3" rx="36.2" ry="37.9"/>
			<ellipse fill="#C3BFBE" cx="403.5" cy="324.3" rx="27.4" ry="28.6"/>
			<g>
				<path fill="#27262C" d="M394.1,305.1l6.3,7.5c0,0,1.1,1.8,2.6,1.8s2.6-1.3,2.6-1.3l6.6-8.1c0,0,0.9-1.1,0-1.9s-4.1-1.9-8.6-1.9
					C399.1,301.2,392.4,302.5,394.1,305.1z"/>
				<path fill="#27262C" d="M394.1,343.5l6.3-7.5c0,0,1.1-1.8,2.6-1.8s2.6,1.3,2.6,1.3l6.6,8.1c0,0,0.9,1.1,0,1.9s-4.1,1.9-8.6,1.9
					C399.1,347.3,392.4,346.1,394.1,343.5z"/>
				<path fill="#27262C" d="M422.2,314.7l-7.2,6.6c0,0-1.8,1.1-1.8,2.7s1.2,2.7,1.2,2.7l7.8,6.9c0,0,1.1,1,1.9,0s1.9-4.3,1.9-9
					C425.8,319.9,424.6,313,422.2,314.7z"/>
				<path fill="#27262C" d="M385.5,314.7l7.2,6.6c0,0,1.8,1.1,1.8,2.7s-1.2,2.7-1.2,2.7l-7.8,6.9c0,0-1.1,1-1.9,0s-1.9-4.3-1.9-9
					C381.7,319.9,383,313,385.5,314.7z"/>
			</g>
		</g>
		<g>
			<ellipse fill="#27262C" cx="96.2" cy="324.3" rx="36.2" ry="37.9"/>
			<ellipse fill="#C3BFBE" cx="96.2" cy="324.3" rx="27.4" ry="28.6"/>
			<g>
				<path fill="#27262C" d="M86.8,305.1l6.3,7.5c0,0,1.1,1.8,2.6,1.8c1.5,0,2.6-1.3,2.6-1.3l6.6-8.1c0,0,0.9-1.1,0-1.9
					c-0.9-0.8-4.1-1.9-8.6-1.9C91.8,301.2,85.1,302.5,86.8,305.1z"/>
				<path fill="#27262C" d="M86.8,343.5l6.3-7.5c0,0,1.1-1.8,2.6-1.8c1.5,0,2.6,1.3,2.6,1.3l6.6,8.1c0,0,0.9,1.1,0,1.9
					c-0.9,0.8-4.1,1.9-8.6,1.9C91.8,347.3,85.1,346.1,86.8,343.5z"/>
				<path fill="#27262C" d="M114.9,314.7l-7.2,6.6c0,0-1.8,1.1-1.8,2.7s1.2,2.7,1.2,2.7l7.8,6.9c0,0,1.1,1,1.9,0s1.9-4.3,1.9-9
					C118.5,319.9,117.3,313,114.9,314.7z"/>
				<path fill="#27262C" d="M78.1,314.7l7.2,6.6c0,0,1.8,1.1,1.8,2.7s-1.2,2.7-1.2,2.7l-7.8,6.9c0,0-1.1,1-1.9,0
					c-0.8-1-1.9-4.3-1.9-9C74.4,319.9,75.7,313,78.1,314.7z"/>
			</g>
		</g>
	</g>
	<path fill="#C3BFBE" d="M277.8,255.5h17.5v4C295.3,259.6,277.8,263.5,277.8,255.5z"/>
	<path fill="#C3BFBE" d="M386.7,255.5h17.5v4C404.2,259.6,386.7,263.5,386.7,255.5z"/>
</g>
</svg>
