<?xml version="1.0" encoding="utf-8"?>
<!-- Generator: Adobe Illustrator 18.0.0, SVG Export Plug-In . SVG Version: 6.00 Build 0)  -->
<!DOCTYPE svg PUBLIC "-//W3C//DTD SVG 1.1//EN" "http://www.w3.org/Graphics/SVG/1.1/DTD/svg11.dtd">
<svg version="1.1" id="Layer_1" xmlns="http://www.w3.org/2000/svg" xmlns:xlink="http://www.w3.org/1999/xlink" x="0px" y="0px"
	 viewBox="0 0 500 500" enable-background="new 0 0 500 500" xml:space="preserve">
<g>
	<g>
		<g>
			<path fill="#27262C" d="M408.5,236.7c-1.5-1.9-3.5-5.4-3.5-8.8c0-2.9,0-4.4,0-7.3c-6.5-18-18.5-47.3-18.5-47.3l-15,58l0,0
				l-1.5,5.4c0,0,33.5,27.8,36.5,24.4C408.5,257.6,410,248.9,408.5,236.7z"/>
			<path fill="#C3BFBE" d="M408.5,231.8v-1.5c0-3.4-1.5-4.9-3.5-9.7c0,1.5,0,4.9,0,8.3v1.5c0,3.4,2,5.8,3.5,7.8
				C408.5,234.3,408.5,233.3,408.5,231.8z"/>
		</g>
		<path fill="#09070A" d="M320,315.1c0,0,11.5-0.5,11.5,1c0,0,3.5,11.7,11.5,13.6c6.5,1.5,63.5-13.2,63.5-13.2s8.5-1.5,10-1.5
			c0,0,5-9.7,0-22.9S393,261.5,370,267.9C346.5,269.8,321.5,274.7,320,315.1z"/>
		<path fill="#09070A" d="M85,304.9l1.5,21c0,0,5,0,8.5,0c1.5,0,71.5,3.4,71.5,3.4s3.5-3.4,5-4.9s5-1.5,5-1.5l13.5-31.2l-63.5-24.4
			C126.5,267.4,81.5,277.1,85,304.9z"/>
		<path fill="#C3BFBE" d="M125,229.9L100,243c0,0-6,7.8-8.5,14.6c0,0-6.5,18.5-3,20c5,1.5,60-36.1,60-36.1S141.5,227,125,229.9z"/>
		<g>
			<path fill="#3F51B5" d="M415,262.5c-5-4.9-25-25.8-25-30.7c0-4.9,0-52.1,0-55.1c0-3.4,3.5-6.3,0-6.3c-3,0-82.6-4.8-125.1-0.9
				c-3.8-0.8-8.3-0.7-13.4,0.5c-30.8,7.3-88.8,42.2-102.2,50.4c-4.8,0.1-9.7,0.6-12.3,1.8c-8.5,2.9-37,21-37,21s28.5-11.2,33.5-9.7
				c3.5,1.5,6.5,3.4,6.5,3.4l-28.5,19.5l-15,6.3c0,0-6.5,3.4-8.5,6.3c0,3.4-5,13.2-5,19.5s0,19.5,0,25.8s1.5,16.1,6.5,14.6
				c0,0-8.5-52.1,43.5-52.1c35,0,41.5,30.7,43.5,45.3l155-6.3c3.5-16.1,13.5-42.4,50-39c38.5,3.4,38.5,34.6,31.5,38
				c-3,0.3,7,6.2,7-9.9C420,288.8,420,265.9,415,262.5z"/>
			<path fill="#FFFFFF" stroke="#27262C" stroke-width="0.7403" stroke-miterlimit="10" d="M178.5,233.3l165-16.1
				c0,0,11.5-32.6,3.5-37.5s-32-4.9-32-4.9s-21.3,0-41.5,2.2c-11.1,1.2-21.9,3.1-28.5,6.1C226.5,191.4,176.5,210.4,178.5,233.3z"/>
		</g>
		<ellipse fill="#27262C" cx="373.5" cy="321" rx="38.5" ry="37.5"/>
		<g>
			<path fill="#27262C" d="M130,283.5c-21.5,0-38.5,16.1-38.5,37.5s16.5,37.5,38.5,37.5s38.5-16.1,38.5-37.5
				C168.5,299.5,151.5,283.5,130,283.5z M130,348.8c-15,0-28.5-13.2-28.5-27.8s13.5-27.8,28.5-27.8s28.5,13.2,28.5,27.8
				C160,335.6,146.5,348.8,130,348.8z"/>
			<ellipse fill="#C3BFBE" cx="130.5" cy="321.5" rx="29" ry="28.3"/>
		</g>
		<ellipse fill="#C3BFBE" cx="373.5" cy="321" rx="28.5" ry="27.8"/>
		<path fill="#27262C" d="M120,301.5l6.5,8.3c0,0,1.5,1.5,3.5,1.5c1.5,0,3.5-1.5,3.5-1.5l6.5-8.3c0,0,1.5-1.5,0-1.5s-5-1.5-10-1.5
			C126.5,298.1,120,298.1,120,301.5z"/>
		<path fill="#27262C" d="M120,339l6.5-8.3c0,0,1.5-1.5,3.5-1.5c1.5,0,3.5,1.5,3.5,1.5l6.5,8.3c0,0,1.5,1.5,0,1.5
			c-1.5,1.5-5,1.5-10,1.5C126.5,341.9,120,341.9,120,339z"/>
		<path fill="#27262C" d="M151,311.7l-8.5,5.4l-0.5,0.5c-0.5,0.5-1.5,1.5-1.5,2.9c0,1,0.5,1.9,0.5,2.4c0.5,0.5,0.5,1,1,1.5l7,4.9
			l0.5,0.5c0.5,0.5,1.5,1,1.5,0c0-1.5,2-4.9,2.5-9.7C154,316.6,154.5,310.3,151,311.7z"/>
		<path fill="#27262C" d="M111.5,311.2l8.5,6.3c0,0,1.5,1.5,1.5,3.4c0,1.5-1.5,3.4-1.5,3.4l-8.5,6.3c0,0-1.5,1.5-1.5,0
			c0,0-1.5-4.9-1.5-8.3C108.5,316.1,110,309.8,111.5,311.2z"/>
		<g>
			<path fill="#27262C" d="M363.5,301.5l6.5,8.3c0,0,1.5,1.5,3.5,1.5c1.5,0,3.5-1.5,3.5-1.5l6.5-8.3c0,0,1.5-1.5,0-1.5
				s-5-1.5-10-1.5C368.5,298.1,361.5,298.1,363.5,301.5z"/>
			<path fill="#27262C" d="M363.5,339l6.5-8.3c0,0,1.5-1.5,3.5-1.5c1.5,0,3.5,1.5,3.5,1.5l6.5,8.3c0,0,1.5,1.5,0,1.5s-5,1.5-10,1.5
				S361.5,341.9,363.5,339z"/>
			<path fill="#27262C" d="M393.5,311.2l-8.5,6.3c0,0-1.5,1.5-1.5,3.4c0,1.5,1.5,3.4,1.5,3.4l8.5,6.3c0,0,1.5,1.5,1.5,0
				s1.5-4.9,1.5-9.7C396.5,316.1,396.5,309.8,393.5,311.2z"/>
			<path fill="#27262C" d="M355,311.2l8.5,6.3c0,0,1.5,1.5,1.5,3.4c0,1.5-1.5,3.4-1.5,3.4l-8.5,6.3c0,0-1.5,1.5-1.5,0
				s-1.5-4.9-1.5-9.7C351.5,316.1,351.5,309.8,355,311.2z"/>
		</g>
		<path fill="#91401C" d="M101.5,259.1v-1.5"/>
		<path fill="#91401C" d="M91.5,261.1l1.5,1.5"/>
		<polygon fill="#27262C" points="284.2,176.3 278.1,223.6 284.6,222.8 288.8,175.8 		"/>
	</g>
	<path fill="#C3BFBE" d="M342,236c0,0.6-0.6,1.6-1.3,1.6h-14c-0.6,0-1.3-0.6-1.3-1.6l0,0c0-0.6,0.6-1.6,1.3-1.6h14
		C341.4,234.7,342,235.4,342,236L342,236z"/>
	<path fill="#C3BFBE" d="M278.1,237.6c0,0.6-0.6,1.6-1.3,1.6l-14,0c-0.6,0-1.3-0.6-1.3-1.6l0,0c0-0.6,0.6-1.6,1.3-1.6l14,0
		C277.5,236.3,278.1,237,278.1,237.6L278.1,237.6z"/>
	<g>
		<path fill="#2D2D2D" d="M178.5,225.5c0,0,1,5,1,6.5c-0.5,1-1,5,3.5,6.5c4.5,1,6.5-2,6.5-3.5s-1-4.5-0.5-6.5
			C190,227,178.5,225.5,178.5,225.5z"/>
		<path fill="#C2C0C1" d="M197.5,217.5c-1.5-8-6-7-6-7s-14.5,4-14.5,12.5l0,0v0.5c1,9,17.5,6.5,17.5,6.5s3.5-3,3.5-9
			C198,220.5,198,219.5,197.5,217.5z"/>
	</g>
</g>
</svg>
