<?xml version="1.0" encoding="utf-8"?>
<!-- Generator: Adobe Illustrator 18.0.0, SVG Export Plug-In . SVG Version: 6.00 Build 0)  -->
<!DOCTYPE svg PUBLIC "-//W3C//DTD SVG 1.1//EN" "http://www.w3.org/Graphics/SVG/1.1/DTD/svg11.dtd">
<svg version="1.1" id="Layer_1" xmlns="http://www.w3.org/2000/svg" xmlns:xlink="http://www.w3.org/1999/xlink" x="0px" y="0px"
	 viewBox="0 0 500 500" enable-background="new 0 0 500 500" xml:space="preserve">
<g>
	<polygon fill="#050102" points="299.2,329.1 331.3,333 330,338.3 299.2,331 	"/>
	<path fill="#050102" d="M301.3,314.2c0,0-0.5,19.1,19.3,19.4s31.9-9.7,31.9-9.7h24.6l7.1-1.9l17.5-2.2c0,0,2.9-8.5,1-10.6
		c-1.8-2.1-7.5-8.9-7.5-8.9S323.5,270.7,301.3,314.2z"/>
	<path fill="#27262C" d="M282.7,313.2c0,0,14.4,20.4,18,19.8c3.7-0.7,1.5-22.6,13.4-19.3C325.9,316.9,282.7,313.2,282.7,313.2z"/>
	<path fill="#27262C" d="M196.1,321c0,0,0,4.7,23.5,4.2s69,1.6,88.8-12.1C328.2,299.2,197.3,314.5,196.1,321z"/>
	<path fill="#020100" d="M189.9,330.9h8.1c0,0,9.1-2.7,9.2-14.1C207.5,305.4,186.2,322.6,189.9,330.9z"/>
	<path fill="#020100" d="M104,316.9l8.7,11c0,0,3.6-4.4,7.2-2.9c3.6,1.5,44.3,6,44.3,6s25.3,6.2,25.6,4.2c0.3-2,0-13.8,0-13.8
		s-19.2-39.3-36.8-34.7C135.3,291.3,103.4,301.6,104,316.9z"/>
	<polygon fill="#020100" points="191.2,326.7 191.2,350 188,344.7 188,336.6 188,328.1 	"/>
	<path fill="#020100" d="M83.3,297.9l-5.6,1.4c0,0-8.1,4.2-7.4,6c0.7,1.8,1.1,5.2,1,7s1.6,18.3,20.4,15.5
		C110.5,324.9,83.3,297.9,83.3,297.9z"/>
	<path fill="#C3BFBE" d="M78.8,251.8l-1.8,1.8c0,0-0.7-0.8-1.6,3c-0.8,3.8-3.9,21.8-0.9,29.3c3,7.6,6.5,2.2,6.5,2
		C80.9,287.6,78.8,251.8,78.8,251.8z"/>
	<g>
		<circle fill="#27262C" cx="149.2" cy="337.8" r="31.9"/>
		<circle fill="#C3BFBE" cx="149.3" cy="337.8" r="24.1"/>
		<g>
			<path fill="#27262C" d="M140.9,321.6l5.6,6.3c0,0,0.9,1.5,2.2,1.5c1.3,0,2.2-1,2.2-1l5.8-6.8c0,0,0.8-0.9,0-1.6s-3.6-1.6-7.7-1.6
				C145.2,318.3,139.5,319.5,140.9,321.6z"/>
			<path fill="#27262C" d="M140.9,353.9l5.6-6.3c0,0,0.9-1.5,2.2-1.5c1.3,0,2.2,1,2.2,1l5.8,6.8c0,0,0.8,0.9,0,1.6
				c-0.8,0.7-3.6,1.6-7.7,1.6C145.2,357.2,139.5,356.2,140.9,353.9z"/>
			<path fill="#27262C" d="M165.6,329.7l-6.3,5.6c0,0-1.5,0.9-1.5,2.2c0,1.3,1,2.2,1,2.2l6.8,5.8c0,0,0.9,0.8,1.6,0
				c0.7-0.8,1.6-3.6,1.6-7.7C168.9,334.1,167.7,328.2,165.6,329.7z"/>
			<path fill="#27262C" d="M133.3,329.7l6.3,5.6c0,0,1.5,0.9,1.5,2.2c0,1.3-1,2.2-1,2.2l-6.8,5.9c0,0-0.9,0.8-1.6,0
				s-1.6-3.6-1.6-7.7C130,334.1,131,328.2,133.3,329.7z"/>
		</g>
	</g>
	<g>
		<circle fill="#27262C" cx="356.1" cy="332.9" r="30.1"/>
		<circle fill="#C3BFBE" cx="356.2" cy="332.9" r="22.7"/>
		<g>
			<path fill="#27262C" d="M348.3,317.7l5.2,6c0,0,0.9,1.4,2.1,1.4s2.1-1,2.1-1l5.5-6.4c0,0,0.7-0.9,0-1.5c-0.7-0.7-3.5-1.5-7.2-1.5
				C352.4,314.7,346.9,315.6,348.3,317.7z"/>
			<path fill="#27262C" d="M348.2,348.2l5.2-6c0,0,0.9-1.4,2.1-1.4s2.1,1,2.1,1l5.5,6.4c0,0,0.7,0.9,0,1.5c-0.7,0.7-3.5,1.5-7.2,1.5
				C352.4,351.2,346.9,350.3,348.2,348.2z"/>
			<path fill="#27262C" d="M371.6,325.3l-6,5.2c0,0-1.4,0.9-1.4,2.1s1,2.1,1,2.1l6.4,5.5c0,0,0.9,0.7,1.5,0c0.7-0.7,1.5-3.5,1.5-7.2
				C374.7,329.6,373.6,324,371.6,325.3z"/>
			<path fill="#27262C" d="M341.1,325.3l6,5.2c0,0,1.4,0.9,1.4,2.1s-1,2.1-1,2.1l-6.4,5.5c0,0-0.9,0.7-1.5,0
				c-0.7-0.7-1.5-3.5-1.5-7.2C338,329.6,339.1,324,341.1,325.3z"/>
		</g>
	</g>
	<circle fill="#5B5851" cx="187.6" cy="263.5" r="2.2"/>
	<path fill="#3F51B5" d="M429.6,280l0.1-13.4c0,0-2.1-4-2.1-8.3c0,0,0.2-0.7,0.3-0.9l-216-0.9v-16.5l-2-56.8c0,0-0.5-2.8-4.5-2.7
		c-4,0-54.5,1.8-64.1,4c-9.6,2.2-10.7,2.6-15.9,7.2c-5.1,4.7-37.3,45.7-37.3,45.7s-8.4,13.6-11.3,14.1v2.2c0,0,2.1-0.3,2.1,2.6
		c0,2.8-0.9,28.6-0.9,28.6l-3.8,0.7c0,0,1.1,4.6,3,9.1c1.9,4.5,0.5,4.9,0.5,4.9s2.8,1.5,3.2,5s0.7,18.6,2.6,20.3
		c1.9,1.8,3.8,3.2,12.2,3.2s18.1,1.5,18.5-1c0.4-2.4,1.5-33.3,36.9-29.1s24,32.5,36.1,31.4c0,0,12-0.7,24.6-11.8V317h113.1
		c0,0,2.5-0.7,3.4-4.1c0.8-3.5,2.6-16.2,31.5-16.2s27.5,15.7,29.2,16.2c1.8,0.5,7.1-0.7,9-2c1.9-1.2,26.3-8.3,26.3-8.3
		s3.4-3.4,3.7-7.2c0.4-3.8,0-9.2,0-9.2S430.1,281.7,429.6,280z M192.5,236.6h-89.1v-6.4l27.7-35c0,0,3.6-4.5,10.2-4.5
		c6.6,0,54.4,0,54.4,0L192.5,236.6z"/>
	<path fill="#C3BFBE" d="M174.7,254.4h14.8v3.3C189.4,257.7,174.7,260.8,174.7,254.4z"/>
	<g>
		<path fill="#C3BFBE" d="M111.1,213.9l1.5,18.5c0,0-3.5-3.3-3.9-4.4c-0.4-1.1-2-1.1-2.1-1.9s0.8-2,2.1-3
			C110,222.1,108.8,215,111.1,213.9z"/>
		<path fill="#C3BFBE" d="M109,239.1l-1.1-0.1c0.1-1.9-1.6-6.1-2.5-8.6c-0.4-0.9-0.7-1.7-0.8-2.1c-0.2-0.7,0-1.2,0.2-1.6
			c0.7-1,2.5-1.2,2.8-1.2l0.1,1.1V226v0.6c-0.6,0-1.6,0.3-1.9,0.7c-0.1,0.1-0.2,0.3,0,0.6c0.2,0.5,0.5,1.2,0.7,2.1
			C107.5,232.8,109.1,236.9,109,239.1z"/>
		<path fill="#C3BFBE" d="M108.4,238c0,0-0.9,0.6-2.1,0.9c-1.1,0.4-3,3.5,2.1,3.5c5,0,4.3-2.2,4.3-2.2S110.5,237.7,108.4,238z"/>
	</g>
</g>
</svg>
