<?xml version="1.0" encoding="utf-8"?>
<!-- Generator: Adobe Illustrator 18.0.0, SVG Export Plug-In . SVG Version: 6.00 Build 0)  -->
<!DOCTYPE svg PUBLIC "-//W3C//DTD SVG 1.1//EN" "http://www.w3.org/Graphics/SVG/1.1/DTD/svg11.dtd">
<svg version="1.1" id="Layer_1" xmlns="http://www.w3.org/2000/svg" xmlns:xlink="http://www.w3.org/1999/xlink" x="0px" y="0px"
	 viewBox="0 0 500 500" enable-background="new 0 0 500 500" xml:space="preserve">
<g>
	<path d="M370,325.3l6.5,1.4c0,0,5,0,10,0c3.5,1.4,65,0,65,0s13.5,1.4,15-6.2c2-8.1,8.5-61.6-51.5-50.7S368.5,313.9,370,325.3z"/>
	<path d="M42,323.4l11.5,8.1c0,0,6.5,0,10,0c1.5,0,70.5,0,70.5,0s8,0,18,0c5.5-5.2-20-74-57-66.4C58.5,273.2,42,323.4,42,323.4z"/>
	<path fill="#C3BFBE" d="M14,282.6l-2-9.5c0,0,11.5-26.5,40.5-21.8C78.5,255.6,14,282.6,14,282.6z"/>
	<g>
		<path opacity="0.6" fill="#C3BFBE" enable-background="new    " d="M453.5,179.8l30,64.9H497C493.5,228.6,483.5,202.1,453.5,179.8
			z"/>
		<path fill="#C3BFBE" d="M483.5,244.7l6.5,14.2h5c0,0,1.5,0,3.5,0c0,0,1.5-6.2,0-14.2C496.5,244.7,483.5,244.7,483.5,244.7z"/>
	</g>
	<g>
		<path fill="#3F51B5" d="M497,274.6C497,274.6,497.5,274.6,497,274.6C497.5,275.1,497.5,274.6,497,274.6z"/>
		<path fill="#3F51B5" d="M139,332l238.5-4.7c0,0,0-4.7,0-9.5c0,0,0,0,0-1.4H377c2-14.2,12-38.4,45-38.4c48.5,0,40,47.4,40,47.4
			s25-4.7,33.5-8.1c8.5-3.3,3.5-17.5,3.5-17.5s0-3.3,0-12.8c0-1.4,0,0,0-1.4c0-9.5-1.5-10.9-1.5-10.9l-2.5-15.6h-1.5
			c0,0,0-9.5-3.5-23.7c-3.5-15.6-18.5-34.6-26.5-47.4C455,175,450,176.9,427,173.6c-22-3.3-117-4.7-117-4.7s-56.5,1.4-85,6.2
			c-3,0.5-6,0.9-9.5,1.9c-35,3.3-106.5,47.4-119,55.5C78,234.3,40,250.9,40,250.9c1.5,0,6.5,1.4,6.5,1.4c5,3.3-3.5,8.1-5,9.5
			C38,263.2,25,271.3,20,272.7c-5,1.4-8.5,0-8.5,0c-1.5,1.9-5,11.4-5,11.4s-3,1.4-5,4.7C0,290.2,0,292.1,0,293.6
			c0,3.3,0,4.7,1.5,6.6c2,2.8,3.5,4.3,3.5,4.3v6.2c-1.5,3.3-1.5,4.7-1.5,4.7c3,14.7,50,16.1,50,16.1c-5-28.4,6.5-54.5,43-55.5
			c38.5-0.9,43,34.6,43,45.5l0,0"/>
		<path fill="#3F51B5" d="M497.5,275.1C499,275.5,498.5,275.5,497.5,275.1L497.5,275.1z"/>
	</g>
	<path fill="#252428" d="M113.5,244.7l145-8.1l188.5-8.1c0,0,18.5,0,20-4.7c1.5-6.2-8.5-29.9-13.5-34.6c-5-6.2-5-6.2-8.5-8.1
		c-3.5-1.4-70-4.7-96.5-6.2c-28.5,0-112-1.4-138.5,6.2C183.5,190.7,138.5,216.3,113.5,244.7z"/>
	<path fill="#FFFFFF" d="M121.5,241.4c0,0,36.5-31.8,48.5-36.5l-3.5,33.2L121.5,241.4z"/>
	<path fill="#FFFFFF" d="M173.5,202.1l-3.5,36l76.5-4.7l8.5-53.6C255,178.4,203.5,178.4,173.5,202.1z"/>
	<path fill="#FFFFFF" d="M275,178.4l-1.5,53.6l91.5-3.3l-8.5-50.7C356.5,178.4,295,176.5,275,178.4z"/>
	<path fill="#FFFFFF" d="M376.5,178.4l8.5,47.4h66.5c0,0,8.5,0,10-3.3c1.5-3.3,1.5-9.5,0-14.2c-3.5-4.7-11.5-23.7-18.5-23.7
		C436.5,183.1,376.5,178.4,376.5,178.4z"/>
	<path fill="#C3BFBE" d="M141.5,247.6l11.5-15.6c0,0,3.5-10.9,13.5-10.9c8.5,0,20,0,21.5,8.1c0,8.1-3.5,9.5-6.5,9.5
		c-3.5,0-18.5,1.4-18.5,1.4l2,6.2C163.5,246.1,143.5,252.3,141.5,247.6z"/>
	<g>
		<g>
			<ellipse fill="#27262C" cx="96.5" cy="322" rx="38.5" ry="36.5"/>
			<ellipse fill="#C3BFBE" cx="96.5" cy="322" rx="28.5" ry="28.4"/>
			<g>
				<path fill="#27262C" d="M86.5,303l6.5,8.1c0,0,1.5,1.4,3.5,1.4c0-1.4,1.5-1.4,1.5-1.4l7-8.1v-1.4c0,0-5-1.4-8.5-1.4
					C91.5,298.3,85,299.7,86.5,303z"/>
				<path fill="#27262C" d="M86.5,339.5l6.5-8.1c0,0,1.5-1.4,3.5-1.4c1.5,0,3.5,1.4,3.5,1.4l6.5,8.1v1.4c0,1.4-5,1.4-8.5,1.4
					C91.5,344.3,85,342.4,86.5,339.5z"/>
				<path fill="#27262C" d="M115,312.5l-6.5,6.2c0,0-1.5,1.4-1.5,3.3c0,1.4,1.5,3.3,1.5,3.3l8.5,6.2h1.5c0,0,1.5-4.7,1.5-9.5
					S118.5,309.2,115,312.5z"/>
				<path fill="#27262C" d="M76.5,312.5l6.5,6.2c0,0,1.5,1.4,1.5,3.3c0,1.4-1.5,3.3-1.5,3.3l-8,6.2h-1.5c0,0-1.5-4.7-1.5-9.5
					C73.5,317.3,75,309.2,76.5,312.5z"/>
			</g>
		</g>
	</g>
	<g>
		<g>
			<ellipse fill="#27262C" cx="420" cy="321.5" rx="38.5" ry="36.5"/>
			<ellipse fill="#C3BFBE" cx="420" cy="321.5" rx="28.5" ry="28.4"/>
			<g>
				<path fill="#27262C" d="M410,302.6l6.5,8.1c0,0,1.5,1.4,3.5,1.4c1.5,0,3.5-1.4,3.5-1.4l6.5-8.1v-1.4c0,0-5-1.4-8.5-1.4
					C415,297.8,408,299.2,410,302.6z"/>
				<path fill="#27262C" d="M410,339.1l6.5-8.1c0,0,1.5-1.4,3.5-1.4c1.5,0,3.5,1.4,3.5,1.4l6.5,8.1v1.4c0,0-5,1.4-8.5,1.4
					C415,343.8,408,341.9,410,339.1z"/>
				<path fill="#27262C" d="M440,312l-6.5,6.2c0,0-1.5,1.4-1.5,3.3c0,1.4,1.5,3.3,1.5,3.3l8.5,6.2h1.5c0,0,1.5-4.7,1.5-9.5
					C443,316.8,443,308.7,440,312z"/>
				<path fill="#27262C" d="M401.5,312l6.5,6.2c0,0,1.5,1.4,1.5,3.3c0,1.4-1.5,3.3-1.5,3.3l-6.5,4.7H400c0,0-1.5-4.7-1.5-9.5
					C398,316.8,398,308.7,401.5,312z"/>
			</g>
		</g>
	</g>
</g>
<path fill="#C3BFBE" d="M365.5,243.5c0,2,0,2-1.5,2h-15c-1.5,0-1.5,0-1.5-2l0,0c0-2,0-2,1.5-2h15
	C365.5,241.5,365.5,241.5,365.5,243.5L365.5,243.5z"/>
<path fill="#C3BFBE" d="M246.5,243.5c0,2,0,2-1.5,2h-15c-1.5,0-1.5,0-1.5-2l0,0c0-2,0-2,1.5-2h15
	C246.5,241.5,246.5,241.5,246.5,243.5L246.5,243.5z"/>
</svg>
