<?xml version="1.0" encoding="utf-8"?>
<!-- Generator: Adobe Illustrator 18.0.0, SVG Export Plug-In . SVG Version: 6.00 Build 0)  -->
<!DOCTYPE svg PUBLIC "-//W3C//DTD SVG 1.1//EN" "http://www.w3.org/Graphics/SVG/1.1/DTD/svg11.dtd">
<svg version="1.1" id="Layer_1" xmlns="http://www.w3.org/2000/svg" xmlns:xlink="http://www.w3.org/1999/xlink" x="0px" y="0px"
	 viewBox="0 0 500 500" enable-background="new 0 0 500 500" xml:space="preserve">
<g>
	<g>
		<path fill="#C3BFBE" d="M440.5,308.5l2,1.5c0,0,13-1,15-1s6-1,10,3.5c0,0,7-2,7.5-3s-5.5-5-8-6s-21-1-23-0.5
			C442,303.5,440.5,308.5,440.5,308.5z"/>
		<path fill="#C3BFBE" d="M36.5,241.5c0,0-7-1-12.5,0l0,0c-2,0-4,2-5,3.5c0,0-3.5,4.5-5.5,9c-0.5,1-0.5,2-1,3
			c-0.5,5-2.5,24.5-1,25.5c1.5,1.5,17-3.5,17-3.5l10-11l6-15l0,0l3.5-8.5L36.5,241.5z"/>
		<path fill="#010101" d="M113,313c0,0,10,3.5,14.5,4.5s11,2,12.5,2s3-13,3-13L124,253l-75-4.5l-9.5,4.5l-8,16.5l-4.5,10h-9.5
			c0,0-7.5,3-9,5s-4,3.5-4,3.5s-3,2.5-2,6.5s2.5,11,2.5,11s0,2.5,5.5,3c5.5,1,7,1.5,7,1.5v4c0,0-4,1-4,3c0,2,4.5,3.5,22,3.5L36,314"
			/>
		<path d="M321.5,242.5L311,242c0,0-21.5,11-23.5,10.5c-2.5-0.5-87-0.5-87-0.5l-78,49.5c0,0-1.5,13.5,3,15.5c5,2,34.5,2.5,34.5,2.5
			l156.5-2.5c0,0,5.5,3,12.5,2.5c7-0.5,12-3.5,12-3.5h8c0,0,15-0.5,22.5-1.5c7-1,57-4.5,57-4.5h15v-7v-59L321.5,242.5z"/>
		<path fill="#3F51B5" d="M189.5,181h-7c0,0-72.5,46-61.5,52.5c-5,17,17.5-12.5,17.5-12.5L189.5,181z"/>
		<path fill="#C3BFBE" d="M485.5,227l9.5,8c0,0,2.5,3.5,2.5,12c0,8.5,1,27-1.5,30c-2.5,3.5-18.5-11-18.5-12.5
			C478,263.5,485.5,227,485.5,227z"/>
		<path fill="#3F51B5" d="M490,268.5c-1.5-7-4.5-16-4.5-18.5c0-2-2.5-12,0.5-13.5c3-2,9-1.5,9-1.5v-6c0,0,0.5-3-2-3
			c-3-0.5-183,1.5-183,1.5s-2,0-4.5,0c0-1,0-1.5,0-2c0-13-3-43-6-48s-14.5-5-49.5-4.5c-34.5,0.5-52.5,4-55,4c-2,0-11,4-13,4.5h2
			c0,0-13,9-18.5,13c-8,6-39,35-42,32.5c-2.5,0.5-10.5,0.5-13,0c-2.5-0.5-64.5,9-74,11s-13,3-16.5,4.5s-3,5-3,5c9.5-6.5,19-0.5,20,1
			s-2.5,10-5,14.5c-2.5,4.5-6.5,18-6.5,18H41c4-11.5,9-16.5,14.5-19c5-2.5,43-4,53,3.5c9.5,7.5,13.5,39,14,41.5c0,2.5,0,5,0,5
			c0,3,4.5,3.5,4.5,3.5l180.5-2h28c0,0,4,0,6.5,0s3.5-3,3.5-4.5c0-1.5,3-37,18-44c14.5-7,37-5.5,37-5.5s25.5,0,32,13.5
			c7,14,5.5,30,3.5,35l27.5-3.5c0,0,23-1,26.5-9c3.5-8,5-18.5,5-18.5S491,275.5,490,268.5z"/>
		<path fill="#010101" d="M40,281.5H13.5c0,0-9,0.5-9.5,5s0.5,6,1,6.5s32.5,0,32.5,0S38,286.5,40,281.5z"/>
		<path fill="#27262C" d="M142.5,227.5c0,0-1-5.5,4-9.5s30-26,30-26s12-10.5,27.5-12c15.5-1.5,35-1.5,35-1.5s4.5-0.5,5,4
			c0,4-2.5,40.5-2.5,40.5s0.5,3-1.5,4.5c-2.5,1.5-7.5,1.5-7.5,1.5l-82.5,3.5C150,232.5,143.5,232,142.5,227.5z"/>
		<path fill="#FFFFFF" d="M238,223l3-39c0,0,1-3-1.5-3s-39.4-2.2-49.4,5.1c-11.2,8.2-37.1,24.4-41.1,36.9c-4.2,6.6,4.8,6.1,4.8,6.1
			l11.9,0.3l68.2-2.6C237.4,226.5,238,225.5,238,223z"/>
		<g>
			<path fill="#FFFFFF" stroke="#27262C" stroke-width="0.75" stroke-miterlimit="10" d="M294,216.5c0,6-4.5,11-9.5,11H264
				c-5.5,0-11-6-11-12V187c0-6,5.5-8.5,11-8.5h18c5.5,0,9,2,10.5,9.5L294,216.5z"/>
		</g>
		<path fill="#C3BFBE" d="M143,228c0,0-1-5,4-6.5l0.5-6.5c0,0,0-3.5,1.5-4.5c2-1,11-3.5,15-2.5c4,0.5,2.5,11.5,2.5,13.5
			c0,1.5,0.5,5-2,6s-11,4-12,4.5C151,232.5,143,234,143,228z"/>
		<g>
			<ellipse fill="#27262C" cx="77.5" cy="311.5" rx="35.5" ry="39"/>
			<path fill="#C3BFBE" d="M51,311.5c0,16,12,29.5,26.5,29.5s26.5-13,26.5-29.5C104,295,92,282,77.5,282C63,282.5,51,295.5,51,311.5
				z"/>
			<g>
				<path fill="#27262C" d="M68.5,292l6,7.5c0,0,1,2,2.5,2s2.5-1.5,2.5-1.5l6.5-8.5c0,0,1-1,0-2c-1-1-4-2-8.5-2
					C73.5,288,67,289,68.5,292z"/>
				<path fill="#27262C" d="M68.5,331.5l6-7.5c0,0,1-2,2.5-2s2.5,1.5,2.5,1.5L86,332c0,0,1,1,0,2c-1,1-4,2-8.5,2
					C73.5,335,67,334,68.5,331.5z"/>
				<path fill="#27262C" d="M95.5,302l-7,7c0,0-1.5,1-1.5,3c0,1.5,1,3,1,3l7.5,7c0,0,1,1,2,0c0.5-1,2-4.5,2-9
					C99.5,307,98,300,95.5,302z"/>
				<path fill="#27262C" d="M60,302l7,7c0,0,1.5,1,1.5,3c0,1.5-1,3-1,3l-7.5,6.5c0,0-1,1-2,0c-0.5-1-2-4.5-2-9
					C56.5,307,57.5,300,60,302z"/>
			</g>
		</g>
		<g>
			<ellipse fill="#27262C" cx="77.5" cy="311.5" rx="35.5" ry="39"/>
			<path fill="#C3BFBE" d="M51,311.5c0,16,12,29.5,26.5,29.5s26.5-13,26.5-29.5C104,295,92,282,77.5,282C63,282.5,51,295.5,51,311.5
				z"/>
			<g>
				<path fill="#27262C" d="M68.5,292l6,7.5c0,0,1,2,2.5,2s2.5-1.5,2.5-1.5l6.5-8.5c0,0,1-1,0-2c-1-1-4-2-8.5-2
					C73.5,288,67,289,68.5,292z"/>
				<path fill="#27262C" d="M68.5,331.5l6-7.5c0,0,1-2,2.5-2s2.5,1.5,2.5,1.5L86,332c0,0,1,1,0,2c-1,1-4,2-8.5,2
					C73.5,335,67,334,68.5,331.5z"/>
				<path fill="#27262C" d="M95.5,302l-7,7c0,0-1.5,1-1.5,3c0,1.5,1,3,1,3l7.5,7c0,0,1,1,2,0c0.5-1,2-4.5,2-9
					C99.5,307,98,300,95.5,302z"/>
				<path fill="#27262C" d="M60,302l7,7c0,0,1.5,1,1.5,3c0,1.5-1,3-1,3l-7.5,6.5c0,0-1,1-2,0c-0.5-1-2-4.5-2-9
					C56.5,307,57.5,300,60,302z"/>
			</g>
		</g>
		<g>
			<ellipse fill="#27262C" cx="394" cy="311.5" rx="35.5" ry="39"/>
			<path fill="#C3BFBE" d="M367.5,311.5c0,16,12,29.5,26.5,29.5c14.5,0,26.5-13,26.5-29.5c0-16.5-12-29.5-26.5-29.5
				C379.5,282.5,367.5,295.5,367.5,311.5z"/>
			<g>
				<path fill="#27262C" d="M385,292l6,7.5c0,0,1,2,2.5,2c1.5,0,2.5-1.5,2.5-1.5l6.5-8.5c0,0,1-1,0-2s-4-2-8.5-2
					C390,288,383.5,289,385,292z"/>
				<path fill="#27262C" d="M385,331.5l6-7.5c0,0,1-2,2.5-2c1.5,0,2.5,1.5,2.5,1.5l6.5,8.5c0,0,1,1,0,2s-4,2-8.5,2
					C390,335,383.5,334,385,331.5z"/>
				<path fill="#27262C" d="M412.5,302l-7,7c0,0-1.5,1-1.5,3c0,1.5,1,3,1,3l7.5,7c0,0,1,1,2,0c1-1,2-4.5,2-9
					C416,307,415,300,412.5,302z"/>
				<path fill="#27262C" d="M376.5,302l7,7c0,0,1.5,1,1.5,3c0,1.5-1,3-1,3l-7.5,7c0,0-1,1-2,0c-1-1-2-4.5-2-9
					C373,307,374,300,376.5,302z"/>
			</g>
		</g>
	</g>
</g>
<g display="none">
	<g display="inline">
		<path fill="#C5D6E2" d="M8.5,287c1.5,1.5,17-1,17-1l10-11l6.5-16l-6-3.5c0,0-1.5-8-3-8c-1.5,0-3-0.5-5-3c-5-0.5-10.5,2-10.5,2
			c-1.5,0-0.5-0.5-2.5,1.5c0,0-5.5,6-6,14.5"/>
	</g>
	<path display="inline" d="M11,257.5"/>
	<path display="inline" d="M11,257.5L11,257.5L11,257.5"/>
	<path display="inline" d="M33.5,256L33.5,256L33.5,256"/>
	<g display="inline">
		<path fill="#010101" d="M3,291.5c0,0-3.5,1.5-1.5,7c1.5,3.5,3.5,11,3.5,11s0,1.5,5,3.5c4.5,2,6.5,2,6.5,2v3.5c0,0-3.5,0-3.5,3.5
			c0,1.5,14,3.5,31,3.5v-7h4.5l62.5-2c0,0,12,3.5,17,5.5c5,2,10,2,12,2c1.5,0,3.5-14.5,3.5-14.5L125,254l-76.5-3.5l-10,21.5
			l-7.5,9.5l-6,1.5H15c0,0-10,2-8.5,5.5C3,290.5,3,291.5,3,291.5z"/>
		<path d="M321.5,245l-10-18c0,0-5,2-7,2c-1.5,0-105,25-105,25L120,306l-24.5,18.5c5,1.5,62,1.5,62,1.5l157.5-4c0,0,5,3.5,12,3.5
			s12-3.5,12-3.5h8.5c0,0,15,0,22-1.5c7-2,57.5-5.5,57.5-5.5l12-5.5l3.5-1.5v-63H321.5z"/>
		<path fill="#3F51B5" d="M187.5,179l-5-2c0,0-57.5,39.5-62.5,57.5s17-12.5,17-12.5L187.5,179z"/>
		<path fill="#AE222F" d="M485.5,229l9,3.5c0,0,5,9,5,18s0,23.5-1.5,27c-1.5,3.5-18.5-7-18.5-9S485.5,229,485.5,229z"/>
		<path fill="#3F51B5" d="M491,268.5c-1.5-7-5-16-5-20s-1.5-12.5,0-14.5c1.5-2,8.5-2,8.5-2v-7c0,0,0-3.5-1.5-3.5
			c0,3.5-181.5,5.5-181.5,5.5s-2,0-3.5,1v-3c0-14.5-3.5-45-7-50c-3.5-5.5-15-5.5-49-5.5c-35.5,0-52.5,3.5-56,3.5
			c-1.5,0-10,1.5-13.5,3.5l1.5,1.5c0,0-13.5,9-18.5,14.5c-8.5,5.5-39,36-42.5,34c-3.5,0-10,0-13.5,0C106,227,45,236,35,238
			s-13.5,3.5-17,5.5c-3.5,2-3.5,5.5-3.5,5.5c8.5-7,18.5,0,20.5,1.5s-0.5,6-4.5,14.5c-3,8.5-6,18-6,18H40c3.5-12.5,8.5-16,13.5-20
			s44-9,54.5,0s13.5,45,13.5,48.5s1.5,5.5,1.5,5.5c0,3.5,3.5,3.5,3.5,3.5L308,319h1.5h27c0,0,5-1.5,6.5-1.5c1.5,0,3.5-2,3.5-3.5
			c0-2,3.5-39.5,18.5-46.5c15.5-7,52.5-7,52.5-7s13.5,0,17,14.5c3.5,16,5,32.5,3.5,36l27-3.5c0,0,24-2,27-9c3.5-9,5-20,5-20
			S492.5,275.5,491,268.5z"/>
		<path fill="#222222" d="M336.5,286.5h1.5"/>
		<path fill="#222222" d="M309.5,277.5"/>
		<path fill="#FFFFFF" d="M142,229c0,0-1.5-5.5,3.5-11c5-3.5,30.5-27,30.5-27s12-11,27-12.5s35.5-1.5,35.5-1.5s5,0,5,3.5
			c0,3.5-3.5,43-3.5,43s0,3.5-1.5,5.5s-7,2-7,2l-83,1.5C149,234.5,142,234.5,142,229z"/>
		<g>
			<path fill="#FFFFFF" d="M294.5,216.5c0,5.5-5,11-10,11H264c-5,0-10-5.5-10-12.5v-28.5c0-5.5,5-9,10-9h17c5,0,8.5,1.5,10,10.5
				L294.5,216.5z"/>
		</g>
		<path fill="#040404" d="M140,228.5c0,0,0-6,3.5-7.5v-7.5c0,0,0-4,2-4s13-4,16.5-4c3.5,0,3.5,13.5,3.5,15.5c0,2,0,6-2,6
			c-2,0-11,8-13,8S140,236,140,228.5z"/>
		<g>
			<ellipse fill="#27262C" cx="78.5" cy="317" rx="35.5" ry="41"/>
			<ellipse fill="#C3BFBE" cx="78.5" cy="317" rx="27" ry="30.5"/>
			<g>
				<path fill="#27262C" d="M70,297l5,7l1.5,1.5L80,304l6.5-7c0,0,1.5-1.5,0-1.5c-1.5,0-3.5-2-8.5-2C75.5,291.5,68.5,293.5,70,297z"
					/>
				<path fill="#27262C" d="M70,336.5l6.5-9L78,326c1.5,0,1.5,1.5,1.5,1.5l7,9c0,0,1.5,1.5,0,1.5c0,1.5-3.5,1.5-8.5,1.5
					C75.5,342,68.5,340,70,336.5z"/>
				<path fill="#27262C" d="M97.5,306l-6.5,7c0,0-1.5,1.5-1.5,3.5c0,1.5,1.5,3.5,1.5,3.5l6.5,7c0,0,1.5,1.5,1.5,0
					c0-1.5,1.5-5.5,1.5-9C100.5,311.5,99,304.5,97.5,306z"/>
				<path fill="#27262C" d="M62,306l6.5,7c0,0,1.5,1.5,1.5,3.5c0,1.5-1.5,3.5-1.5,3.5l-6.5,7c0,0-1.5,1.5-1.5,0c0-1.5-1.5-5.5-1.5-9
					C58.5,311.5,58.5,304.5,62,306z"/>
			</g>
		</g>
		<g>
			<ellipse fill="#C3BFBE" cx="78.5" cy="317" rx="27" ry="30.5"/>
			<g>
				<path fill="#27262C" d="M70,297l5,7l1.5,1.5L80,304l6.5-7c0,0,1.5-1.5,0-1.5c-1.5,0-3.5-2-8.5-2C75.5,291.5,68.5,293.5,70,297z"
					/>
				<path fill="#27262C" d="M70,336.5l6.5-9L78,326c1.5,0,1.5,1.5,1.5,1.5l7,9c0,0,1.5,1.5,0,1.5c0,1.5-3.5,1.5-8.5,1.5
					C75.5,342,68.5,340,70,336.5z"/>
				<path fill="#27262C" d="M97.5,306l-6.5,7c0,0-1.5,1.5-1.5,3.5c0,1.5,1.5,3.5,1.5,3.5l6.5,7c0,0,1.5,1.5,1.5,0
					c0-1.5,1.5-5.5,1.5-9C100.5,311.5,99,304.5,97.5,306z"/>
				<path fill="#27262C" d="M62,306l6.5,7c0,0,1.5,1.5,1.5,3.5c0,1.5-1.5,3.5-1.5,3.5l-6.5,7c0,0-1.5,1.5-1.5,0c0-1.5-1.5-5.5-1.5-9
					C58.5,311.5,58.5,304.5,62,306z"/>
			</g>
		</g>
		<g>
			<ellipse fill="#27262C" cx="396" cy="317" rx="35.5" ry="41"/>
			<ellipse fill="#C3BFBE" cx="396" cy="317" rx="27" ry="30.5"/>
			<g>
				<path fill="#27262C" d="M386,297l6.5,9l1.5,2c1.5,0,1.5-2,1.5-2l7-9c0,0,1.5-1.5,0-1.5c-1.5,0-3.5-2-8.5-2
					C391,291.5,384,293.5,386,297z"/>
				<path fill="#27262C" d="M386,336.5l6.5-9l1.5-1.5l1.5,1.5l7,9c0,0,1.5,1.5,0,1.5c-1.5,0-3.5,1.5-8.5,1.5
					C391,342,384,340,386,336.5z"/>
				<path fill="#27262C" d="M413,306l-6.5,7c0,0-1.5,1.5-1.5,3.5c0,1.5,1.5,3.5,1.5,3.5l6.5,7c0,0,1.5,1.5,1.5,0
					c0-1.5,1.5-5.5,1.5-9C416.5,311.5,416.5,304.5,413,306z"/>
				<path fill="#27262C" d="M377.5,306l6.5,7c0,0,1.5,1.5,1.5,3.5c0,1.5-1.5,3.5-1.5,3.5l-6.5,7c0,0-1.5,1.5-1.5,0
					c0-1.5-1.5-5.5-1.5-9C374,311.5,375.5,304.5,377.5,306z"/>
			</g>
		</g>
	</g>
	<path display="inline" fill="#C4C3C8" d="M239,249.5c0,1.5-1,2.5-2,2.5l-29.5,1c-1,0-2-1-2-2.5l0,0c0-1.5,1-2.5,2-2.5l29.5-1
		C238,247,239,248,239,249.5L239,249.5z"/>
</g>
<path fill="#C3BFBE" d="M241,244c0,2,0,2-1.5,2h-17c-1.5,0-1.5,0-1.5-2l0,0c0-2,0-2,1.5-2h17C241,242,241,242,241,244L241,244z"/>
</svg>
