<?xml version="1.0" encoding="utf-8"?>
<!-- Generator: Adobe Illustrator 18.0.0, SVG Export Plug-In . SVG Version: 6.00 Build 0)  -->
<!DOCTYPE svg PUBLIC "-//W3C//DTD SVG 1.1//EN" "http://www.w3.org/Graphics/SVG/1.1/DTD/svg11.dtd">
<svg version="1.1" id="Layer_1" xmlns="http://www.w3.org/2000/svg" xmlns:xlink="http://www.w3.org/1999/xlink" x="0px" y="0px"
	 viewBox="0 0 100 100" enable-background="new 0 0 100 100" xml:space="preserve">
<g>
	<path fill="#050505" d="M3,64.9l3.4,2.3c0,0,2.9,0,5.1,0c2.6,0.4,10.3-0.1,10.3-0.1s3.7,0,5.4,0c1.6-1.4,38.7-1.4,38.7-1.4l5.3,1.4
		c0,0,1.7,0,3,0S86.1,66,86.1,66h2l4.3-4.6l-8.9-13.7l-64.8,2.9L5.3,54.9L3,64.9z"/>
	<path fill="#C3BFBE" d="M10.7,50.2L9,49.9c0,0-3,0.7-4.6,2.2C2.7,53.8,2,56.7,2,57s5.6-1.8,5.6-2.2C8,54.9,10.7,50.2,10.7,50.2z"/>
	<path fill="#C3BFBE" d="M94.7,46.2c0,0,1.6-0.7,1.6,0.7c0.3,1.1,0.3,2.2,0.7,3.2c0.3,1.1,0.7,1.8,0.3,2.5C97,53.4,91.4,52,91.4,52
		S91.3,46.2,94.7,46.2z"/>
	<path fill="#27262C" d="M25.4,67.5c3,0,39.8-0.4,45.8-0.4l-0.7-1.4l-45,0.4C25.5,66.7,25.4,66.7,25.4,67.5z"/>
	<path fill="#3F51B5" d="M99.5,56.8c0.1-1.9-1.9-2.3-1.9-2.3c0-0.3-0.5-1.8-0.6-2.3c0-0.1-0.1-0.2-0.3-0.2h-2.1
		c-1.7,0-2-1.8-2.7-2.9c-0.3-0.7,2.5-2.1,3.2-2.8c0,0,0.1-0.1,0.1-0.1c-0.2-0.6-5.4-1-6.6-1.3c-1.3,0-4.6-2.5-9.3-5
		c-4.6-2.5-10.2-4-21.8-4c-10.3,0-13.4,1.7-14,2.1c-3.2,1.3-10.6,5.8-14,7.9c-0.5,0.2-0.9,0.4-1.5,0.6c-0.5,0.1-0.9,0.2-1.2,0.3
		c-0.1,0-0.1,0-0.2,0c-0.1,0-0.1,0-0.1,0s0,0,0,0C13.5,48.1,9,49.9,9,49.9s1.3,0.6,1,1c-0.3,0.4-4,3.6-5.3,4.7
		C3.3,56.7,2,56.7,2,56.7c-1.3,0.4-1.6,1.4-1.6,2.2c0,0.7,0.7,4.3,0.7,4.7C1.1,64,0.4,64,0.8,65c0.3,0.7,2,1.8,2,1.8l3.6,0.4
		C6,66,5,62.8,5.7,60.6c1-2.5,3.3-7.5,9.6-7.5c5.3,0,10.2,4,10.2,11.9c0,0.7,0,1.1,0,1.4l45-0.7v-1.4c0,0,1.3-11.5,10.2-10.8
		c7.6,0.4,8.9,7.9,7.9,12.6c1.6,0,5.6-0.7,6.3-0.7c0.7,0,1-0.7,1-0.7c4-1.4,2.6-2.9,2.6-2.9C99.5,59.6,99.2,58.6,99.5,56.8z"/>
	<path fill="#27262C" d="M80.4,53.1c-8.9-0.7-10.2,10.8-10.2,10.8v3.2c0.7,0,1,0,1,0c0-2.2,0-12.6,9.3-12.9c8.6,0,7.6,11.8,7.6,11.8
		s0.4,0.1,0.7,0.1C90.2,61.6,88.1,53.4,80.4,53.1z"/>
	<path fill="#FFFFFF" d="M32.5,48c0,0,11.6-9,13.2-9.3c0,0,7.6-2.5,13.9-1.8s17.9,1.8,18.2,5.8c0.3,3.9-0.3,3.2-0.3,3.2L32.5,48z"/>
	<polygon fill="#27262C" points="56.3,36.8 54.6,47 58.3,47 58.9,36.8 	"/>
	<ellipse fill="#27262C" cx="15.2" cy="63.5" rx="7.3" ry="8.3"/>
	<ellipse fill="#C3BFBE" cx="15.2" cy="63.5" rx="5.6" ry="6.1"/>
	<g>
		<path fill="#27262C" d="M13.3,59.5l1.3,1.4c0,0,0.3,0.4,0.7,0.4c0.3,0,0.7-0.4,0.7-0.4l1-1.4c0,0,0.3-0.4,0-0.4s-1-0.4-1.7-0.4
			C14.3,58.5,12.9,58.8,13.3,59.5z"/>
		<path fill="#27262C" d="M13.3,67.8l1.3-1.8c0,0,0.3-0.4,0.7-0.4c0.3,0,0.7,0.4,0.7,0.4l1,1.8c0,0,0.3,0.4,0,0.4s-1,0.4-1.7,0.4
			C14.3,68.5,12.9,68.2,13.3,67.8z"/>
		<path fill="#27262C" d="M18.9,61.3l-1.6,1.4c0,0-0.3,0.4-0.3,0.7c0,0.4,0.3,0.7,0.3,0.7l1.6,1.4c0,0,0.3,0.4,0.3,0
			s0.3-1.1,0.3-1.8C19.6,62.8,19.6,61,18.9,61.3z"/>
		<path fill="#27262C" d="M11.6,61.3l1.6,1.4c0,0,0.3,0.4,0.3,0.7c0,0.4-0.3,0.7-0.3,0.7l-1.6,1.4c0,0-0.3,0.4-0.3,0
			S11,64.6,11,63.9C10.6,62.8,10.9,61,11.6,61.3z"/>
	</g>
	<g>
		<path fill="#27262C" d="M72.7,63.8c-0.1-4.6,3.1-8.3,7.2-8.4s7.3,3.6,7.4,8.2s-3.2,8.3-7.2,8.4C76.1,72,72.7,68.4,72.7,63.8z"/>
		<path fill="#C3BFBE" d="M74.3,63.8c-0.1-3.4,2.4-6.1,5.5-6.2c3.1,0,5.7,2.6,5.7,6c0.1,3.4-2.4,6.1-5.5,6.2
			C76.9,69.8,74.4,67.2,74.3,63.8z"/>
		<g>
			<path fill="#27262C" d="M77.8,59.5l1.3,1.8c0,0,0.3,0.4,0.7,0.4c0.3,0,0.3-0.4,0.3-0.4l1.3-1.8c0,0,0.3-0.4,0-0.4s-1-0.4-1.7-0.4
				C78.8,58.8,77.5,59.2,77.8,59.5z"/>
			<path fill="#27262C" d="M77.8,67.8l1.3-1.8l0.3-0.4l0.7,0.4l1.3,1.8c0,0,0.3,0.4,0,0.4s-1,0.4-1.7,0.4
				C78.8,68.5,77.8,68.5,77.8,67.8z"/>
			<path fill="#27262C" d="M83.4,61.3l-1.3,1.4c0,0-0.3,0.4-0.3,0.7c0,0.4,0.3,0.7,0.3,0.7l1.7,1.4c0,0,0.3,0.4,0.3,0
				s0.3-1.1,0.3-1.8C84.4,62.8,84.1,61,83.4,61.3z"/>
			<path fill="#27262C" d="M76.1,61.7l1.6,1.4c0,0,0.3,0.4,0.3,0.7c0,0.4-0.3,0.7-0.3,0.7L76.5,66c0,0-0.3,0.4-0.3,0
				s-0.3-1.1-0.3-1.8C75.5,62.8,75.5,61.3,76.1,61.7z"/>
		</g>
	</g>
	<path fill="#27262C" d="M73.5,38.8c0,0-6.4-2.1-15.9-2.1c0,0-8.3,0.3-11.9,1.7c0,0-6,2.5-14.2,10.1h1h0.3h0.7l45.3-2.2
		c0-0.4,0-1.4,0-2.5C78.1,41.6,78.2,40.3,73.5,38.8z M77.1,45.9l-20.5,0.7l-23.8,1.1c2.3-1.8,10.7-7.5,13.5-8.9
		c3.8-1.1,11.5-1.6,12.6-1.7c1.2,0,9.9,0.6,15.8,2.7C75.2,40.3,78.5,41.2,77.1,45.9z"/>
	<path fill="#C3BFBE" d="M75.5,49.5c0,0.4,0,0.4-0.3,0.4h-3c-0.3,0-0.3,0-0.3-0.4l0,0c0-0.4,0-0.4,0.3-0.4h3
		C75.5,49.1,75.5,49.1,75.5,49.5L75.5,49.5z"/>
	<path fill="#C3BFBE" d="M52.7,49.8c0,0.4,0,0.4-0.3,0.4h-3c-0.3,0-0.3,0-0.3-0.4l0,0c0-0.4,0-0.4,0.3-0.4h3
		C52.7,49.5,52.7,49.5,52.7,49.8L52.7,49.8z"/>
	<path fill="#27262C" d="M15.2,53c-6.3,0.3-8.9,5-9.6,7.4c-0.7,2.1-0.3,5.6,0,6.7l0.8,0.1c-1-5.7,1.2-14.3,9.8-13.2
		c8.6,0.7,7.9,12,8.1,13.1c0.1,0.4,1.1,0.4,1.1,0.4s0,0,0.3,0c0-0.7,0-1.8,0-2.8C25.4,56.9,20.2,52.8,15.2,53z"/>
</g>
<path fill="#C3BFBE" d="M31.5,48.5l2-2.4c0,0,0.7-1.7,2.2-1.5c1.2,0.1,3,0.3,3.1,1.6c-0.1,1.2-0.7,1.4-1.1,1.4c-0.5,0-2.8,0-2.8,0
	l0.2,0.8C34.7,48.5,31.9,48.6,31.5,48.5z"/>
</svg>
