<?xml version="1.0" encoding="utf-8"?>
<!-- Generator: Adobe Illustrator 18.0.0, SVG Export Plug-In . SVG Version: 6.00 Build 0)  -->
<!DOCTYPE svg PUBLIC "-//W3C//DTD SVG 1.1//EN" "http://www.w3.org/Graphics/SVG/1.1/DTD/svg11.dtd">
<svg version="1.1" id="Layer_1" xmlns="http://www.w3.org/2000/svg" xmlns:xlink="http://www.w3.org/1999/xlink" x="0px" y="0px"
	 viewBox="0 0 500 500" enable-background="new 0 0 500 500" xml:space="preserve">
<g>
	<g>
		<path d="M64.2,350.7l7,5.3c0,0,7.1-4.3,11-4.2c3.9,0.1,52.5,1.6,52.5,1.6l9.9,0.8l15.5-22.6l-1-37.9l-39.6-16.2l-35.6,3.2
			l-16.8,16.5l-10.8,25.5L64.2,350.7z"/>
		<path fill="#070707" d="M487.4,321.5l-0.4,1.9c0,0-7.8,12.4-17.9,14.5c-10.1,2.1-9.4,2.5-9.4,2.5s-16.5,4.5-22.5,0.7
			c-6-3.8-56.3,4.7-56.3,4.7l-6.8,3.2l-7.2,1.6c0,0-14.2-15.3-14.2-15.5c0-0.2-0.5-15.1-0.5-15.1l13.5-42.1l28.2-18.9l14-2.5
			c0,0,42.1,16.3,42.1,16.7s5.2,15.2,5.2,15.2l11.9,20l9.8,5.5L487.4,321.5z"/>
		<path fill="#27262C" d="M493,310.3c0,0,1,11.5-0.8,11.9c0,0-13.5,3.4-15.5,2.9c-2-0.5-5.7-7-5.7-7L493,310.3z"/>
		<path fill="#27262C" d="M486.1,296.8l-1.8-15c0,0,0.4-0.7,0.8-1.6c0.1-0.3,0.3-0.8,0.4-1.2c0.4-1.7-0.5-1.7-0.5-1.7l-17.2-2.5
			c0,0-11.6,18.7-11.8,19.1c-0.2,0.5,6.8,10.2,6.8,10.2l6.8-0.1l13.1-0.3l5.1-3.4L486.1,296.8z"/>
		<path fill="#C3BFBE" d="M492.1,258.6c0,0,0.4,4.1-1.7,7.2c-2.2,3-3.8,7.9-3.8,7.9l-15.5,1.4l-0.7-9.7l8.4-7.7L492.1,258.6z"/>
		<path fill="#BC2304" d="M4.5,319.9c0,0,19.6-10.5,55-14.2c0,0-39.8,8.9-39.9,11.1c-0.1,2.3,13,24.9,13,24.9S4.8,332.6,4.5,319.9z"
			/>
		<path fill="none" d="M296.9,242.2c0.3,0.1,0.6,0.3,0.9,0.6C297.5,242.6,297.2,242.4,296.9,242.2z"/>
		<path fill="none" d="M289.1,239.4c0.4,0.1,0.8,0.2,1.1,0.3C289.8,239.6,289.4,239.5,289.1,239.4z"/>
		<path fill="none" d="M287.1,239c0.3,0.1,0.5,0.1,0.8,0.2C287.6,239.1,287.3,239,287.1,239z"/>
		<path fill="none" d="M290.2,239.7c0.4,0.1,0.8,0.2,1.1,0.3C291,239.9,290.6,239.7,290.2,239.7z"/>
		<path fill="none" d="M292.6,240.4c0.4,0.1,0.7,0.2,1.1,0.3C293.3,240.6,292.9,240.5,292.6,240.4z"/>
		<path fill="none" d="M294.8,241.3c0.3,0.1,0.7,0.3,1,0.5C295.5,241.5,295.1,241.4,294.8,241.3z"/>
		<path fill="none" d="M295.8,241.8c0.3,0.1,0.6,0.3,0.9,0.5C296.5,242.1,296.2,241.9,295.8,241.8z"/>
		<path fill="none" d="M286.2,238.7c0.3,0,0.5,0.1,0.8,0.2C286.8,238.8,286.5,238.7,286.2,238.7z"/>
		<path fill="none" d="M291.4,240.1c0.4,0.1,0.7,0.2,1.1,0.3C292.1,240.3,291.8,240.2,291.4,240.1z"/>
		<path fill="none" d="M293.7,240.9c0.4,0.1,0.7,0.2,1,0.5C294.4,241.1,294,241,293.7,240.9z"/>
		<path fill="none" d="M287.9,239.1c0.4,0.1,0.8,0.2,1.1,0.2C288.7,239.3,288.3,239.2,287.9,239.1z"/>
		<path fill="none" d="M277.5,237.5c0.1,0,0.3,0,0.4,0C277.8,237.5,277.7,237.5,277.5,237.5z"/>
		<path fill="none" d="M278,237.6c0.1,0,0.3,0,0.4,0C278.3,237.6,278.1,237.6,278,237.6z"/>
		<path fill="none" d="M276.1,237.4L276.1,237.4L276.1,237.4z"/>
		<path fill="none" d="M278.5,237.6c0.2,0,0.3,0,0.5,0C278.8,237.6,278.6,237.6,278.5,237.6z"/>
		<path fill="none" d="M280.9,237.8c0.4,0,0.9,0.1,1.3,0.2C281.8,237.9,281.3,237.9,280.9,237.8z"/>
		<path fill="none" d="M282.3,238.1c0.5,0.1,0.9,0.1,1.4,0.2C283.2,238.2,282.8,238.2,282.3,238.1z"/>
		<path fill="none" d="M285.4,238.6c0.3,0,0.5,0.1,0.8,0.1C285.9,238.7,285.7,238.6,285.4,238.6z"/>
		<path fill="none" d="M279.6,237.7c0.4,0,0.8,0.1,1.2,0.1C280.4,237.8,280,237.7,279.6,237.7z"/>
		<path fill="none" d="M279,237.6c0.2,0,0.3,0,0.5,0C279.3,237.7,279.2,237.7,279,237.6z"/>
		<path fill="none" d="M283.8,238.3c0.5,0.1,1,0.2,1.5,0.2C284.8,238.5,284.3,238.4,283.8,238.3z"/>
		<path fill="none" d="M301.9,247.1c0.1,0.2,0.2,0.6,0.3,0.9C302.2,247.6,302,247.3,301.9,247.1z"/>
		<path fill="none" d="M299.5,244c0.2,0.2,0.5,0.5,0.7,0.7C300,244.5,299.8,244.2,299.5,244z"/>
		<path fill="none" d="M277.5,237.5c-0.7-0.1-1.2-0.1-1.3-0.1c0.1,0,0.5,0,1,0.1C277.2,237.5,277.4,237.5,277.5,237.5z"/>
		<path fill="none" d="M300.9,245.5c0.2,0.2,0.4,0.5,0.5,0.8C301.3,245.9,301.1,245.7,300.9,245.5z"/>
		<path fill="none" d="M301.5,246.3c0.2,0.2,0.3,0.6,0.4,0.8C301.8,246.7,301.6,246.5,301.5,246.3z"/>
		<path fill="none" d="M300.3,244.7c0.2,0.2,0.4,0.5,0.6,0.7C300.7,245.1,300.5,244.9,300.3,244.7z"/>
		<path fill="none" d="M297.8,242.8c0.3,0.2,0.6,0.3,0.8,0.6C298.4,243.2,298.1,243,297.8,242.8z"/>
		<path fill="none" d="M298.7,243.5c0.3,0.2,0.5,0.5,0.8,0.6C299.2,243.8,299,243.6,298.7,243.5z"/>
		<path fill="#484949" d="M299.9,238.2c0,0-57.8-9.9-98.3,1.6c-40.5,11.6-74.6,31.6-74.6,31.6c1.4,0.3,2.8,0.8,4.2,1.1
			c7.6-3.7,44.2-21.5,48.8-22.6c5.1-1.2,49.1-16.3,96.1-12.4l0,0l0,0l0,0c0.2,0,0.6,0,1.3,0.1l0,0c0.1,0,0.3,0,0.4,0l0,0
			c0.1,0,0.3,0,0.4,0c0,0,0,0,0.1,0c0.2,0,0.3,0,0.5,0l0,0c0.2,0,0.3,0,0.5,0h0.1c0.4,0,0.8,0.1,1.2,0.1h0.1c0.4,0,0.9,0.1,1.3,0.2
			h0.1c0.5,0.1,0.9,0.1,1.4,0.2h0.1c0.5,0.1,1,0.2,1.5,0.2c0,0,0,0,0.1,0c0.3,0,0.5,0.1,0.8,0.1l0,0c0.3,0,0.5,0.1,0.8,0.2l0,0
			c0.3,0.1,0.5,0.1,0.8,0.2l0,0l0,0c0.4,0.1,0.8,0.2,1.1,0.2l0,0c0.4,0.1,0.8,0.2,1.1,0.3l0,0c0.4,0.1,0.8,0.2,1.1,0.3l0,0
			c0.4,0.1,0.7,0.2,1.1,0.3c0,0,0,0,0.1,0c0.4,0.1,0.7,0.2,1.1,0.3c0,0,0,0,0.1,0c0.4,0.1,0.7,0.2,1,0.5c0,0,0,0,0.1,0
			c0.3,0.1,0.7,0.3,1,0.5c0,0,0,0,0.1,0c0.3,0.1,0.6,0.3,0.9,0.5c0,0,0,0,0.1,0c0.3,0.1,0.6,0.3,0.9,0.6c0,0,0,0,0.1,0
			c0.3,0.2,0.6,0.3,0.8,0.6l0,0c0.3,0.2,0.5,0.5,0.8,0.6l0,0c0.2,0.2,0.5,0.5,0.7,0.7l0,0c0.2,0.2,0.4,0.5,0.6,0.7l0,0
			c0.2,0.2,0.4,0.5,0.5,0.8l0,0c0.2,0.2,0.3,0.6,0.4,0.8l0,0c0.1,0.2,0.2,0.6,0.3,0.9c1,3.2,0.7,6-0.1,8.2c6.2-1,9.9-1.7,9.9-1.7
			L299.9,238.2z"/>
		<path fill="#636363" d="M302.2,247.8c-0.1-0.3-0.2-0.6-0.3-0.9l0,0c-0.1-0.2-0.3-0.6-0.4-0.8l0,0c-0.2-0.2-0.3-0.6-0.5-0.8l0,0
			c-0.2-0.2-0.4-0.5-0.6-0.7l0,0c-0.2-0.2-0.5-0.5-0.7-0.7l0,0c-0.2-0.2-0.5-0.5-0.8-0.6l0,0c-0.3-0.2-0.6-0.3-0.8-0.6
			c0,0,0,0-0.1,0c-0.3-0.2-0.6-0.3-0.9-0.6c0,0,0,0-0.1,0c-0.3-0.1-0.6-0.3-0.9-0.5c0,0,0,0-0.1,0c-0.3-0.1-0.7-0.3-1-0.5
			c0,0,0,0-0.1,0c-0.3-0.1-0.7-0.3-1-0.5c0,0,0,0-0.1,0c-0.4-0.1-0.7-0.2-1.1-0.3c0,0,0,0-0.1,0c-0.4-0.1-0.7-0.2-1.1-0.3l0,0
			c-0.4-0.1-0.7-0.2-1.1-0.3l0,0c-0.4-0.1-0.8-0.2-1.1-0.3l0,0c-0.4-0.1-0.8-0.2-1.1-0.2l0,0l1.2,19.2c5-0.9,9.5-1.6,13.1-2.3
			C303,253.8,303.2,251,302.2,247.8z"/>
		<path fill="#636363" d="M289,239.4C289.1,239.4,289.1,239.4,289,239.4C289.1,239.4,289.1,239.4,289,239.4z"/>
		<path fill="#636363" d="M287.9,239.1L287.9,239.1L287.9,239.1z"/>
		<path fill="#636363" d="M301.4,246.2C301.4,246.2,301.5,246.3,301.4,246.2C301.5,246.3,301.4,246.2,301.4,246.2z"/>
		<path fill="#636363" d="M297.8,242.8L297.8,242.8L297.8,242.8z"/>
		<path fill="#636363" d="M301.9,247.1L301.9,247.1L301.9,247.1z"/>
		<path fill="#636363" d="M298.7,243.3C298.7,243.3,298.7,243.5,298.7,243.3C298.7,243.5,298.7,243.3,298.7,243.3z"/>
		<path fill="#636363" d="M299.5,244L299.5,244L299.5,244z"/>
		<path fill="#636363" d="M295.8,241.8L295.8,241.8L295.8,241.8z"/>
		<path fill="#636363" d="M300.9,245.5L300.9,245.5L300.9,245.5z"/>
		<path fill="#636363" d="M293.6,240.8C293.7,240.8,293.7,240.9,293.6,240.8C293.7,240.9,293.7,240.8,293.6,240.8z"/>
		<path fill="#636363" d="M294.7,241.2C294.7,241.2,294.8,241.2,294.7,241.2C294.8,241.2,294.7,241.2,294.7,241.2z"/>
		<path fill="#636363" d="M292.5,240.4L292.5,240.4L292.5,240.4z"/>
		<path fill="#636363" d="M291.4,240.1L291.4,240.1L291.4,240.1z"/>
		<path fill="#636363" d="M290.2,239.6C290.2,239.6,290.2,239.7,290.2,239.6C290.2,239.7,290.2,239.6,290.2,239.6z"/>
		<path fill="#636363" d="M300.2,244.7L300.2,244.7L300.2,244.7z"/>
		<path fill="#636363" d="M296.8,242.2L296.8,242.2L296.8,242.2z"/>
		<path fill="#3F51B5" d="M486.1,296.8l0.7,3.7l-11.2,0.7l-9-5.3l4.8-18.8l13.6,0.2l1.6-3.6l-14.3,0.2l2.8-9.6c0,0,15-5.2,16.5-4.6
			c1.5,0.6,2.6-1.2,2-1.8S365.2,232.5,323,229.5c-42.2-3-95.5-5.9-122,5.2v0.1c-49.2,13.2-83.8,32.1-88.7,34.8
			c-11.4,0.3-46.6,3.7-85.8,30.2c0,0-14.6,5.2-25.1,20.5c0,0,7.1,14.5,11.6,17.3c0,0-9.2,13.1-8,14.9c0.2,0.2,0.4,0.5,0.6,0.7
			c2,1.4,7.2,2.3,16.8,2.5c11.1,0.2,48.6,0.7,48.6,0.7s0.2-0.2,0-1.4c0-0.3-1.3-5.5-2.2-13.1c-2.5-21.2-1.6-56.8,39.4-55.2
			c53.5,0,35.5,68.4,35.5,68.4l223.7-3.9l-6.9-24.5c0,0,0.2-49.8,41.8-51.6s45,34.8,45,34.8v22.5l12.1-9.1c0,0,14.1,3.2,18.4,1.9
			c4.6-1.1,21.9-18.6,20.7-24.1c-1.2-5.5-3.4-3.7-3.4-3.7L486.1,296.8 M274.6,260.9c-35.2,6-83,14.2-87.2,15
			c-6.4,1.2-19,6.1-55.5-3.3l74.4-29.7c18.1-3.9,43.4-7.7,69.7-5.5l0,0l0,0l0,0c0.1,0,0.5,0,1,0.1L274.6,260.9z"/>
		<path fill="#636363" d="M276.1,237.4L276.1,237.4L276.1,237.4z"/>
		<path fill="#636363" d="M276.1,237.4L276.1,237.4L276.1,237.4z"/>
		<path fill="#27262C" d="M287.9,239.1c-0.3-0.1-0.5-0.1-0.8-0.2l0,0c-0.3-0.1-0.6-0.1-0.8-0.2l0,0c-0.3,0-0.5-0.1-0.8-0.1
			c0,0,0,0-0.1,0c-0.5-0.1-1-0.2-1.5-0.2h-0.1c-0.5-0.1-1-0.1-1.4-0.2h-0.1c-0.5-0.1-0.9-0.1-1.3-0.2h-0.1c-0.4,0-0.8-0.1-1.2-0.1
			h-0.1c-0.2,0-0.4,0-0.5,0l0,0c-0.2,0-0.3,0-0.5,0c0,0,0,0-0.1,0c-0.2,0-0.3,0-0.4,0l0,0c-0.1,0-0.3,0-0.4,0l0,0
			c-0.1,0-0.3,0-0.4,0l-2.5,23.4c5.1-0.9,10-1.7,14.4-2.5L287.9,239.1L287.9,239.1z"/>
		<path fill="#484949" d="M277.5,237.5L277.5,237.5L277.5,237.5z"/>
		<path fill="#484949" d="M278.4,237.6C278.4,237.6,278.5,237.6,278.4,237.6C278.5,237.6,278.4,237.6,278.4,237.6z"/>
		<path fill="#484949" d="M278,237.6L278,237.6L278,237.6z"/>
		<path fill="#484949" d="M279,237.6L279,237.6L279,237.6z"/>
		<path fill="#484949" d="M285.4,238.6L285.4,238.6L285.4,238.6z"/>
		<path fill="#484949" d="M286.2,238.7L286.2,238.7L286.2,238.7z"/>
		<path fill="#484949" d="M287,239C287,239,287.1,239,287,239C287.1,239,287,239,287,239z"/>
		<path fill="#484949" d="M283.7,238.3C283.8,238.3,283.8,238.3,283.7,238.3C283.8,238.3,283.8,238.3,283.7,238.3z"/>
		<path fill="#484949" d="M280.8,237.8h0.1H280.8z"/>
		<path fill="#484949" d="M279.5,237.7h0.1H279.5z"/>
		<path fill="#484949" d="M287.9,239.1L287.9,239.1L287.9,239.1L287.9,239.1z"/>
		<path fill="#484949" d="M282.2,238.1C282.2,238.1,282.3,238.1,282.2,238.1C282.3,238.1,282.2,238.1,282.2,238.1z"/>
		<path fill="#27262C" d="M346.2,250.9l-31.8-15l-7.9,0.8l-4.7,3.5l9.8,14.3C311.6,254.6,331.5,249.5,346.2,250.9z"/>
		<path fill="#C3BFBE" d="M54.8,286.6c0,0-17.9,4.8-25,10.1c-7.1,5.4-10.8,10.8-10.8,10.8s4.9-0.1,6.3-1.4
			C26.7,304.9,42.8,291.8,54.8,286.6z"/>
		<path fill="#27262C" d="M20.1,319.9l-7.7,4.2c0,0,3,1.8,3.6,3.5c0.5,1.7,2,4.5,1.7,6.3s-1.9,11.7-1.9,11.7l9.5,1.5l7.4-5.9
			C32.7,341.2,22.6,317.8,20.1,319.9z"/>
		<g>
			<ellipse fill="#27262C" cx="108" cy="329.9" rx="36.5" ry="39.9"/>
			<ellipse fill="#C3BFBE" cx="108.1" cy="328.1" rx="27.6" ry="31.4"/>
			<g>
				<path fill="#27262C" d="M98.6,307l6.4,8.2c0,0,1.1,2,2.6,2s2.6-1.4,2.6-1.4l6.7-8.9c0,0,0.9-1.2,0-2.1c-0.9-0.9-4.2-2.1-8.7-2.1
					C103.6,302.8,96.9,304.2,98.6,307z"/>
				<path fill="#27262C" d="M98.6,349.1l6.4-8.2c0,0,1.1-2,2.6-2s2.6,1.4,2.6,1.4l6.7,8.9c0,0,0.9,1.2,0,2.1
					c-0.9,0.9-4.2,2.1-8.7,2.1C103.6,353.4,96.9,352,98.6,349.1z"/>
				<path fill="#27262C" d="M126.8,317.6l-7.2,7.3c0,0-1.7,1.2-1.7,2.9s1.2,2.9,1.2,2.9l7.8,7.7c0,0,1.1,1,1.9,0
					c0.8-1,1.9-4.7,1.9-9.9C130.5,323.3,129.3,315.7,126.8,317.6z"/>
				<path fill="#27262C" d="M89.9,317.6l7.2,7.3c0,0,1.7,1.2,1.7,2.9s-1.2,2.9-1.2,2.9l-7.8,7.7c0,0-1.1,1-1.9,0
					c-0.8-1-1.9-4.7-1.9-9.9C86.2,323.3,87.4,315.7,89.9,317.6z"/>
			</g>
		</g>
		<g>
			<ellipse fill="#27262C" cx="405.2" cy="320.5" rx="37.1" ry="42.3"/>
			<ellipse fill="#C3BFBE" cx="405.3" cy="320.5" rx="28" ry="32"/>
			<g>
				<path fill="#27262C" d="M395.6,299.2l6.5,8.4c0,0,1.1,2,2.7,2c1.5,0,2.7-1.5,2.7-1.5l6.8-9c0,0,0.9-1.2,0-2.1
					c-0.9-0.9-4.2-2.1-8.8-2.1C400.7,294.8,394,296.2,395.6,299.2z"/>
				<path fill="#27262C" d="M395.6,341.9l6.5-8.4c0,0,1.1-2,2.7-2c1.5,0,2.7,1.5,2.7,1.5l6.8,9c0,0,0.9,1.2,0,2.1
					c-0.9,0.9-4.2,2.1-8.8,2.1C400.7,346.2,394,344.8,395.6,341.9z"/>
				<path fill="#27262C" d="M424.3,309.8l-7.4,7.4c0,0-1.8,1.2-1.8,3s1.2,3,1.2,3l7.9,7.8c0,0,1.1,1.1,1.9,0
					c0.8-1.1,1.9-4.8,1.9-10.1C428.1,315.7,426.9,307.9,424.3,309.8z"/>
				<path fill="#27262C" d="M386.8,309.8l7.4,7.4c0,0,1.8,1.2,1.8,3s-1.2,3-1.2,3l-7.9,7.8c0,0-1.1,1.1-1.9,0
					c-0.8-1.1-1.9-4.8-1.9-10.1C383,315.7,384.2,307.9,386.8,309.8z"/>
			</g>
		</g>
	</g>
	<path fill="#C3BFBE" d="M128.5,280.3l5.2-10.1c0,0,2-7.7,7.8-7.7c4.9,0,11.6,0,12.5,5.6c0,5.6-2,6.6-3.8,6.6c-2,0-10.7,1-10.7,1
		l1.2,4.3C139.8,280.1,131.1,280.3,128.5,280.3z"/>
	<path fill="#C3BFBE" d="M288.5,277.3c0,1.7,0,1.7-1.5,1.7h-16.7c-1.5,0-1.5,0-1.5-1.7l0,0c0-1.7,0-1.7,1.5-1.7H287
		C288.5,275.8,288.5,275.8,288.5,277.3L288.5,277.3z"/>
</g>
</svg>
