<?xml version="1.0" encoding="utf-8"?>
<!-- Generator: Adobe Illustrator 18.0.0, SVG Export Plug-In . SVG Version: 6.00 Build 0)  -->
<!DOCTYPE svg PUBLIC "-//W3C//DTD SVG 1.1//EN" "http://www.w3.org/Graphics/SVG/1.1/DTD/svg11.dtd">
<svg version="1.1" id="Layer_1" xmlns="http://www.w3.org/2000/svg" xmlns:xlink="http://www.w3.org/1999/xlink" x="0px" y="0px"
	 viewBox="0 0 500 500" enable-background="new 0 0 500 500" xml:space="preserve">
<g>
	<g>
		<g>
			<path fill="#010101" d="M50.7,338.4c0,0,10.4,8.6,11.3,7.7c0.5-0.5-0.5-4.1,0-4.1c0.5,0,7.2-2.7,7.2-2.7l69,4.5
				c0,0,9.9,0.9,12.2,0c1.8-0.5,198-6.8,198-6.8l2.3,3.2c0,0,5.9-2.3,9.5,3.6c3.6,5.4,84.3-4.5,86.1-3.6c1.8,2.7-4.5-66.7-4.5-66.7
				l-165,9.5L86.3,272.5C85.9,273,43.9,306.4,50.7,338.4z"/>
			<path fill="#27262C" d="M38.5,291c0,0-5.9,0.9-6.8,9.5c-0.9,9-2.3,25.3,1.4,34.7c3.2,9.9,6.3,2.7,6.3,2.7L38.5,291z"/>
			<path fill="#27262C" d="M453.4,263.5c0,0-0.9-1.4-0.9-4.1c0-2.7-3.6-21.2-1.8-21.2c0,0-4.5-23.4-14-43.3l0,0
				c-0.9-5.9-3.6-5.4-3.6-5.4c-5.9-0.5-13.5-0.9-22.1-1.4c1.4-2.3,0-3.6-4.5-4.1c-29.8-4.1-157.4-0.9-167.8,0
				c-6.3,0.5-12.2,4.1-14.9,5.4c-13.5,3.6-15.8,6.3-15.8,6.3l1.4-0.5c-14.9,8.6-73.5,50.1-73.5,50.1l4.1,6.3l9.9-6.3L232,250
				l159.6-9.5c0,0,29.3-29.8,36.1-37.9c-2.3,12.2-1.4,40.6-1.4,40.6l14.4,22.5l14.4,4.5C455.7,273,453.8,270.3,453.4,263.5z"/>
			<path fill="#C3BFBE" d="M52.1,260.4c0,0-2.7,2.3-3.6,3.6c-0.9,1.4-6.8,11.3-5.4,20.7c1.4,9,13.5,3.6,13.5,3.6l14-9l21.2-23
				C91.3,255.4,59.3,256.8,52.1,260.4z"/>
			<path fill="#C3BFBE" d="M448.9,250c0.5-0.9-7.7-37-9.9-39.7l-4.1-9c0,0-2.7,2.3-3.6,4.5c-0.9,3.6,2.3,37.4,3.6,41
				c1.8,4.5,14.4,14,14.4,14S449.3,250.9,448.9,250z M444.8,242.8L444.8,242.8C444.8,242.8,444.8,243.2,444.8,242.8L444.8,242.8
				L444.8,242.8z"/>
			<path fill="#C3BFBE" d="M451.1,250.4c0,0-1.8-12.6-0.9-13.1c0.9-0.5,3.2,4.5,4.1,13.1c0.9,7.2,0.5,12.6-0.5,12.6
				C452.5,263.5,451.6,255,451.1,250.4z"/>
			<path fill="#3F51B5" d="M101.7,277.5c48.7,0,55.9,55.5,55.9,55.5l180.8-3.2c0,0,2.3-56.4,61.8-56.4c41,0,52.3,47.3,52.3,47.3
				l9-0.5h-0.5c-0.5-0.5,0.5-9.5,0.9-10.8s0.9-9.5,0.9-9.5s0.5-3.6,0-13.1c-0.5-9.9-5-13.1-5.4-13.1c-0.5-0.5-2.7-4.5-2.7-4.5
				s-9.9-7.7-16.7-13.5s-8.1-10.8-8.6-17.6c-0.9-6.8-0.9-36.5-0.9-36.5l-25.7-1.4c2.3,3.2-10.8,24.4-14,29.8
				c-3.2,4.5-11.3,4.5-11.3,4.5l-100.1,4.1l-114.1,4.5c0,0-22.1,2.3-27.5,0.9c-5.4-0.5-34.7,4.1-57.3,7.2
				c-22.5,3.6-28.9,10.8-28.9,10.8s-1.4,0.5,5-1.8c6.8-1.4,24.4-4.5,27.1-4.5c2.7,0.5,4.1,2.7,4.1,2.7c-3.2,0.9-21.2,15.8-26.2,18.9
				c-5,3.6-9.5,4.5-13.1,4.5s-3.6-2.7-3.6-2.7c-3.6,6.8-5,4.1-7.2,9.5c-2.3,5.4,0.5,38.8,0.5,38.8l14.4,0.5
				C51.2,327.6,52.5,277.5,101.7,277.5z"/>
			<path fill="#FFFFFF" d="M186.4,241.4l82.1-4.1l9.9-39.2h-54.1c0,0-36.5,26.6-38.3,30.7C183.3,232.9,186.4,241.4,186.4,241.4z"/>
			<polygon fill="#FFFFFF" points="292.4,198.6 287,236.9 366.4,234.2 368.2,211.7 362.8,200.4 			"/>
			<path fill="#FFFFFF" d="M368.2,200.4l13.5,31.1c0,0,0.5,1.4,3.6-2.7c3.2-4.1,13.5-22.5,13.5-22.5s1.4-2.7,0-4.5
				c-1.4-1.8-6.3-2.3-6.3-2.3L368.2,200.4L368.2,200.4z"/>
			<path fill="#27262C" d="M185.5,224.7l1.8-2.3h2.3c0,0,1.4,0.9,1.4,7.7c0,7.2-0.9,9.5-2.7,9.9
				C186.4,241.4,185.5,224.7,185.5,224.7z"/>
			<path fill="#C3BFBE" d="M189.6,228.3L189.6,228.3c-0.5-4.5-0.9-4.5-1.4-4.5c0.5,0,0.9,0,0,0l0,0c-0.5,0-1.8,0-4.5,0.5
				c-7.2,0.9-8.1,9.5-8.1,10.8c-0.9,0-2.3,0.5-2.3,1.4c0,0,1.8,5.4,5,5.9c3.2,0.5,9.9-0.5,11.3-0.9
				C190.9,240.5,190,229.7,189.6,228.3z"/>
			<path fill="#27262C" d="M468.7,327.6c0.5-2.3,0.9-4.1,0.9-6.3c0-0.5,0-0.9,0-1.4c4.1-4.5,0-23.4-0.9-27.5
				c-0.9-4.1-6.3-9.5-6.3-9.5l-0.9,25.7c-2.7,2.3-3.2,5.9-3.2,11.3h-5.9c0,0-12.2-49.2-53.2-49.2c-59.1,0.9-60.9,56.8-60.9,56.8
				l-182.2-0.5c0,0-6.3-52.8-54.6-52.8c-49.2,0.9-51.4,52.8-51.4,52.8H35.8c-3.6-0.5-2.7,4.1-2.7,4.5s0,0.9-0.5,1.4
				c0.5-1.4,0.5-4.5,0-8.6c0-4.5-0.9-9.5-1.8-9.9c-0.5,0.5-0.9,4.5-0.5,9.9c0.5,4.5,0.9,7.7,1.8,9.5c0,0.5-0.5,0.5-0.9,0.5
				c-0.5,1.8-0.9-1.4-2.3,4.5c-0.9,5.9,18.9,6.3,18.9,6.3c0.5,0.5,2.7,0.9,2.7,0.9c9,1.4,11.3,0,11.3,0
				c-12.2-18.9,6.3-64.5,42.8-59.1c46,6.8,42.4,56.8,42.4,56.8h205.2c-0.9-4.1-1.4-9-0.5-14c2.7-19.4,16.2-45.5,46.4-41
				c51,4.5,43.3,55.5,43.3,55.5s15.8-1.4,22.5-3.6c6.8-1.4,6.3-4.5,5.4-6.3C469.2,333.4,468.7,329.8,468.7,327.6z"/>
			<g>
				<ellipse fill="#27262C" cx="101.7" cy="333" rx="37.9" ry="39.7"/>
				<path fill="#C3BFBE" d="M72.3,333c0,16.7,13.1,30.2,28.4,30.2s28.4-13.1,28.4-30.2c0-16.7-13.1-30.2-28.4-30.2
					C85.4,302.8,72.3,316.7,72.3,333z"/>
				<g>
					<path fill="#27262C" d="M91.3,312.7l6.8,7.7c0,0,1.4,2.3,2.7,2.3c1.4,0,2.7-1.4,2.7-1.4l7.2-8.6c0,0,0.9-1.4,0-2.7
						c-0.9-0.9-4.5-2.7-9-2.7C96.2,308.2,89.5,310,91.3,312.7z"/>
					<path fill="#27262C" d="M91.3,352.8l6.8-7.7c0,0,1.4-2.3,2.7-2.3c1.4,0,2.7,1.4,2.7,1.4l7.2,8.6c0,0,0.9,1.4,0,2.7
						c-0.9,0.9-4.5,2.7-9,2.7C96.2,357.3,89.5,356.4,91.3,352.8z"/>
					<path fill="#27262C" d="M121.1,322.1l-7.7,6.8c0,0-1.8,1.4-1.8,3.2c0,2.3,1.4,3.6,1.4,3.6l8.1,7.2c0,0,1.4,0.9,1.8,0
						c0.9-0.9,1.8-4.5,1.8-9.9C124.7,327.6,123.8,320.8,121.1,322.1z"/>
					<path fill="#27262C" d="M82.3,322.1l7.7,6.8c0,0,1.8,1.4,1.8,3.2c0,2.3-1.4,3.6-1.4,3.6l-8.1,7.2c0,0-1.4,0.9-1.8,0
						c-0.9-0.9-1.8-4.5-1.8-9.9C78.7,327.6,79.6,320.8,82.3,322.1z"/>
				</g>
			</g>
			<g>
				<ellipse fill="#27262C" cx="396.1" cy="334.3" rx="37.9" ry="39.7"/>
				<path fill="#C3BFBE" d="M367.7,334.3c0,16.7,13.1,30.2,28.9,30.2c15.8,0,28.4-13.1,28.4-30.2c0-16.7-13.1-30.2-28.4-30.2
					C380.8,304.6,367.7,318.1,367.7,334.3z"/>
				<g>
					<path fill="#27262C" d="M386.7,314l6.8,7.7c0,0,1.4,2.3,2.7,2.3c1.4,0,2.7-1.4,2.7-1.4l7.2-8.6c0,0,0.9-1.4,0-2.7
						c-0.9-0.9-4.5-2.7-9-2.7C391.6,310.4,384.9,311.3,386.7,314z"/>
					<path fill="#27262C" d="M386.7,354.6l6.8-7.7c0,0,1.4-2.3,2.7-2.3c1.4,0,2.7,1.4,2.7,1.4l7.2,8.6c0,0,0.9,1.4,0,2.7
						c-0.9,1.4-4.5,2.7-9,2.7C391.6,359.6,384.9,357.8,386.7,354.6z"/>
					<path fill="#27262C" d="M416,324.4l-7.7,6.8c0,0-1.8,1.4-1.8,3.6c0,2.3,1.4,3.6,1.4,3.6l8.1,7.2c0,0,1.4,0.9,1.8,0
						c0.9-0.9,1.8-4.5,1.8-9.9C420,329.8,418.7,322.1,416,324.4z"/>
					<path fill="#27262C" d="M377.6,324.4l7.7,6.8c0,0,1.8,1.4,1.8,3.6c0,2.3-1.4,3.6-1.4,3.6l-8.1,6.8c0,0-1.4,0.9-1.8,0
						c-0.9-0.9-1.8-4.5-1.8-9.9C373.6,329.8,374.9,322.1,377.6,324.4z"/>
				</g>
			</g>
		</g>
	</g>
	<path fill="#C3BFBE" d="M366.4,246.8c0,2.3,0,2.3-1.4,2.3h-15.3c-1.4,0-1.4,0-1.4-2.3l0,0c0-2.3,0-2.3,1.4-2.3H365
		C366.4,245,366.4,245,366.4,246.8L366.4,246.8z"/>
	<path fill="#C3BFBE" d="M267.6,250.9c0,2.3,0,2.3-1.4,2.3h-15.3c-1.4,0-1.4,0-1.4-2.3l0,0c0-2.3,0-2.3,1.4-2.3h15.3
		C267.6,248.6,267.6,248.6,267.6,250.9L267.6,250.9z"/>
</g>
</svg>
