<?xml version="1.0" encoding="utf-8"?>
<!-- Generator: Adobe Illustrator 18.0.0, SVG Export Plug-In . SVG Version: 6.00 Build 0)  -->
<!DOCTYPE svg PUBLIC "-//W3C//DTD SVG 1.1//EN" "http://www.w3.org/Graphics/SVG/1.1/DTD/svg11.dtd">
<svg version="1.1" id="Layer_1" xmlns="http://www.w3.org/2000/svg" xmlns:xlink="http://www.w3.org/1999/xlink" x="0px" y="0px"
	 viewBox="0 0 500 500" enable-background="new 0 0 500 500" xml:space="preserve">
<g>
	<g>
		<g>
			<path d="M433.3,310.2h3.4c1.5,0,9.2-14.1,9.2-14.1l-8.2-42.2l-55.3-7.8l-69.8-2.9l-201.2,8.7l-76.1,4.8l-6.3,32l2.9,17.9l4.4,2.9
				"/>
			<path d="M348,308.3l2.9,1.9"/>
			<path fill="#3F51B5" d="M74,225.4c0,0,1.6-4.4,2.7-5.1c0,0,10.4-3.6,11.9-3.6c1.5,0,53.3-49.9,63-49.9c8.2,0-9.7,32-9.7,32
				l-56.7,33L74,225.4z"/>
			<path fill="#27262C" d="M482.7,287c0,0,9.2,1.5,9.2,4.8c0,3.4,5.3,19.4-19.4,17.9C445.4,309.7,468.2,285.5,482.7,287z"/>
			<path fill="#C3BFBE" d="M28.5,241.9l-4.4,2.9c0,0-5.3,8.7-5.3,13.6c0,4.4,0,18.9,0,18.9c0,1.5,8.2,0.5,8.2,0.5h6.3
				C35.3,279.7,33.3,245.3,28.5,241.9z"/>
			<path fill="#3F51B5" d="M477.9,216.7c0-2.9-8.2-30.1-8.2-30.1h8.2c-1.5-7.8-4.8-15-9.7-17.9c0,0-1.5-11.6-25.7-8.7h-73.2
				l-165.3,1c0,0-48.5-1.5-58.7,8.7L87.1,222c0,0-8.5,1.2-10.4-1.7l-51.2,21.1c0,0-1.5,0-1.5,2.9c0,0,4.8,0,4.8,5.8
				c0,4.4,1.5,26.7,0,28.6c-1.5,0-9.7,0-9.7-1.5v1.5c0,0,3.4,1.5,4.8,1.5c1.5,0,19.4,0,19.4,0s14.5-17.9,38.8-15
				s32.5,16.5,35.9,28.6c3.4,12.1,2.9,16,7.8,16c1.9,0,225.4,0.5,225.4,0.5s0-4.4,0-6.3c0-1.5-1-38.3,43.1-39.8
				c44.1,1.9,41.2,45.1,41.2,45.1h40.7c0,0,2.9-9.7,2.9-14.5s0-6.8,0-6.8s6.3,0,6.3-5.8v-33.9c0,0,0-16.5-3.4-36.4L477.9,216.7
				L477.9,216.7L477.9,216.7z"/>
			<path fill="#FFFFFF" stroke="#27262C" stroke-width="0.699" stroke-miterlimit="10" d="M127.9,195.3c0,0,17.9-17.9,21.3-19.9
				c3.4-1.5,9.7-7.8,19.4-7.8c11.2,0,19.4,0,19.4,0h11.2c0,0,3.4,0,3.4,1.5c0,2.9,0,45.1,0,45.1s0,2.9-1.5,2.9
				c-1.5,0-73.2,1.5-73.2,1.5L127.9,195.3z"/>
			<path fill="#27262C" d="M22.2,276.8c0,0-13.1,1.5-13.1,5.8c0,4.4,0,22.3,0,22.3s1.9,4.8,10.2,4.8s17,0,17,0s-3.4-23.8,7.3-29.1
				C41.6,278.7,22.2,276.8,22.2,276.8z"/>
			<path fill="#C3BFBE" d="M477.4,220.1l6.3-0.5c-1.5-10.2-2.4-24.2-5.8-33l-10.2-0.5C467.7,185.6,477.4,217.1,477.4,220.1z"/>
			<path fill="#3F51B5" d="M215.1,160.9L215.1,160.9c0,1.5,1.5,144.5,1.5,145.9s-1.5,2.9-1.5,2.9l0,0h-84.4c-3.4,0-3.4-1.5-3.4-1.5
				l0,0c0-1.5-1.5-5.8-3.4-12.1c-3.4-8.7-8.2-22.3-9.7-33c-1.5-16.5,0-66.4,1.5-66.4l0,0c0,0-3.4,49.9-1.5,66.4
				c1.5,10.2,6.3,22.3,9.7,33c1.5,4.4,3.4,8.7,3.4,12.1c0,0,0,1.5,3.4,1.5h84.4c0-1.5,1.5-1.5,1.5-2.9"/>
			<path fill="#27262C" d="M126.4,216.7c0,2.9-1.5,5.8-3.9,5.8l0,0c-2.9,0-3.9-1.5-3.9-5.8v-17c0-2.9,1.5-5.8,3.9-5.8l0,0
				c2.9,0,3.9,1.5,3.9,5.8V216.7z"/>
			<path fill="#FFFFFF" stroke="#27262C" stroke-width="0.699" stroke-miterlimit="10" d="M224.3,169.2h103.3c2.4,0,3.9,1.9,3.9,3.4
				v42.2c0,2.4-1.9,4.4-4.8,4.4H225.8c-2.4,0-4.8-1.9-4.8-4.4v-42.7C220.9,170.1,222.4,169.2,224.3,169.2z"/>
			<path fill="#FFFFFF" stroke="#27262C" stroke-width="0.699" stroke-miterlimit="10" d="M353.3,169.2h95c2.4,0,4.4,1.9,4.4,3.9
				v42.7c0,2.4-1.9,3.9-4.4,3.9h-94.5c-2.4,0-4.8-1.9-4.8-4.4V173C349.4,170.6,351.3,169.2,353.3,169.2z"/>
		</g>
		<path fill="#E5E5E3" d="M129.8,216.2c0,2.9-1.5,5.8-4.8,5.8l0,0c-3.4,0-4.8-1.5-4.8-5.8v-16.5c0-2.9,1.5-5.8,4.8-5.8l0,0
			c3.4,0,4.8,1.5,4.8,5.8V216.2z"/>
	</g>
	<g>
		<g>
			<path fill="#27262C" d="M432.8,310.2c0,21.8-17,39.3-38.3,39.3c-21.3,0-38.3-17.9-38.3-39.3s17-39.3,38.3-39.3
				C415.8,270.5,432.8,288.4,432.8,310.2z"/>
			<path fill="#C3BFBE" d="M365.9,310.2c0,16.5,13.1,29.6,29.1,29.6c16,0,29.1-13.1,29.1-29.6S411,280.7,395,280.7
				C379,280.7,365.9,293.7,365.9,310.2z"/>
			<g>
				<path fill="#27262C" d="M384.8,289.9l6.8,7.8c0,0,1,1.9,2.9,1.9c1.5,0,2.9-1.5,2.9-1.5l6.8-8.2c0,0,1-1.5,0-2.4
					c-1-1-4.4-2.4-9.2-2.4C390.1,286,382.9,287.4,384.8,289.9z"/>
				<path fill="#27262C" d="M384.8,330.1l6.8-7.8c0,0,1-1.9,2.9-1.9c1.5,0,2.9,1.5,2.9,1.5l6.8,8.2c0,0,1,1.5,0,1.9
					c-1,0.5-4.4,2.4-9.2,2.4C390.1,334.5,382.9,333,384.8,330.1z"/>
				<path fill="#27262C" d="M414.4,300.5l-7.8,7.3c0,0-1.9,1.5-1.9,2.4c0,1.9,1.5,2.4,1.5,2.4l8.2,7.3c0,0,1,1,1.9,0
					s1.9-4.4,1.9-9.2C418.2,305.9,416.8,298.6,414.4,300.5z"/>
				<path fill="#27262C" d="M375.6,300.5l7.8,7.3c0,0,1.9,1.5,1.9,2.4c0,1.9-1.5,2.4-1.5,2.4l-8.2,7.8c0,0-1,1-1.9,0
					c-1-1-1.9-4.4-1.9-9.2C371.7,305.9,373.2,298.6,375.6,300.5z"/>
			</g>
		</g>
	</g>
	<g>
		<g>
			<path fill="#27262C" d="M117.2,310.2c0,21.8-17,39.3-38.3,39.3s-38.3-17.9-38.3-39.3s17-39.3,38.3-39.3
				C100.2,270.5,117.2,288.4,117.2,310.2z"/>
			<path fill="#C3BFBE" d="M50.3,310.2c0,16.5,13.1,29.6,29.1,29.6s29.1-13.1,29.1-29.6s-13.1-29.6-29.1-29.6S50.3,293.7,50.3,310.2
				z"/>
			<g>
				<path fill="#27262C" d="M69.2,289.9l6.8,7.8c0,0,1,1.9,2.9,1.9c1.5,0,2.9-1.5,2.9-1.5l6.8-8.2c0,0,1-1.5,0-2.4
					c-1-1-4.4-2.4-9.2-2.4C74.5,286,67.3,287.4,69.2,289.9z"/>
				<path fill="#27262C" d="M69.2,330.1l6.8-7.8c0,0,1-1.9,2.9-1.9c1.5,0,2.9,1.5,2.9,1.5l6.8,8.2c0,0,1,1.5,0,1.9
					c-1,0.5-4.4,2.4-9.2,2.4S67.3,333,69.2,330.1z"/>
				<path fill="#27262C" d="M98.8,300.5l-7.8,7.3c0,0-1.9,1.5-1.9,2.4c0,1.9,1.5,2.4,1.5,2.4l8.2,7.3c0,0,1,1,1.9,0s1.9-4.4,1.9-9.2
					C102.6,305.9,101.2,298.6,98.8,300.5z"/>
				<path fill="#27262C" d="M60,300.5l7.8,7.3c0,0,1.9,1.5,1.9,2.4c0,1.9-1.5,2.4-1.5,2.4l-8.2,7.8c0,0-1,1-1.9,0
					c-1-1-1.9-4.4-1.9-9.2C56.1,305.9,57.6,298.6,60,300.5z"/>
			</g>
		</g>
	</g>
</g>
<path fill="#C3BFBE" d="M200.5,224c2,0,2,0,2,1.5v17c0,1.5,0,1.5-2,1.5l0,0c-2,0-2,0-2-1.5v-17C198.5,224,198.5,224,200.5,224
	L200.5,224z"/>
<path fill="#C3BFBE" d="M220,224c2,0,2,0,2,1.5v17c0,1.5,0,1.5-2,1.5l0,0c-2,0-2,0-2-1.5v-17C218,224,218,224,220,224L220,224z"/>
</svg>
