<?xml version="1.0" encoding="utf-8"?>
<!-- Generator: Adobe Illustrator 18.0.0, SVG Export Plug-In . SVG Version: 6.00 Build 0)  -->
<!DOCTYPE svg PUBLIC "-//W3C//DTD SVG 1.1//EN" "http://www.w3.org/Graphics/SVG/1.1/DTD/svg11.dtd">
<svg version="1.1" id="Layer_1" xmlns="http://www.w3.org/2000/svg" xmlns:xlink="http://www.w3.org/1999/xlink" x="0px" y="0px"
	 viewBox="0 0 500 500" enable-background="new 0 0 500 500" xml:space="preserve">
<g>
	<path d="M329,335.3l1.2,3.2c0,0,8.8,2.1,10.9,1.9c2.1-0.3,26.3-2,26.3-2l14.9-3.1c0,0,1.7,2.6,3.1,2.6c1.4,0,6.4,0.7,9.3,0
		c2.8-0.6-1.3-29.2-1.3-29.2l-46.1-6.8l-31.7,23.9L329,335.3z"/>
	<g>
		<circle fill="#27262C" cx="362.2" cy="335.3" r="23.3"/>
		<circle fill="#C3BFBE" cx="362.2" cy="335.3" r="17.6"/>
		<g>
			<path fill="#27262C" d="M356.1,323.5l4.1,4.6c0,0,0.7,1.2,1.7,1.2c0.9,0,1.7-0.7,1.7-0.7l4.2-5c0,0,0.6-0.7,0-1.2
				c-0.6-0.5-2.6-1.2-5.6-1.2C359.4,321.1,355,321.9,356.1,323.5z"/>
			<path fill="#27262C" d="M356.1,347.1l4.1-4.6c0,0,0.7-1.2,1.7-1.2c0.9,0,1.7,0.7,1.7,0.7l4.2,5c0,0,0.6,0.7,0,1.2
				c-0.6,0.5-2.6,1.2-5.6,1.2C359.4,349.4,355,348.7,356.1,347.1z"/>
			<path fill="#27262C" d="M374.1,329.4l-4.6,4.1c0,0-1.2,0.7-1.2,1.7c0,0.9,0.7,1.7,0.7,1.7l5,4.2c0,0,0.7,0.6,1.2,0
				c0.5-0.6,1.2-2.6,1.2-5.6C376.6,332.7,375.8,328.4,374.1,329.4z"/>
			<path fill="#27262C" d="M350.5,329.4l4.6,4.1c0,0,1.2,0.7,1.2,1.7c0,0.9-0.7,1.7-0.7,1.7l-5,4.2c0,0-0.7,0.6-1.2,0
				c-0.5-0.6-1.2-2.6-1.2-5.6C348.2,332.7,348.9,328.4,350.5,329.4z"/>
		</g>
	</g>
	<path fill="none" d="M307.1,208.5h-43.8c-1.6,0-2.8,1.2-2.8,2.6V229c0,1.6,1.4,2.8,2.8,2.8h43.8c1.6,0,2.8-1.4,2.8-2.8v-17.8
		C309.9,209.7,308.6,208.5,307.1,208.5z"/>
	<path fill="none" d="M162.9,223.6c-1.3-0.8-14.3-1.4-33,3.5l-3.5,37.9l21.9-4.2c0,0,7.5-2.2,9.7-5.5c2.2-3.4,5.6-27.2,5.6-27.2
		S164,224.4,162.9,223.6z"/>
	<rect x="208.4" y="217.4" fill="none" width="23.6" height="35.6"/>
	<path fill="none" d="M119.2,211.8L119.2,211.8h0.3c0,0.1-0.3,0.3-0.3,0.6c0-0.2,0.3-0.4,0.3-0.6H119.2z"/>
	<path fill="#3F51B5" d="M119.2,211.8v0.6c0-0.2,0.3-0.4,0.3-0.6H119.2z"/>
	<path d="M57.2,332.6c6.1,1.1,42.5,6.8,42.5,6.8s3.7,1.4,10.8,0.6c1.9-0.2,0.9-14.4,0.6-19.6h62.3v-13v-0.7l-64.5-0.7
		c-0.7-3.9-1.1-5.3-1.1-5.3l-43.6-4.1l-13.6,11c-5.2,0-24.7,0.2-29.5,0.2c-1.1,0-1.1,0.9-1.8,0.8c-0.6,0.3-3.1,1.6-3.1,3
		c0,1.6,1.6,5.3,1.6,7.1c0,1.8-1.1,8.1,2,10.5c3.1,2.3,18.4,7.3,21.6,8.9c3.3,1.6,6.1,1.7,7.1,0.1c0.1-0.2,1.6-1.6,1.7-2.3"/>
	<g>
		<circle fill="#27262C" cx="78.2" cy="335.3" r="23.3"/>
		<circle fill="#C3BFBE" cx="78.3" cy="335.3" r="17.6"/>
		<g>
			<path fill="#27262C" d="M72.2,323.5l4.1,4.6c0,0,0.7,1.2,1.7,1.2s1.7-0.7,1.7-0.7l4.2-5c0,0,0.6-0.7,0-1.2
				c-0.6-0.5-2.6-1.2-5.6-1.2C75.3,321.1,71.1,321.9,72.2,323.5z"/>
			<path fill="#27262C" d="M72.2,347.1l4.1-4.6c0,0,0.7-1.2,1.7-1.2s1.7,0.7,1.7,0.7l4.2,5c0,0,0.6,0.7,0,1.2
				c-0.6,0.5-2.6,1.2-5.6,1.2C75.3,349.4,71.1,348.7,72.2,347.1z"/>
			<path fill="#27262C" d="M90.2,329.4l-4.6,4.1c0,0-1.2,0.7-1.2,1.7c0,0.9,0.7,1.7,0.7,1.7l5,4.2c0,0,0.7,0.6,1.2,0
				c0.5-0.6,1.2-2.6,1.2-5.6C92.6,332.7,91.8,328.4,90.2,329.4z"/>
			<path fill="#27262C" d="M66.6,329.4l4.6,4.1c0,0,1.2,0.7,1.2,1.7c0,0.9-0.7,1.7-0.7,1.7l-5,4.2c0,0-0.7,0.6-1.2,0
				c-0.5-0.6-1.2-2.6-1.2-5.6C64.3,332.7,65,328.4,66.6,329.4z"/>
		</g>
	</g>
	<g>
		<path fill="#616161" d="M79.8,206.5l16.1,5.3l9.1,1.7c0,0.1,9.9,0.1,9.9,0.4l4.4,5.9c-6.6,3.4-43.6,40.9-43.6,40.9
			c-2.2,0.3-4.7,1.1-4.7,1.1l-0.1,0.1c-2.8,0.9-45.7,15.9-47.8,28.2c0,0-4.3,8.1-3.6,18.1c0,0-0.1,0.1-0.2,0.1
			c0.7,0.1,1.7,0.2,2.6,0.2c5.7,0,29.8,0,29.8,0H61c4.3-3.4,10.1-5,18.1-5c6.3,0,11.4,1.3,15.5,3.6h78.6V320h-67
			c4.4,9.5,4,19.6,4,19.6s3.1,1.1,4.3-1.3h84.9h128.7c0,0,5.4,1.2,6.6-4.9s0.7-14,4.9-17.8c4.2-3.8,22.1-8.5,22.1-8.5
			s20.5,4.4,24.7,8.5c4.2,4.2,4.5,16.9,4.5,16.9s-0.3,4.9,3.5,5.3c3.8,0.3,37-1.1,43.3-2c6.3-0.9,34.8-6,38.5-7.6
			c3.6-1.6,6.3-4.3,7.1-10.5c0.7-6.1,0-10.5,0-10.5h-1.3V173.7c0,0,0.1-5.5-1.4-6.3c-1.5-0.9-184.4,0-184.4,0s-41,1.4-74.3-2.7
			c-29.3-3.7-113.8-5.6-113.8-5.6S79.8,161,79.8,206.5 M97.3,270.3v-10.7l29-30.4l-3.5,36.1L97.3,270.3z M163.5,228
			c0,0-3.4,23.8-5.6,27.2c-2.2,3.4-9.7,5.5-9.7,5.5l-21.9,4.2l3.5-37.9c18.7-4.9,31.7-4.3,33-3.5C164,224.4,163.5,228,163.5,228z
			 M232.1,252.9h-23.6v-35.6h23.6V252.9z M309.9,229.1c0,1.6-1.4,2.8-2.8,2.8h-43.8c-1.6,0-2.8-1.4-2.8-2.8v-17.8
			c0-1.6,1.4-2.6,2.8-2.6h43.8c1.6,0,2.8,1.2,2.8,2.6V229.1z M455.8,240.3c0,2.5-1.7,4.6-3.9,4.6h-62.3c-2.2,0-3.9-2.1-3.9-4.6
			v-28.7c0-2.5,1.7-4.6,3.9-4.6h62.3c2.2,0,3.9,2.2,3.9,4.6V240.3z"/>
	</g>
	<path fill="none" stroke="#000000" stroke-width="0.5274" stroke-miterlimit="10" d="M451.9,206.8h-62.3c-2.2,0-3.9,2.2-3.9,4.6
		v28.8c0,2.5,1.7,4.6,3.9,4.6h62.3c2.2,0,3.9-2.1,3.9-4.6v-28.7C455.8,209,454.1,206.8,451.9,206.8z"/>
	<path fill="#C3BFBE" d="M21.4,301.1c0,0,1.7-9.8,7.8-14.1c6.1-4.3,16.8-5,17.7-2.2c0.9,2.7-11,14.1-13.3,15.6
		c-2.3,1.5-11,5-12.2,3.1C20.8,302.6,21.4,301.1,21.4,301.1z"/>
	<path fill="#C3BFBE" d="M164.4,276.4c0,0.7-0.6,1.4-1.4,1.4h-14.6c-0.7,0-1.4-0.6-1.4-1.4l0,0c0-0.7,0.6-1.4,1.4-1.4H163
		C163.7,275,164.4,275.6,164.4,276.4L164.4,276.4z"/>
	<path fill="none" stroke="#000000" stroke-width="0.5274" stroke-miterlimit="10" d="M205.2,206.1c-2.5,0-4.9,2.8-4.9,6.3v105.9
		c0,3.6,2.4,6.6,4.9,6.6h30.4c2.3,0,4.1-3.1,4.1-6.6V212.5c0-3.6-1.7-6.3-4.1-6.3L205.2,206.1L205.2,206.1z"/>
	<polygon fill="none" points="97.3,259.8 97.3,270.3 122.9,265.5 126.3,229.4 	"/>
	
		<rect x="208.4" y="217.4" fill="none" stroke="#000000" stroke-width="0.5274" stroke-miterlimit="10" width="23.6" height="35.6"/>
	<path fill="none" stroke="#000000" stroke-width="0.5274" stroke-miterlimit="10" d="M307.1,208.5h-43.8c-1.6,0-2.8,1.2-2.8,2.6
		V229c0,1.6,1.4,2.8,2.8,2.8h43.8c1.6,0,2.8-1.4,2.8-2.8v-17.8C309.9,209.7,308.6,208.5,307.1,208.5z"/>
	<polygon fill="none" stroke="#000000" stroke-width="0.5274" stroke-miterlimit="10" points="97.3,259.8 97.3,270.3 122.9,265.5 
		126.3,229.4 	"/>
	<path fill="none" stroke="#000000" stroke-width="0.5274" stroke-miterlimit="10" d="M162.9,223.6c-1.3-0.8-14.3-1.4-33,3.5
		l-3.5,37.9l21.9-4.2c0,0,7.5-2.2,9.7-5.5c2.2-3.4,5.6-27.2,5.6-27.2S164,224.4,162.9,223.6z"/>
</g>
</svg>
