<?xml version="1.0" encoding="utf-8"?>
<!-- Generator: Adobe Illustrator 18.0.0, SVG Export Plug-In . SVG Version: 6.00 Build 0)  -->
<!DOCTYPE svg PUBLIC "-//W3C//DTD SVG 1.1//EN" "http://www.w3.org/Graphics/SVG/1.1/DTD/svg11.dtd">
<svg version="1.1" id="Layer_1" xmlns="http://www.w3.org/2000/svg" xmlns:xlink="http://www.w3.org/1999/xlink" x="0px" y="0px"
	 viewBox="0 0 500 500" enable-background="new 0 0 500 500" xml:space="preserve">
<g>
	<g>
		<path fill="#0B0001" d="M39.5,296l8.5,10.5c0,0,7.5-0.5,10-2.5s59,5.5,59.5,5s19.5-1,21-3c1.5-1.5-9-69-9-69L81,224
			C81.5,225,39,249,39.5,296z"/>
		<path d="M345,298l11,8c0,0,9.5,7.5,13,8.5c3.5,1,69-16,69-16s7.5,0.5,7.5,3.5c0,3,11.5-32,11.5-32l-29-36l-60.5,1.5
			C367,235.5,337.5,277.5,345,298z"/>
		<path fill="#CECECE" d="M462.5,296.5h29c0,0,3-4.5,3-7.5c0-2.5-29.5,0-29.5,0L462.5,296.5z"/>
		<path fill="#27262C" d="M218,152.5c0,0,3-5,10,0c7,5,9,10,6,12c-2.5,2-52.5,31-54,40c-1.5,8.5-35.5,10.5-35.5,10.5l7.5-15.5
			C152,199,204.5,157.5,218,152.5z"/>
		<path fill="#27262C" d="M297.5,167c0,0-9,5.5-8.5,15.5c0.5,10.5,3,14,3,14l13.5,2.5c0,0,2.5-17.5,1-23
			C305.5,171.5,303,167,297.5,167z"/>
		<path fill="#27262C" d="M293.5,197c0,0,0.5-8.5,2.5-9.5c2-1.5,35.5-3,51.5-2s66-5,78,2.5S299,201,293.5,197z"/>
		<path fill="#C3BFBE" d="M483,198c0,0,5,8.5,5,11.5c0,3-2.5,17-3.5,18.5c-7.5,11-26-4-26-4.5C458.5,222.5,457.5,196.5,483,198z"/>
		<path fill="#616161" d="M499,275c-0.5-4.5-1.5-4.5-1.5-4.5l0.5-20c0,0-8.5-6.5-9-9c-0.5-3-4-16.5-4-16.5s-11.5,2.5-13,1
			s-9.5-14-9-17.5c1-3.5,20.5-6.5,20.5-6.5s4-5.5,2-8.5c-2-2.5-4.5,4.5-56.5-4c0,0-123,7.5-132,7.5c-8.3,0-113.4,5-144.4,4.9
			c2.8-3,4.6-6.3,1.9-7.9c-6.5-4-18.5,0-21.5,0.5c-2.5,0.5-20,3.5-20,3.5l0.9,0.3c-23.9,3.5-85.4,14.6-101.4,36.2
			c0,0-7.5,8.5-8,32.5c0,0-3,3.5-1.5,3.5c1,0.5,1.5,4.5,2,7.5c0.5,2,0,10,0,10s-6,9-3.5,11.5c3,1.5,16,6.5,46.5,7.5
			c0,0-8.5-70,42-70s45.5,70.5,45.5,70.5L356,306c0,0-4.5-66.5,44.5-66.5s43.5,64,43.5,64l33.5-6.5c0,0,13,0,19.5-18
			C497,279,499.5,279.5,499,275z"/>
		<path fill="#27262C" d="M376,187.5c0,0,5-11-4-12.5s-19.5,14-19.5,14C352,190,376,187.5,376,187.5z"/>
		<path fill="#C3BFBE" d="M11.5,245c0,0-0.5-12,10.5-14c11.5-2.5,23.5-4.5,24-1.5c0.5,2.5-11,18-20,18.5s-6-2.5-8.5-2.5
			C15.5,245,11.5,246.5,11.5,245z"/>
		<path fill="#151616" d="M8.5,279c0,0-1-5,0-5.5c1-1,10-2.5,11.5,0.5c2,3,5,10.5,5,14s0,6-3,6c-3-0.5-12.5,0.5-13-2
			c-0.5-3,1-7.5,0-9c0,0-3,0.5-3.5-0.5c0-1.5,0-3.5,1-3.5C7,279,8.5,279,8.5,279z"/>
		<path fill="#C3BFBE" d="M298,223c0,1-1,2.5-2,2.5h-22c-1,0-2-1-2-2.5l0,0c0-1,1-2.5,2-2.5h22C297,221,298,222,298,223L298,223z"/>
		<path fill="#C2C0C1" d="M191,189.5c-1.5-8-5.5-6.5-5.5-6.5s-14,4-14,12.5l0,0v0.5c0,1.5,1,3,2,3.5c0.5,1.5,0.5,3,0.5,3.5
			c-0.5,1-1,5,3.5,6c4.5,1,6-2,6-3.5c0-1-0.5-2.5-0.5-3.5c3,0,5-0.5,5-0.5s3.5-3,3.5-9C191.5,192,191.5,191,191,189.5z"/>
		<g>
			<g>
				<path fill="#27262C" d="M131,289.5c0,25.5-17.5,46-39.5,46S52,315,52,289.5c0-25.5,17.5-46,39.5-46S131,264,131,289.5z"/>
				<path fill="#C3BFBE" d="M61.5,289.5c0,19,13.5,34.5,30,34.5s30-15.5,30-34.5c0-19-13.5-34.5-30-34.5S61.5,270,61.5,289.5z"/>
				<g>
					<path fill="#27262C" d="M81,266l7,9.5c0,0,1,2,3,2c1.5,0,3-1.5,3-1.5l7-10c0,0,1-1.5,0-2.5c-1-1-4.5-2.5-9.5-2.5
						C86.5,261.5,79.5,263,81,266z"/>
					<path fill="#27262C" d="M81,312.5l7-9.5c0,0,1-2,3-2c1.5,0,3,1.5,3,1.5l7,10c0,0,1,1.5,0,2c-1,1-4.5,2.5-9.5,2.5
						C86.5,318,79.5,316.5,81,312.5z"/>
					<path fill="#27262C" d="M111.5,278l-8,8.5c0,0-2,1.5-2,3c0,2,1.5,3,1.5,3l8.5,8.5c0,0,1,1,2,0c1-1,2-5,2-11
						C115.5,284,114.5,276,111.5,278z"/>
					<path fill="#27262C" d="M71.5,278l8,8.5c0,0,2,1.5,2,3c0,2-1.5,3-1.5,3l-8.5,8.5c0,0-1,1-2,0c-1-1-2-5-2-11
						C67.5,284,69,276,71.5,278z"/>
				</g>
			</g>
		</g>
		<g>
			<g>
				<path fill="#27262C" d="M439.5,289.5c0,25.5-17.5,46-39.5,46s-39.5-20.5-39.5-46c0-25.5,17.5-46,39.5-46
					C422,243,439.5,264,439.5,289.5z"/>
				<path fill="#C3BFBE" d="M370.5,289.5c0,19,13.5,34.5,30,34.5c16.5,0,30-15.5,30-34.5c0-19-13.5-34.5-30-34.5
					C384,255,370.5,270,370.5,289.5z"/>
				<g>
					<path fill="#27262C" d="M390,266l7,9.5c0,0,1,2,3,2c1.5,0,3-1.5,3-1.5l7-10c0,0,1-1.5,0-2.5s-4.5-2.5-9.5-2.5
						C395.5,261.5,388,263,390,266z"/>
					<path fill="#27262C" d="M390,312.5l7-9.5c0,0,1-2,3-2c1.5,0,3,1.5,3,1.5l7,10c0,0,1,1.5,0,2c-1,0.5-4.5,2.5-9.5,2.5
						C395.5,318,388,316.5,390,312.5z"/>
					<path fill="#27262C" d="M420.5,278l-8,8.5c0,0-2,1.5-2,3c0,2,1.5,3,1.5,3l8.5,8.5c0,0,1,1,2,0c1-1,2-5,2-11
						C424.5,284,423,276,420.5,278z"/>
					<path fill="#27262C" d="M380.5,278l8,8.5c0,0,2,1.5,2,3c0,2-1.5,3-1.5,3l-8.5,9c0,0-1,1-2,0s-2-5-2-11S378,276,380.5,278z"/>
				</g>
			</g>
		</g>
		<path fill="#C2C0C1" d="M144.5,202c0,0,46.5-42.5,75.5-53.5c0,0,4,2.5,3,4c-1,1.5-22,8-67.5,46.5c0,0,66-2.5,142-5
			s135-13,135.5-4.5C433.5,198.5,145.5,208.5,144.5,202z"/>
	</g>
</g>
</svg>
