<?xml version="1.0" encoding="utf-8"?>
<!-- Generator: Adobe Illustrator 18.0.0, SVG Export Plug-In . SVG Version: 6.00 Build 0)  -->
<!DOCTYPE svg PUBLIC "-//W3C//DTD SVG 1.1//EN" "http://www.w3.org/Graphics/SVG/1.1/DTD/svg11.dtd">
<svg version="1.1" id="Layer_1" xmlns="http://www.w3.org/2000/svg" xmlns:xlink="http://www.w3.org/1999/xlink" x="0px" y="0px"
	 viewBox="0 0 500 500" enable-background="new 0 0 500 500" xml:space="preserve">
<g>
	<g>
		<g>
			<path d="M345.5,185.5c0,0,7-6.5,9-7c1.5-0.5,3-1,3,0.5c0,1.5-3,6.5-2.5,8.5S345.5,185.5,345.5,185.5z"/>
			<path d="M444,323l-9.5,10l-15,1l-72-1.5l-213-2.5l-6.5,2.5c0,0-5.5-0.5-9,0c-3.5,0.5-62.5,1-62.5,1s-4.5,1-8,3.5L40,316l7.5-51
				c0,0,25.5-12.5,27.5-13c2-0.5,40-1.5,40-1.5l65.5,7.5l197-13.5l61,2L444,323z"/>
			<path fill="#27262C" d="M493,303c0,0-1.5,4-1,6c0,1,3,3,3,5.5s-3,8.5-6,9c0,0-1,6-4,6c-3,0-28.5,1.5-28.5,1.5S483.5,299,493,303z
				"/>
			<path fill="#C3BFBE" d="M461.5,239H483l1.5,1c0,0,7.5,6.5,1.5,21C480.5,276.5,452,260.5,461.5,239z"/>
			<g>
				<path fill="#616161" d="M498,281c0-4-6-6-8-7.5s-3.5-13.5-3.5-13.5s-21.5,1-23-0.5s-4-10.5-3.5-14c0.5-3,24-4.5,24-4.5l3,3.5
					c0.5-2.5-3-8.5-4-9.5c-0.5-1,0-5.5-0.5-8c0-2.5-17-1.5-20.5-2c-3.5-0.5-18-5-18-5l0,0c-30.5-18-74.5-30-74.5-30s-25-8-69.5-11
					c-43.5-3-78.5,3.5-79.5,5.5l0,0c-16,4.5-50,26.5-60.5,32.5c-5.5,3-11.5,8-15.5,11.5c-4.5,0.5-7,0-9,0.5c-0.5,0-2,0-2,0
					c-41,2-86.5,11.5-105.5,20S9,269,5.5,279c-3,9.5-1.5,41-1.5,41c-2.5,1.5-2,3.5-2,3.5c1,10,46.5,13.5,46.5,13.5
					s-13.5-71.5,38-71.5c52.5,0,41,67,41,67l222.5,0c0,0-2.5-68.5,41-66.5c49.5-0.5,43.5,67,43.5,67s16-1,25.5-3.5
					c10-2.5,15.5-11.5,20-18.5c5-7,12-6,12-6C498.5,303.5,498,285.5,498,281z M376,228l-79.5,4.5h-4c-34.5,0-129.5,3-129.5,3h-5
					c25.5-25,55-39.5,81.5-46c26-7,81-1,98,3.5c17,4.5,43.5,29,43.5,31.5S376,228,376,228z"/>
				<path d="M289.5,230h-3h6.5C290.5,230,289.5,230,289.5,230z"/>
				<path d="M339,192.5c-17-4.5-74-11-100-4c-26.5,6.5-58.5,23-83.5,48h7.5c0,0,81.5-1,115.5-1l17.5-1l43.5-2c0,0,50-2.5,46.5-7
					C384.5,224,356,197.5,339,192.5z M290,227c-2.5,1-104,2.5-104,2.5l5-1.5c0,0,30.5-24,54-29c24-4.5,51-2,51-2S292,226,290,227z
					 M361,224.5l-53.5,2l3.5-29c31-1.5,55.5,22.5,55.5,25C366,224.5,361,224.5,361,224.5z"/>
			</g>
			<path fill="#C3BFBE" d="M189,214c-7.5,3-8.5,7.5-9.5,12c0,0-4-1-4.5,0.5c0,1,0.5,3,1.5,4c0.5,1,1.5,1.5,2.5,2c2.5,1,5.5,1,7,1
				c2,0,7.5-0.5,9.5-1c1.5-0.5,4.5-3,5-7c0-1,0-2,0-3C199,217,196,211,189,214z"/>
			<path fill="#C3BFBE" d="M18,260c0,0-5.5,2-8,11.5s0.5,7.5,2,7c1-0.5,18.5-2.5,21-2.5c2.5-0.5,2.5-3,3-4c0.5-1.5,8-11,6-13.5
				C40,256,21.5,258.5,18,260z"/>
			<path fill="#151616" d="M6,299c0,0,0.5,14.5,1.5,17s3.5,4,8,4.5c4,0.5,11.5,1,12-4.5c0.5-6.5,1.5-18,1.5-18S5.5,297.5,6,299z"/>
			<g>
				<ellipse fill="#27262C" cx="87.5" cy="313" rx="36" ry="42"/>
				<path fill="#C3BFBE" d="M61,313c0,17.5,12,31.5,27,31.5s27-14,27-31.5s-12-31.5-27-31.5C73,281,61,295.5,61,313z"/>
				<g>
					<path fill="#27262C" d="M78.5,291.5L85,300c0,0,1,2,2.5,2s2.5-1.5,2.5-1.5l6.5-9.5c0,0,1-1,0-2c-1-1-4-2-8.5-2
						C83.5,287,77,288.5,78.5,291.5z"/>
					<path fill="#27262C" d="M78.5,334l6.5-8.5c0,0,1-2,2.5-2S90,325,90,325l6.5,9c0,0,1,1,0,2c-1,1-4,2-8.5,2
						C83.5,338.5,77,337,78.5,334z"/>
					<path fill="#27262C" d="M106,302l-7,7.5c0,0-1.5,1-1.5,3c0,1.5,1,3,1,3l7.5,8c0,0,1,1,2,0c0.5-1,2-4.5,2-10
						C109.5,308,108.5,300,106,302z"/>
					<path fill="#27262C" d="M70,302l7,7.5c0,0,1.5,1,1.5,3s-1,3-1,3L70,324c0,0-1,1-2,0c-1-1-2-4.5-2-10C66,308,67.5,300,70,302z"
						/>
				</g>
			</g>
			<g>
				<ellipse fill="#27262C" cx="392.5" cy="312" rx="36" ry="42"/>
				<path fill="#C3BFBE" d="M366,312c0,17.5,12,31.5,27,31.5s27-14,27-31.5c0-17.5-12-31.5-27-31.5C377.5,280.5,366,295,366,312z"/>
				<g>
					<path fill="#27262C" d="M383,291l6,8.5c0,0,1,2,2.5,2c1.5,0,2.5-1.5,2.5-1.5l6.5-9c0,0,1-1,0-2c-1-1-4-2-8.5-2
						C388,287,381.5,288,383,291z"/>
					<path fill="#27262C" d="M383,334l6-8.5c0,0,1-2,2.5-2c1.5,0,2.5,1.5,2.5,1.5l6.5,9c0,0,1,1,0,2c-1,1-4,2-8.5,2
						C388,338,381.5,336.5,383,334z"/>
					<path fill="#27262C" d="M411,301.5l-7,7.5c0,0-1.5,1-1.5,3c0,1.5,1,3,1,3l7.5,8c0,0,1,1,2,0c1-1,2-4.5,2-10
						C414.5,307.5,413.5,299.5,411,301.5z"/>
					<path fill="#27262C" d="M374.5,301.5l7,7.5c0,0,1.5,1,1.5,3c0,1.5-1,3-1,3l-7.5,7.5c0,0-1,1-2,0c-1-1-2-4.5-2-10
						C371,307.5,372.5,299.5,374.5,301.5z"/>
				</g>
			</g>
		</g>
	</g>
	<path fill="#C3BFBE" d="M301,254c0,2,0,2-1.5,2H282c-1.5,0-1.5,0-1.5-2l0,0c0-2,0-2,1.5-2h17.5C301,251.5,301,251.5,301,254
		L301,254z"/>
</g>
</svg>
