<?xml version="1.0" encoding="utf-8"?>
<!-- Generator: Adobe Illustrator 18.0.0, SVG Export Plug-In . SVG Version: 6.00 Build 0)  -->
<!DOCTYPE svg PUBLIC "-//W3C//DTD SVG 1.1//EN" "http://www.w3.org/Graphics/SVG/1.1/DTD/svg11.dtd">
<svg version="1.1" id="Layer_1" xmlns="http://www.w3.org/2000/svg" xmlns:xlink="http://www.w3.org/1999/xlink" x="0px" y="0px"
	 viewBox="0 0 500 500" enable-background="new 0 0 500 500" xml:space="preserve">
<g>
	<g>
		<path fill="#616161" d="M196.1,500c-76.9,0-140.4-63.5-140.4-140.4s63.4-140.4,140.4-140.4s140.4,63.5,140.4,140.4
			S275,500,196.1,500z M196.1,236.6C128.8,236.6,73,292.3,73,359.6s55.7,121.1,123.1,121.1S319.2,425,319.2,357.7
			C319.2,292.3,263.5,236.6,196.1,236.6z"/>
	</g>
	<path fill="#616161" d="M111.6,0C65.4,0,26.9,38.5,26.9,86.6s38.4,86.6,84.6,86.6c48.1,0,86.6-38.4,86.6-86.6S159.6,0,111.6,0z
		 M111.6,113.4c-15.4,0-26.9-11.6-26.9-26.9s11.6-26.9,26.9-26.9s26.9,11.6,26.9,26.9C140.4,101.9,126.9,113.4,111.6,113.4z"/>
	<path fill="#616161" d="M415.4,136.6c-32.7,0-57.7,26.9-57.7,57.7s26.9,57.7,57.7,57.7c32.7,0,57.7-26.9,57.7-57.7
		S448.1,136.6,415.4,136.6z M415.4,217.3c-11.5,0-23.1-9.6-23.1-23.1s11.5-21.1,23.1-21.1c11.5,0,23.1,9.6,23.1,23.1
		S426.9,217.3,415.4,217.3z"/>
	<path fill="#616161" d="M196.1,246.1c-61.6,0-111.6,50-111.6,111.6s50,111.5,111.6,111.5s111.6-50,111.6-111.5
		S259.6,246.1,196.1,246.1z M196.1,401.9c-25,0-44.2-19.2-44.2-44.2s19.2-44.2,44.2-44.2s44.2,19.2,44.2,44.2
		C240.4,382.7,221.1,401.9,196.1,401.9z"/>
	<path fill="#616161" d="M53.8,161.6c-11.5-7.7-19.2-19.2-26.9-30.8l21.1,188.4c3.8-15.4,9.6-28.9,19.2-42.3L53.8,161.6z"/>
	<path fill="#616161" d="M378.9,134.6c9.6-5.8,21.1-9.6,34.6-9.6L180.8,21.1c9.6,9.6,17.3,21.1,21.1,34.6L378.9,134.6z"/>
	<path fill="#616161" d="M415.4,267.3c-1.9,0-1.9,0-3.9,0L350,353.9c0,1.9,0,3.9,0,5.8c0,13.5-1.9,28.9-5.8,42.3l101.9-140.4
		C436.5,263.5,426.9,267.3,415.4,267.3z"/>
</g>
</svg>
