<?xml version="1.0" encoding="utf-8"?>
<!-- Generator: Adobe Illustrator 18.0.0, SVG Export Plug-In . SVG Version: 6.00 Build 0)  -->
<!DOCTYPE svg PUBLIC "-//W3C//DTD SVG 1.1//EN" "http://www.w3.org/Graphics/SVG/1.1/DTD/svg11.dtd">
<svg version="1.1" id="Layer_1" xmlns="http://www.w3.org/2000/svg" xmlns:xlink="http://www.w3.org/1999/xlink" x="0px" y="0px"
	 viewBox="0 0 500 500" enable-background="new 0 0 500 500" xml:space="preserve">
<g>
	<path fill="#616161" d="M494.2,250c0,134.6-109.6,244.2-244.2,244.2S5.8,384.6,5.8,250S115.4,5.8,250,5.8S494.2,115.4,494.2,250z"
		/>
	<g>
		<path fill="#FFFFFF" d="M167.3,123.1v-5.8c1.9-1.9,5.8-1.9,5.8-1.9c1.9,0,3.9,0,5.8-1.9c0,0,1.9-1.9,1.9-3.8v-1.9h7.7v50h-9.6
			v-34.6L167.3,123.1L167.3,123.1L167.3,123.1z"/>
	</g>
	<g>
		<path fill="#FFFFFF" d="M171.1,396.1c1.9-3.9,3.9-7.7,9.6-9.6c3.9-3.9,7.7-5.8,9.6-7.7c1.9-1.9,3.9-3.9,3.9-7.7
			c0-1.9,0-3.9-1.9-5.8s-3.9,0-7.7,0s-5.8,1.9-5.8,3.9c0,1.9-1.9,3.9-1.9,5.8h-7.7c0-3.9,0-7.7,1.9-9.6c1.9-5.8,7.7-7.7,13.4-7.7
			s9.6,1.9,13.4,3.9c3.9,3.9,3.9,7.7,3.9,11.5c0,3.9-1.9,7.7-3.9,9.6c-1.9,1.9-3.9,3.9-7.7,5.8l-3.9,1.9c-1.9,1.9-3.9,3.9-5.8,3.9
			s-1.9,1.9-1.9,1.9H200v7.7h-32.7C167.3,401.9,169.2,400,171.1,396.1z"/>
	</g>
	<g>
		<path fill="#FFFFFF" d="M275,140.4c0,1.9,0,3.9,0,5.8c1.9,1.9,3.9,3.9,5.8,3.9s3.9,0,5.8-1.9s1.9-3.9,1.9-5.8
			c0-3.9-1.9-5.8-3.9-5.8c-1.9,0-3.9,0-7.7,0V127c3.9,0,5.8,0,5.8,0c5.8-1.9,5.8-3.8,5.8-5.8s0-3.8-1.9-3.8
			c-1.9-1.9-1.9-1.9-3.9-1.9s-3.9,0-5.8,1.9s-1.9,3.8-1.9,5.8h-9.6c0-1.9,0-3.8,1.9-7.7c0-1.9,1.9-3.8,3.9-5.8
			c1.9-1.9,1.9-1.9,3.9-1.9c1.9,0,3.9,0,5.8,0c3.9,0,7.7,1.9,11.5,3.8c3.9,1.9,3.9,5.8,3.9,9.6s0,5.8-1.9,7.7
			c-1.9,1.9-1.9,1.9-3.9,1.9c0,0,1.9,0,3.9,1.9c1.9,1.9,3.9,5.8,3.9,9.6s-1.9,7.7-3.9,11.6c-3.9,3.9-7.7,3.9-13.5,3.9
			c-7.7,0-11.5-1.9-15.4-7.7c-1.9-1.9-1.9-5.8-1.9-9.6L275,140.4L275,140.4z"/>
	</g>
	<g>
		<path fill="#FFFFFF" d="M300,394.2h-5.8v11.5h-9.6v-11.5h-19.2v-7.7l19.2-30.8h11.5v30.8h5.8v7.7H300z M284.6,386.5v-21.1
			l-13.5,21.1H284.6z"/>
	</g>
	<g>
		<path fill="#FFFFFF" d="M371.1,142.3c0,1.9,1.9,3.9,1.9,5.8c1.9,1.9,1.9,1.9,3.9,1.9c1.9,0,3.9,0,5.8-1.9s1.9-3.9,1.9-5.8
			s0-7.7,0-7.7c-1.9-1.9-3.9-1.9-5.8-1.9s-1.9,0-3.9,0s-1.9,1.9-3.9,3.9h-9.6l3.9-26.9h26.9v5.8h-21.1l-1.9,11.6
			c1.9-1.9,1.9-1.9,3.9-1.9c1.9,0,3.9,0,5.8,0c3.9,0,7.7,1.9,11.5,3.9c3.9,1.9,3.9,7.7,3.9,11.6s-1.9,9.6-3.9,11.6
			c-3.9,3.9-7.7,5.8-13.5,5.8c-3.9,0-7.7-1.9-11.5-3.9c-3.9-1.9-3.9-5.8-5.8-11.6C361.5,142.3,371.1,142.3,371.1,142.3z"/>
	</g>
	<g>
		<path fill="#FFFFFF" d="M119.2,107.7c1.9,0,3.8,1.9,3.8,3.8c1.9,1.9,1.9,3.8,1.9,5.8s0,3.8,0,5.8s0,3.8-1.9,7.7s-1.9,1.9-3.8,3.9
			c1.9,0,3.8,1.9,5.8,3.9c1.9,1.9,1.9,3.9,1.9,7.7v3.9c0,1.9,0,3.9,0,3.9c0,1.9,0,1.9,1.9,1.9v1.9h-13.4c0-1.9,0-1.9,0-1.9
			c0-1.9,0-3.9,0-3.9v-5.8c0-3.9,0-5.8-1.9-5.8c-1.9-1.9-3.8-1.9-5.8-1.9H96.2v19.2h-9.6v-50h25
			C113.4,107.7,117.3,107.7,119.2,107.7z M96.2,115.4v13.5h11.6c1.9,0,3.8,0,5.8,0c1.9-1.9,1.9-3.8,1.9-5.8c0-3.8,0-5.8-1.9-5.8
			c-1.9-1.9-1.9-1.9-5.8-1.9L96.2,115.4L96.2,115.4z"/>
	</g>
	<path fill="#FFFFFF" d="M380.8,175c-7.7,0-13.5,5.8-13.5,13.4v51.9h-69.2v-51.9c0-7.7-5.8-13.4-13.5-13.4s-15.4,7.7-15.4,13.4v51.9
		h-71.1v-51.9c0-7.7-5.8-13.4-13.4-13.4s-11.6,7.7-11.6,13.4v53.8h-57.7v-51.9c0-7.7-5.8-13.4-13.4-13.4s-13.5,5.8-13.5,13.4v65.4
		c0,7.7,5.8,13.5,13.4,13.5h71.2v50c0,7.7,5.8,13.5,13.4,13.5S200,327,200,319.2v-50h69.2v50c0,7.7,5.8,13.5,13.5,13.5
		s13.5-5.8,13.5-13.5v-52h69.2v51.9c0,7.7,5.8,13.5,13.5,13.5s13.5-5.8,13.5-13.5V188.4C394.2,182.7,386.5,175,380.8,175z"/>
	<g>
		<path fill="#FFFFFF" d="M390.4,367.3v-1.9c-1.9-1.9-1.9-1.9-3.9-1.9c-3.9,0-5.8,1.9-7.7,5.8c0,1.9-1.9,5.8-1.9,9.6
			c1.9-1.9,1.9-1.9,3.9-3.9c1.9,0,3.9-1.9,5.8-1.9c3.9,0,7.7,1.9,11.5,3.9c1.9,3.9,3.9,7.7,3.9,11.5s-1.9,9.6-3.9,11.5
			c-1.9,3.9-7.7,5.8-13.5,5.8s-11.5-1.9-13.5-7.7c-1.9-3.9-3.9-9.6-3.9-15.4c0-3.9,0-7.7,0-9.6c0-3.9,1.9-7.7,3.9-9.6
			c1.9-1.9,3.9-3.9,5.8-5.8s5.8-1.9,7.7-1.9c3.9,0,7.7,1.9,11.5,3.9c1.9,1.9,3.9,5.8,3.9,9.6C400,367.3,390.4,367.3,390.4,367.3z
			 M378.9,396.1c1.9,1.9,3.9,1.9,5.8,1.9s3.9,0,5.8-1.9s1.9-3.9,1.9-5.8c0-3.9,0-5.8-1.9-5.8c-1.9-1.9-3.9-1.9-5.8-1.9
			s-3.9,0-3.9,1.9c-1.9,1.9-1.9,3.9-1.9,7.7C376.9,392.3,376.9,394.2,378.9,396.1z"/>
	</g>
</g>
</svg>
