<?xml version="1.0" encoding="utf-8"?>
<!-- Generator: Adobe Illustrator 18.0.0, SVG Export Plug-In . SVG Version: 6.00 Build 0)  -->
<!DOCTYPE svg PUBLIC "-//W3C//DTD SVG 1.1//EN" "http://www.w3.org/Graphics/SVG/1.1/DTD/svg11.dtd">
<svg version="1.1" id="Layer_1" xmlns="http://www.w3.org/2000/svg" xmlns:xlink="http://www.w3.org/1999/xlink" x="0px" y="0px"
	 viewBox="0 0 500 500" enable-background="new 0 0 500 500" xml:space="preserve">
<g>
	<g>
		<path fill="#000308" d="M132.3,236.7l7.8-1.7c0,0,4.3-5.1,6.4-4.7c2.1,0.4,4.4,0.8,3.2,2.1c-1.2,1.3-2.4,7.7-6.4,9.5
			C139.3,243.9,129.6,242.4,132.3,236.7z"/>
		<path fill="#000308" d="M49.1,325.8l9.6,11.9c0,0,3.2,0.9,6.9-2.9c3.6-3.8,61.8,4.3,61.8,4.3s12.1,0,19.3,0c7.3,0,188-8.4,188-8.4
			l28,7c0,0,10-2.3,14.9-1.4c4.8,0.9,59.4-1.8,59.4-1.8s15.7,2.9,18.1-2.1c2.5-5,20.5-69.9-27.9-70.9s-268.4,37.9-268.4,37.9
			L101,263.8l-50.2,16.3L49.1,325.8z"/>
		<path fill="#616161" d="M494,269.4c0,0,0.8-3,0-7.5s-2.6-18.9-4.5-22.8c-2.1-4-3.5-4.4-3.5-4.4l0,0c-8.4-12.9-42-40.9-44.6-42.6
			c-1.2-0.7-2.1-1.3-2.8-1.8c1-3-15.4-4.1-15.4-4.1c-5.8-0.7-79.6-7.2-122.7-7.5c-35.8-0.3-64.9,7-74.8,10.2l0,0
			c0,0-25.7,7.4-80,46.3l-0.9,5.1c-3.8,0.2-8.3,0-10.5-1c-3.7-1.7,4.4-3.8,4.4-3.8s-20.4-0.2-72,12.8c-51.5,13-57.1,27-57.8,29.9
			c-0.8,3-1.8,7.7-1.8,7.7c-0.8,4-0.3,17-0.5,18.4s0.1,2.5,0.1,2.5c-0.1,0.5-0.1,1-0.1,1.5c0,5.6,3.4,9.3,3.6,11.1
			c0.2,1.7-1.4,2.4-2.3,3.7c-0.2,0.2-0.3,0.5-0.5,0.7c-0.9,1.9,1.6,2.8,1.6,2.8c8.3,5.9,49.7,11.1,49.7,11.1
			c-5-14.1-5.1-61.6,39.5-62c44.6-0.3,45.4,63.3,45.4,63.3l219.1-1.4c-2.7-8.5-8.1-59.7,41.8-59.6s46.2,57,46.2,57h0.6
			c5.7,0,17.1-3.6,20.9-4.2c3.8-0.7,16.3-7.9,20.7-10.6s3.2-18,3.2-20s-2.3-9-1.8-11.8 M298.2,237.6L189,241.7l2-17.8
			c16.7-13.8,23.8-16.4,43.4-25.6s77.5-6.4,77.5-6.4L298.2,237.6z M404.1,234.3c-1.2,1.1-35.5,2.2-35.5,2.2s-43.4,1.9-44.9,1
			s0-10.7,0-10.7l8.3-35.9c3.5-0.7,33.7,3,49.5,6.5c15.9,3.5,23.6,14.3,26.4,19.2C410.8,221.5,405.3,233.2,404.1,234.3z"/>
		<path fill="none" stroke="#000000" stroke-width="2.2629" stroke-miterlimit="10" d="M234.2,198.4c-19.6,9.2-26.7,11.8-43.4,25.6
			l-2,17.8l109.2-4.1l14.5-46.7C312.6,190.9,253.9,189.2,234.2,198.4z"/>
		<path fill="none" stroke="#000000" stroke-width="2.5051" stroke-miterlimit="10" d="M381.6,197.5c-15.9-4.3-46-7.3-49.5-6.5
			l-8.3,39.9c0,0-1.5,5.5,0,6.6s46.8-1.3,46.8-1.3s32.4-0.8,33.6-2.2c1.2-1.3,5.7-7.6,5.9-14.7C410.2,212.7,397.5,201.8,381.6,197.5
			z"/>
		<path fill="#C3BFBE" d="M10.7,284c0,0,0.4-5.5,6.6-9.1c6.5-3.8,9.9-4.1,12.2-2.7s5.4,5.8,5.6,8.3c0.2,2.5,1,7.7-4.4,7.8
			C25.2,288.4,11.6,291.1,10.7,284z"/>
		<path fill="#C3BFBE" d="M448,250.8c0,0,5.9-7.2,17.2-7.1c11.3,0.1,23.2,3.1,23,11.1c-0.2,8-16.5,5.5-16.5,5.5
			S443.8,257.8,448,250.8z"/>
		<path fill="#C3BFBE" d="M181,239.6c0,0-3.7-6.3,5.6-11.6c9.3-5.3,9.3,2.8,9.4,4.5c0.1,1.7,0.5,8-2.6,8.6
			C190.5,241.7,181.8,242.4,181,239.6z"/>
		<g>
			<ellipse fill="#27262C" cx="404.9" cy="320.9" rx="36.2" ry="37.9"/>
			<ellipse fill="#C3BFBE" cx="404.9" cy="320.9" rx="27.4" ry="28.6"/>
			<g>
				<path fill="#27262C" d="M395.5,301.7l6.3,7.5c0,0,1.1,1.8,2.6,1.8s2.6-1.3,2.6-1.3l6.6-8.1c0,0,0.9-1.1,0-1.9s-4.1-1.9-8.6-1.9
					S393.8,299.1,395.5,301.7z"/>
				<path fill="#27262C" d="M395.5,340.1l6.3-7.5c0,0,1.1-1.8,2.6-1.8s2.6,1.3,2.6,1.3l6.6,8.1c0,0,0.9,1.1,0,1.9s-4.1,1.9-8.6,1.9
					C400.5,343.9,393.8,342.7,395.5,340.1z"/>
				<path fill="#27262C" d="M423.6,311.3l-7.2,6.6c0,0-1.8,1.1-1.8,2.7s1.2,2.7,1.2,2.7l7.8,6.9c0,0,1.1,1,1.9,0s1.9-4.3,1.9-9
					C427.2,316.5,426,309.6,423.6,311.3z"/>
				<path fill="#27262C" d="M386.9,311.3l7.2,6.6c0,0,1.8,1.1,1.8,2.7s-1.2,2.7-1.2,2.7l-7.8,6.9c0,0-1.1,1-1.9,0s-1.9-4.3-1.9-9
					C383.1,316.5,384.4,309.6,386.9,311.3z"/>
			</g>
		</g>
		<g>
			<ellipse fill="#27262C" cx="97.6" cy="320.9" rx="36.2" ry="37.9"/>
			<ellipse fill="#C3BFBE" cx="97.6" cy="320.9" rx="27.4" ry="28.6"/>
			<g>
				<path fill="#27262C" d="M88.2,301.7l6.3,7.5c0,0,1.1,1.8,2.6,1.8s2.6-1.3,2.6-1.3l6.6-8.1c0,0,0.9-1.1,0-1.9s-4.1-1.9-8.6-1.9
					S86.5,299.1,88.2,301.7z"/>
				<path fill="#27262C" d="M88.2,340.1l6.3-7.5c0,0,1.1-1.8,2.6-1.8s2.6,1.3,2.6,1.3l6.6,8.1c0,0,0.9,1.1,0,1.9s-4.1,1.9-8.6,1.9
					C93.2,343.9,86.5,342.7,88.2,340.1z"/>
				<path fill="#27262C" d="M116.3,311.3l-7.2,6.6c0,0-1.8,1.1-1.8,2.7s1.2,2.7,1.2,2.7l7.8,6.9c0,0,1.1,1,1.9,0s1.9-4.3,1.9-9
					C119.9,316.5,118.7,309.6,116.3,311.3z"/>
				<path fill="#27262C" d="M79.5,311.3l7.2,6.6c0,0,1.8,1.1,1.8,2.7s-1.2,2.7-1.2,2.7l-7.8,6.9c0,0-1.1,1-1.9,0s-1.9-4.3-1.9-9
					C75.8,316.5,77.1,309.6,79.5,311.3z"/>
			</g>
		</g>
	</g>
	<path fill="#C3BFBE" d="M279.2,252.1h17.5v4C296.7,256.2,279.2,260.1,279.2,252.1z"/>
	<path fill="#C3BFBE" d="M388.1,252.1h17.5v4C405.6,256.2,388.1,260.1,388.1,252.1z"/>
</g>
</svg>
