<?xml version="1.0" encoding="utf-8"?>
<!-- Generator: Adobe Illustrator 18.0.0, SVG Export Plug-In . SVG Version: 6.00 Build 0)  -->
<!DOCTYPE svg PUBLIC "-//W3C//DTD SVG 1.1//EN" "http://www.w3.org/Graphics/SVG/1.1/DTD/svg11.dtd">
<svg version="1.1" id="Layer_1" xmlns="http://www.w3.org/2000/svg" xmlns:xlink="http://www.w3.org/1999/xlink" x="0px" y="0px"
	 viewBox="0 0 500 500" enable-background="new 0 0 500 500" xml:space="preserve">
<g>
	<g>
		<g>
			<path fill="#27262C" d="M424.6,240.4c-1.7-2.1-3.9-6-3.9-9.8c0-3.2,0-4.9,0-8.2c-7.3-20.1-20.7-52.9-20.7-52.9l-16.8,64.8l0,0
				l-1.7,6c0,0,37.4,31.1,40.8,27.3C424.6,263.7,426.3,254,424.6,240.4z"/>
			<path fill="#C3BFBE" d="M424.6,234.9v-1.7c0-3.8-1.7-5.5-3.9-10.8c0,1.7,0,5.5,0,9.3v1.7c0,3.8,2.2,6.5,3.9,8.7
				C424.6,237.7,424.6,236.6,424.6,234.9z"/>
		</g>
		<path fill="#09070A" d="M325.7,328c0,0,12.9-0.6,12.9,1.1c0,0,3.9,13.1,12.9,15.2c7.3,1.7,71-14.8,71-14.8s9.5-1.7,11.2-1.7
			c0,0,5.6-10.8,0-25.6s-26.3-34.2-52-27C355.3,277.4,327.4,282.8,325.7,328z"/>
		<path fill="#09070A" d="M63.1,316.6l1.7,23.5c0,0,5.6,0,9.5,0c1.7,0,79.9,3.8,79.9,3.8s3.9-3.8,5.6-5.5c1.7-1.7,5.6-1.7,5.6-1.7
			l15.1-34.9l-71-27.3C109.5,274.7,59.2,285.5,63.1,316.6z"/>
		<path fill="#C3BFBE" d="M107.8,232.8l-27.9,14.6c0,0-6.7,8.7-9.5,16.3c0,0-7.3,20.7-3.4,22.4c5.6,1.7,67.1-40.3,67.1-40.3
			S126.2,229.5,107.8,232.8z"/>
		<g>
			<path fill="#616161" d="M431.9,269.2c-5.6-5.5-27.9-28.8-27.9-34.3c0-5.5,0-58.2,0-61.6c0-3.8,3.4-14.1-0.5-14.1
				c-3.4,0-92.7-0.3-140.2,4c-4.3-0.9-8.4,1.2-14.1,2.6c-34.5,8.2-99.3,47.1-114.2,56.3c-5.4,0.2-10.8,0.7-13.7,2
				c-9.5,3.2-41.3,23.5-41.3,23.5s31.8-12.5,37.4-10.8c3.9,1.7,7.3,3.8,7.3,3.8l-31.8,21.8l-16.8,7c0,0-7.3,3.8-9.5,7
				c0,3.8-5.6,14.8-5.6,21.8c0,7,0,21.8,0,28.8s1.7,18,7.3,16.3c0,0-9.5-58.2,48.6-58.2c39.1,0,46.4,34.3,48.6,50.6l173.2-7
				c3.9-18,15.1-47.4,55.9-43.6c43,3.8,43,38.7,35.2,42.5c-3.4,0.3,7.8,6.9,7.8-11.1C437.4,298.6,437.4,273,431.9,269.2z"/>
			<path fill="#FFFFFF" stroke="#27262C" stroke-width="0.8273" stroke-miterlimit="10" d="M167.6,236.6l184.4-18
				c0,0,12.9-36.4,3.9-41.9c-8.9-5.5-35.8-5.5-35.8-5.5s-23.8,0-46.4,2.5c-12.5,1.4-24.5,3.5-31.9,6.8
				C221.2,189.8,165.3,211,167.6,236.6z"/>
		</g>
		<ellipse fill="#27262C" cx="385.5" cy="334.6" rx="43" ry="41.9"/>
		<g>
			<path fill="#27262C" d="M113.4,292.7c-24,0-43,18-43,41.9c0,23.9,18.4,41.9,43,41.9s43-18,43-41.9
				C156.4,310.6,137.4,292.7,113.4,292.7z M113.4,365.7c-16.8,0-31.8-14.8-31.8-31.1s15.1-31.1,31.8-31.1s31.8,14.8,31.8,31.1
				C146.9,350.9,131.8,365.7,113.4,365.7z"/>
			<ellipse fill="#C3BFBE" cx="113.9" cy="335.1" rx="32.4" ry="31.6"/>
		</g>
		<ellipse fill="#C3BFBE" cx="385.5" cy="334.6" rx="31.8" ry="31.1"/>
		<path fill="#27262C" d="M102.2,312.8l7.3,9.3c0,0,1.7,1.7,3.9,1.7c1.7,0,3.9-1.7,3.9-1.7l7.3-9.3c0,0,1.7-1.7,0-1.7
			c-1.7,0-5.6-1.7-11.2-1.7C109.5,309,102.2,309,102.2,312.8z"/>
		<path fill="#27262C" d="M102.2,354.7l7.3-9.3c0,0,1.7-1.7,3.9-1.7c1.7,0,3.9,1.7,3.9,1.7l7.3,9.3c0,0,1.7,1.7,0,1.7
			c-1.7,1.7-5.6,1.7-11.2,1.7C109.5,357.9,102.2,357.9,102.2,354.7z"/>
		<path fill="#27262C" d="M136.8,324.2l-9.5,6l-0.6,0.6c-0.6,0.6-1.7,1.7-1.7,3.2c0,1.1,0.6,2.1,0.6,2.7c0.6,0.6,0.6,1.1,1.1,1.7
			l7.8,5.5l0.6,0.6c0.6,0.6,1.7,1.1,1.7,0c0-1.7,2.2-5.5,2.8-10.8C140.2,329.7,140.7,322.6,136.8,324.2z"/>
		<path fill="#27262C" d="M92.7,323.6l9.5,7c0,0,1.7,1.7,1.7,3.8c0,1.7-1.7,3.8-1.7,3.8l-9.5,7c0,0-1.7,1.7-1.7,0
			c0,0-1.7-5.5-1.7-9.3C89.3,329.1,91,322.1,92.7,323.6z"/>
		<g>
			<path fill="#27262C" d="M374.3,312.8l7.3,9.3c0,0,1.7,1.7,3.9,1.7c1.7,0,3.9-1.7,3.9-1.7l7.3-9.3c0,0,1.7-1.7,0-1.7
				s-5.6-1.7-11.2-1.7C379.9,309,372.1,309,374.3,312.8z"/>
			<path fill="#27262C" d="M374.3,354.7l7.3-9.3c0,0,1.7-1.7,3.9-1.7c1.7,0,3.9,1.7,3.9,1.7l7.3,9.3c0,0,1.7,1.7,0,1.7
				s-5.6,1.7-11.2,1.7S372.1,357.9,374.3,354.7z"/>
			<path fill="#27262C" d="M407.8,323.6l-9.5,7c0,0-1.7,1.7-1.7,3.8c0,1.7,1.7,3.8,1.7,3.8l9.5,7c0,0,1.7,1.7,1.7,0
				c0-1.7,1.7-5.5,1.7-10.8C411.2,329.1,411.2,322.1,407.8,323.6z"/>
			<path fill="#27262C" d="M364.8,323.6l9.5,7c0,0,1.7,1.7,1.7,3.8c0,1.7-1.7,3.8-1.7,3.8l-9.5,7c0,0-1.7,1.7-1.7,0
				c0-1.7-1.7-5.5-1.7-10.8C360.9,329.1,360.9,322.1,364.8,323.6z"/>
		</g>
		<path fill="#91401C" d="M81.5,265.4v-1.7"/>
		<path fill="#91401C" d="M70.3,267.6l1.7,1.7"/>
		<polygon fill="#27262C" points="285.7,172.9 278.9,225.7 286.2,224.8 290.8,172.3 		"/>
	</g>
	<path fill="#C3BFBE" d="M350.3,239.6c0,0.7-0.7,1.8-1.4,1.8h-15.6c-0.7,0-1.4-0.7-1.4-1.8l0,0c0-0.7,0.7-1.8,1.4-1.8h15.6
		C349.6,238.2,350.3,238.9,350.3,239.6L350.3,239.6z"/>
	<path fill="#C3BFBE" d="M278.9,241.4c0,0.7-0.7,1.8-1.4,1.8l-15.6-0.1c-0.7,0-1.4-0.7-1.4-1.8l0,0c0-0.7,0.7-1.8,1.4-1.8l15.6,0.1
		C278.2,240,278.9,240.7,278.9,241.4L278.9,241.4z"/>
	<g>
		<path fill="#2D2D2D" d="M167.6,227.9c0,0,1.1,5.6,1.1,7.3c-0.6,1.1-1.1,5.6,3.9,7.3c5,1.1,7.3-2.2,7.3-3.9s-1.1-5-0.6-7.3
			C180.4,229.5,167.6,227.9,167.6,227.9z"/>
		<path fill="#C2C0C1" d="M188.8,218.9c-1.7-8.9-6.7-7.8-6.7-7.8s-16.2,4.5-16.2,14l0,0v0.6c1.1,10.1,19.6,7.3,19.6,7.3
			s3.9-3.4,3.9-10.1C189.4,222.3,189.4,221.2,188.8,218.9z"/>
	</g>
</g>
</svg>
