<?xml version="1.0" encoding="utf-8"?>
<!-- Generator: Adobe Illustrator 18.0.0, SVG Export Plug-In . SVG Version: 6.00 Build 0)  -->
<!DOCTYPE svg PUBLIC "-//W3C//DTD SVG 1.1//EN" "http://www.w3.org/Graphics/SVG/1.1/DTD/svg11.dtd">
<svg version="1.1" id="Layer_1" xmlns="http://www.w3.org/2000/svg" xmlns:xlink="http://www.w3.org/1999/xlink" x="0px" y="0px"
	 viewBox="0 0 500 500" enable-background="new 0 0 500 500" xml:space="preserve">
<g>
	<polygon fill="#050102" points="305.8,320 342.2,324.4 340.7,330.4 305.8,322.2 	"/>
	<path fill="#050102" d="M308.2,303.1c0,0-0.6,21.7,21.9,22c22.5,0.3,36.2-11,36.2-11h27.9l8.1-2.2l19.8-2.5c0,0,3.3-9.6,1.1-12
		c-2-2.4-8.5-10.1-8.5-10.1S333.4,253.8,308.2,303.1z"/>
	<path fill="#27262C" d="M287.1,302c0,0,16.3,23.1,20.4,22.5c4.2-0.8,1.7-25.6,15.2-21.9C336.1,306.2,287.1,302,287.1,302z"/>
	<path fill="#27262C" d="M188.9,310.8c0,0,0,5.3,26.6,4.8s78.2,1.8,100.7-13.7C338.7,286.1,190.3,303.4,188.9,310.8z"/>
	<path fill="#020100" d="M181.9,322h9.2c0,0,10.3-3.1,10.4-16C201.8,293.1,177.7,312.6,181.9,322z"/>
	<path fill="#020100" d="M84.5,306.2l9.9,12.5c0,0,4.1-5,8.2-3.3c4.1,1.7,50.2,6.8,50.2,6.8s28.7,7,29,4.8c0.3-2.3,0-15.6,0-15.6
		S160,266.7,140,271.9C120,277.1,83.8,288.8,84.5,306.2z"/>
	<polygon fill="#020100" points="183.3,317.3 183.3,343.7 179.7,337.7 179.7,328.5 179.7,318.9 	"/>
	<path fill="#020100" d="M61,284.6l-6.4,1.6c0,0-9.2,4.8-8.4,6.8s1.2,5.9,1.1,7.9c-0.1,2,1.8,20.8,23.1,17.6
		C91.8,315.2,61,284.6,61,284.6z"/>
	<path fill="#C3BFBE" d="M55.9,232.3l-2,2c0,0-0.8-0.9-1.8,3.4c-0.9,4.3-4.4,24.7-1,33.2c3.4,8.6,7.4,2.5,7.4,2.3
		C58.3,272.9,55.9,232.3,55.9,232.3z"/>
	<g>
		<circle fill="#27262C" cx="135.7" cy="329.9" r="36.2"/>
		<circle fill="#C3BFBE" cx="135.8" cy="329.9" r="27.3"/>
		<g>
			<path fill="#27262C" d="M126.3,311.5l6.4,7.1c0,0,1,1.7,2.5,1.7c1.5,0,2.5-1.1,2.5-1.1l6.6-7.7c0,0,0.9-1,0-1.8
				c-0.9-0.8-4.1-1.8-8.7-1.8C131.2,307.7,124.7,309.1,126.3,311.5z"/>
			<path fill="#27262C" d="M126.3,348.1l6.4-7.1c0,0,1-1.7,2.5-1.7c1.5,0,2.5,1.1,2.5,1.1l6.6,7.7c0,0,0.9,1,0,1.8
				c-0.9,0.8-4.1,1.8-8.7,1.8C131.2,351.9,124.7,350.7,126.3,348.1z"/>
			<path fill="#27262C" d="M154.3,320.7l-7.1,6.4c0,0-1.7,1-1.7,2.5c0,1.5,1.1,2.5,1.1,2.5l7.7,6.6c0,0,1,0.9,1.8,0
				c0.8-0.9,1.8-4.1,1.8-8.7C158.1,325.7,156.7,319,154.3,320.7z"/>
			<path fill="#27262C" d="M117.7,320.7l7.1,6.4c0,0,1.7,1,1.7,2.5c0,1.5-1.1,2.5-1.1,2.5l-7.7,6.7c0,0-1,0.9-1.8,0
				c-0.8-0.9-1.8-4.1-1.8-8.7C113.9,325.7,115.1,319,117.7,320.7z"/>
		</g>
	</g>
	<g>
		<circle fill="#27262C" cx="370.3" cy="324.3" r="34.1"/>
		<circle fill="#C3BFBE" cx="370.5" cy="324.3" r="25.7"/>
		<g>
			<path fill="#27262C" d="M361.5,307.1l5.9,6.8c0,0,1,1.6,2.4,1.6c1.4,0,2.4-1.1,2.4-1.1l6.2-7.3c0,0,0.8-1,0-1.7
				c-0.8-0.8-4-1.7-8.2-1.7C366.1,303.7,359.9,304.7,361.5,307.1z"/>
			<path fill="#27262C" d="M361.4,341.7l5.9-6.8c0,0,1-1.6,2.4-1.6c1.4,0,2.4,1.1,2.4,1.1l6.2,7.3c0,0,0.8,1,0,1.7
				c-0.8,0.8-4,1.7-8.2,1.7C366.1,345.1,359.9,344,361.4,341.7z"/>
			<path fill="#27262C" d="M387.9,315.7l-6.8,5.9c0,0-1.6,1-1.6,2.4s1.1,2.4,1.1,2.4l7.3,6.2c0,0,1,0.8,1.7,0c0.8-0.8,1.7-4,1.7-8.2
				C391.4,320.6,390.2,314.2,387.9,315.7z"/>
			<path fill="#27262C" d="M353.3,315.7l6.8,5.9c0,0,1.6,1,1.6,2.4s-1.1,2.4-1.1,2.4l-7.3,6.2c0,0-1,0.8-1.7,0
				c-0.8-0.8-1.7-4-1.7-8.2C349.8,320.6,351.1,314.2,353.3,315.7z"/>
		</g>
	</g>
	<circle fill="#5B5851" cx="179.3" cy="245.6" r="2.5"/>
	<path fill="#616161" d="M453.7,264.3l0.1-15.2c0,0-2.4-4.5-2.4-9.4c0,0,0.2-0.8,0.3-1l-244.9-1V219l-2.3-64.4c0,0-0.6-3.2-5.1-3.1
		c-4.5,0-61.8,2-72.7,4.5c-10.9,2.5-12.1,2.9-18,8.2c-5.8,5.3-42.3,51.8-42.3,51.8s-9.5,15.4-12.8,16v2.5c0,0,2.4-0.3,2.4,2.9
		c0,3.2-1,32.4-1,32.4l-4.3,0.8c0,0,1.2,5.2,3.4,10.3c2.2,5.1,0.6,5.6,0.6,5.6s3.2,1.7,3.6,5.7s0.8,21.1,2.9,23
		c2.2,2,4.3,3.6,13.8,3.6s20.5,1.7,21-1.1c0.5-2.7,1.7-37.8,41.8-33c40.1,4.8,27.2,36.9,40.9,35.6c0,0,13.6-0.8,27.9-13.4v-0.7H335
		c0,0,2.8-0.8,3.9-4.6c0.9-4,2.9-18.4,35.7-18.4s31.2,17.8,33.1,18.4c2,0.6,8.1-0.8,10.2-2.3c2.2-1.4,29.8-9.4,29.8-9.4
		s3.9-3.9,4.2-8.2c0.5-4.3,0-10.4,0-10.4S454.3,266.2,453.7,264.3z M184.8,215.1h-101v-7.3l31.4-39.7c0,0,4.1-5.1,11.6-5.1
		c7.5,0,61.7,0,61.7,0L184.8,215.1z"/>
	<path fill="#C3BFBE" d="M164.6,235.3h16.8v3.7C181.3,239,164.6,242.5,164.6,235.3z"/>
	<g>
		<path fill="#C3BFBE" d="M92.5,189.4l1.7,21c0,0-4-3.7-4.4-5c-0.5-1.2-2.3-1.2-2.4-2.2s0.9-2.3,2.4-3.4
			C91.3,198.7,89.9,190.6,92.5,189.4z"/>
		<path fill="#C3BFBE" d="M90.1,217.9l-1.2-0.1c0.1-2.2-1.8-6.9-2.8-9.8c-0.5-1-0.8-1.9-0.9-2.4c-0.2-0.8,0-1.4,0.2-1.8
			c0.8-1.1,2.8-1.4,3.2-1.4l0.1,1.2v-0.7v0.7c-0.7,0-1.8,0.3-2.2,0.8c-0.1,0.1-0.2,0.3,0,0.7c0.2,0.6,0.6,1.4,0.8,2.4
			C88.4,210.8,90.2,215.4,90.1,217.9z"/>
		<path fill="#C3BFBE" d="M89.5,216.7c0,0-1,0.7-2.4,1c-1.2,0.5-3.4,4,2.4,4c5.7,0,4.9-2.5,4.9-2.5S91.8,216.3,89.5,216.7z"/>
	</g>
</g>
</svg>
