<?xml version="1.0" encoding="utf-8"?>
<!-- Generator: Adobe Illustrator 18.0.0, SVG Export Plug-In . SVG Version: 6.00 Build 0)  -->
<!DOCTYPE svg PUBLIC "-//W3C//DTD SVG 1.1//EN" "http://www.w3.org/Graphics/SVG/1.1/DTD/svg11.dtd">
<svg version="1.1" id="Layer_1" xmlns="http://www.w3.org/2000/svg" xmlns:xlink="http://www.w3.org/1999/xlink" x="0px" y="0px"
	 viewBox="0 0 500 500" enable-background="new 0 0 500 500" xml:space="preserve">
<g>
	<path d="M368.5,327l6.5,1.5c0,0,5,0,10,0c3.5,1.5,65,0,65,0s13.5,1.5,15-7c2-9,8.5-68.5-51.5-56.5C353.5,277,367,314.5,368.5,327z"
		/>
	<path d="M40.5,325l11.5,9c0,0,6.5,0,10,0c1.5,0,70.5,0,70.5,0s8,0,18,0c5.5-6,6-72.5-51.5-73.5C58,260,40.5,325,40.5,325z"/>
	<path fill="#C3BFBE" d="M12.5,279.5l-2-10.5c0,0,11.5-29.5,40.5-24C77,249.5,12.5,279.5,12.5,279.5z"/>
	<g>
		<path opacity="0.6" fill="#C3BFBE" enable-background="new    " d="M452,165.5l30,72h13.5C492,219.5,482,190,452,165.5z"/>
		<path fill="#C3BFBE" d="M482,237.5l6.5,16h5c0,0,1.5,0,3.5,0c0,0,1.5-7,0-16C495,237.5,482,237.5,482,237.5z"/>
	</g>
	<path fill="#3F51B5" d="M496,271L496,271C496,271.5,496,271,496,271z"/>
	<path fill="#3F51B5" d="M495.5,270.5C496,270.5,496,271,495.5,270.5C496,271,495.5,270.5,495.5,270.5z"/>
	<path fill="#616161" d="M497,298.5c0,0,0-3.5,0-14c0-1.5,0,0,0-1.5c0-10.5-1.5-12-1.5-12l-2-17.5H492c0,0,0-10.5-3.5-26.5
		c-3.5-17.5-18.5-38.5-26.5-52.5c-8.5-14-13.5-12-36.5-16c-22-3.5-117-5.5-117-5.5s-56.5,2-85,7c-3,0.5-6,1-9.5,2
		c-35,4-106.5,53-119,62c-18.5,2-56.5,20.5-56.5,20.5c1.5,0,6.5,1.5,6.5,1.5c5,3.5-3.5,9-5,10.5c-3.5,1.5-16.5,10.5-21.5,12
		s-8.5,0-8.5,0c-1.5,2-5,12.5-5,12.5s-3,1.5-5,5.5c-1.5,1.5-1.5,3.5-1.5,5.5c0,3.5,0,5.5,1.5,7.5c2,3,3.5,4.5,3.5,4.5v7
		C2,314.5,2,316.5,2,316.5c3,16.5,51.5,18,51.5,18c-5-31.5,5-61.5,41.5-61.5c35,0,41.5,35.5,41.5,47.5h0.5V320c0,5.5,3.5,14,3.5,14
		l235-5.5c0,0,0-5.5,0-10.5c0,0,0,0,0-1.5H375c2-16,12-42.5,45-42.5c48.5,0,40,52.5,40,52.5s25-5.5,33.5-9
		C502,314.5,497,298.5,497,298.5z M465.5,214.5c-1.5,5.5-20,5.5-20,5.5L257,229l-145,9c25-31.5,70-60,96.5-70.5
		c26.5-8.5,110-7,138.5-7c26.5,1.5,93,5.5,96.5,7c3.5,2,3.5,2,8.5,9C457,181,467,207.5,465.5,214.5z"/>
	<path fill="#3F51B5" d="M496,271.5C497,272,497.5,272,496,271.5L496,271.5z"/>
	<path fill="#252428" d="M452,176c-5-7-5-7-8.5-9c-3.5-1.5-69.5-6-96.5-7c-28.5,0-112.5-3-138.5,7c-26.5,10.5-75,40-98,72l146.5-8.5
		l188.5-9.5c0,0,19.5,0.5,21-5C468,209,457,181,452,176z M120,234c0,0,36.5-35.5,48.5-40.5L165,230L120,234z M245,225l-76.5,5
		l3.5-40c30-26.5,81.5-26.5,81.5-24.5L245,225z M272,223.5l1.5-58.5c20-2,82,1,82,0.5l8,54L272,223.5z M460,213
		c-1.5,3.5-10,3.5-10,3.5h-66.5l-8-50.5c0,0,59.5,3,66,4.5c7,0,15.5,21,17.5,27C460.5,203,461.5,209,460,213z"/>
	<path fill="#C3BFBE" d="M140,240.5l11.5-17.5c0,0,3.5-12,13.5-12c8.5,0,20,0,21.5,9c0,9-3.5,10.5-6.5,10.5
		c-3.5,0-18.5,1.5-18.5,1.5l2,7C162,239,142,246,140,240.5z"/>
	<g>
		<g>
			<ellipse fill="#27262C" cx="95" cy="323.5" rx="38.5" ry="40.5"/>
			<ellipse fill="#C3BFBE" cx="95" cy="323.5" rx="28.5" ry="31.5"/>
			<g>
				<path fill="#27262C" d="M85,302.5l6.5,9c0,0,1.5,1.5,3.5,1.5c0-1.5,1.5-1.5,1.5-1.5l7-9V301c0,0-5-1.5-8.5-1.5
					C90,297,83.5,298.5,85,302.5z"/>
				<path fill="#27262C" d="M85,343l6.5-9c0,0,1.5-1.5,3.5-1.5c1.5,0,3.5,1.5,3.5,1.5l6.5,9v1.5c0,1.5-5,1.5-8.5,1.5
					C90,348,83.5,346,85,343z"/>
				<path fill="#27262C" d="M113.5,313l-6.5,7c0,0-1.5,1.5-1.5,3.5c0,1.5,1.5,3.5,1.5,3.5l8.5,7h1.5c0,0,1.5-5.5,1.5-10.5
					S117,309,113.5,313z"/>
				<path fill="#27262C" d="M75,313l6.5,7c0,0,1.5,1.5,1.5,3.5c0,1.5-1.5,3.5-1.5,3.5l-8,7H72c0,0-1.5-5.5-1.5-10.5
					C72,318,73.5,309,75,313z"/>
			</g>
		</g>
	</g>
	<g>
		<g>
			<ellipse fill="#27262C" cx="418.5" cy="323" rx="38.5" ry="40.5"/>
			<ellipse fill="#C3BFBE" cx="418.5" cy="323" rx="28.5" ry="31.5"/>
			<g>
				<path fill="#27262C" d="M408.5,302l6.5,9c0,0,1.5,1.5,3.5,1.5c1.5,0,3.5-1.5,3.5-1.5l6.5-9v-2c0,0-5-1.5-8.5-1.5
					C413.5,296.5,406.5,298,408.5,302z"/>
				<path fill="#27262C" d="M408.5,342.5l6.5-9c0,0,1.5-1.5,3.5-1.5c1.5,0,3.5,1.5,3.5,1.5l6.5,9v1.5c0,0-5,1.5-8.5,1.5
					C413.5,347.5,406.5,345.5,408.5,342.5z"/>
				<path fill="#27262C" d="M438.5,312.5l-6.5,7c0,0-1.5,1.5-1.5,3.5c0,1.5,1.5,3.5,1.5,3.5l8.5,7h1.5c0,0,1.5-5.5,1.5-10.5
					C441.5,317.5,441.5,308.5,438.5,312.5z"/>
				<path fill="#27262C" d="M400,312.5l6.5,7c0,0,1.5,1.5,1.5,3.5c0,1.5-1.5,3.5-1.5,3.5L400,332h-1.5c0,0-1.5-5.5-1.5-10.5
					C396.5,317.5,396.5,308.5,400,312.5z"/>
			</g>
		</g>
	</g>
	<path fill="#C3BFBE" d="M364,243c0,2,0,2-1.5,2h-15c-1.5,0-1.5,0-1.5-2l0,0c0-2,0-2,1.5-2h15C364,240.5,364,240.5,364,243L364,243z
		"/>
	<path fill="#C3BFBE" d="M245,243c0,2,0,2-1.5,2h-15c-1.5,0-1.5,0-1.5-2l0,0c0-2,0-2,1.5-2h15C245,240.5,245,240.5,245,243L245,243z
		"/>
</g>
</svg>
