<?xml version="1.0" encoding="utf-8"?>
<!-- Generator: Adobe Illustrator 18.0.0, SVG Export Plug-In . SVG Version: 6.00 Build 0)  -->
<!DOCTYPE svg PUBLIC "-//W3C//DTD SVG 1.1//EN" "http://www.w3.org/Graphics/SVG/1.1/DTD/svg11.dtd">
<svg version="1.1" id="Layer_1" xmlns="http://www.w3.org/2000/svg" xmlns:xlink="http://www.w3.org/1999/xlink" x="0px" y="0px"
	 viewBox="0 0 500 500" enable-background="new 0 0 500 500" xml:space="preserve">
<g>
	<path fill="#C3BFBE" d="M36,233c0,0-7-1-12.5,0l0,0c-2,0-4,2-5,3.5c0,0-3.5,4.5-5.5,9.5c-0.5,1-0.5,2-1,3c-0.5,5.5-2.5,26-1,27
		c1.5,1.5,17-3.5,17-3.5L38,261l6.5-16l0,0l3.5-9L36,233z"/>
	<g>
		<path fill="#C3BFBE" d="M440.5,303.5l2,1.5c0,0,13-1,15-1s6-1,10,3.5c0,0,7-2,7.5-3s-5.5-5.5-8-6.5s-21-1-23-0.5
			C442,298.5,440.5,303.5,440.5,303.5z"/>
		<path d="M113,308.5c0,0,10,3.5,14.5,4.5s11,2,12.5,2s3-13.5,3-13.5L124,245l-75-4.5l-9.5,4.5l-8,17.5L27,273H17c0,0-7.5,3-9,5.5
			S4,282,4,282s-3,2.5-2,7c1,4,2.5,11.5,2.5,11.5s0,2.5,5.5,3c5.5,1,7,1.5,7,1.5v4c0,0-4,1-4,3c0,2,4.5,3.5,22,3.5l0.5-7"/>
		<path d="M321.5,234l-10.5-0.5c0,0-21.5,11.5-23.5,11c-2.5-0.5-87-0.5-87-0.5l-78,52c0,0-1.5,14,3,16.5c5,2,34.5,2.5,34.5,2.5
			l156.5-2.5c0,0,5.5,3,12.5,2.5c7-0.5,12-3.5,12-3.5h8c0,0,15-0.5,22.5-1.5c7-1,57-4.5,57-4.5h15V298v-62.5L321.5,234z"/>
		<path fill="#C3BFBE" d="M486,217.5l9.5,8.5c0,0,2.5,3.5,2.5,12.5s1,28.5-1.5,31.5c-2.5,3.5-18.5-11.5-18.5-13
			C478.5,256,486,217.5,486,217.5z"/>
		<path fill="#616161" d="M493.5,216.5C490.5,216,310,218,310,218s-2,0-4.5,0c0-1,0-1.5,0-2c0-13.5-3-45.5-6-50.5
			c-3-5.5-14.5-5.5-49.5-5c-34.5,0.5-52.5,4.5-55,4.5c-1.5,0-8.5,3-11.5,4h-1c0,0-50,33.5-60.5,48.5c-3.5,0.5-9.5,0-11.5,0
			C108,217,46,227,36.5,229s-13,3-16.5,4.5s-3,5.5-3,5.5c9.5-7,19-0.5,20,1s-2.5,10.5-5,15.5c-3,5-7,19-7,19h15.5
			c4-12,9-17.5,14.5-20c5-2.5,43-4,53,3.5c9.5,8,13.5,41,14,44c0,2.5,0,5.5,0,5.5c0,3,4.5,3.5,4.5,3.5l180.5-2h28c0,0,4,0,6.5,0
			s3.5-3,3.5-4.5c0-1.5,3-39,18-46.5c14.5-7.5,37-6,37-6s25.5,0,32,14c7,15,5.5,31.5,3.5,37l27.5-3.5c0,0,23-1,26.5-9.5
			s5-19.5,5-19.5s-4-1.5-5-9c-1.5-7.5-4.5-17-4.5-19.5c0-2-2.5-12.5,0.5-14c3-2,9-1.5,9-1.5V220C495.5,219.5,496,216.5,493.5,216.5z
			 M241,172l-3,41c0,2.5-6.5,1.5-7,1.5l-60,3l-15.5,0.5c0,0-10.5,8-6.5-5.5c4-13,31-31.5,43-38c12-6.5,45-6.5,47.5-6.5
			C242,169,241,172,241,172z M284.5,218H264c-5.5,0-11-6.5-11-12.5v-30c0-6.5,5.5-9,11-9h18c5.5,0,9,2,10.5,10l1.5,30
			C294,213,289.5,218,284.5,218z"/>
		<path fill="#C3BFBE" d="M143,218.5c0,0-1-5.5,4-7l0.5-7c0,0,0-3.5,1.5-4.5c2-1,11-3.5,15-2.5c4,0.5,2.5,12,2.5,14
			c0,1.5,0.5,5.5-2,6.5s-11,4-12,4.5C151,223.5,143,225,143,218.5z"/>
		<g>
			<ellipse fill="#27262C" cx="77.5" cy="306.5" rx="35.5" ry="41"/>
			<path fill="#C3BFBE" d="M51,306.5c0,17,12,31,26.5,31s26.5-13.5,26.5-31s-12-31-26.5-31C63,276,51,290,51,306.5z"/>
			<g>
				<path fill="#27262C" d="M68.5,286l6,8c0,0,1,2,2.5,2s2.5-1.5,2.5-1.5l6.5-9c0,0,1-1,0-2c-1-1-4-2-8.5-2
					C73.5,282,67,283,68.5,286z"/>
				<path fill="#27262C" d="M68.5,328l6-8c0,0,1-2,2.5-2s2.5,1.5,2.5,1.5l6.5,9c0,0,1,1,0,2c-1,1-4,2-8.5,2
					C73.5,331.5,67,330.5,68.5,328z"/>
				<path fill="#27262C" d="M95.5,296.5l-7,7.5c0,0-1.5,1-1.5,3c0,1.5,1,3,1,3l7.5,7.5c0,0,1,1,2,0c0.5-1,2-4.5,2-9.5
					C99.5,302,98,294.5,95.5,296.5z"/>
				<path fill="#27262C" d="M60,296.5l7,7.5c0,0,1.5,1,1.5,3c0,1.5-1,3-1,3l-7.5,7.5c0,0-1,1-2,0c-0.5-1-2-4.5-2-9.5
					C56.5,302,57.5,294.5,60,296.5z"/>
			</g>
		</g>
		<g>
			<ellipse fill="#4C4C4C" cx="77.5" cy="306.5" rx="35.5" ry="41"/>
			<path fill="#C3BFBE" d="M51,306.5c0,17,12,31,26.5,31s26.5-13.5,26.5-31s-12-31-26.5-31C63,276,51,290,51,306.5z"/>
			<g>
				<path fill="#4C4C4C" d="M68.5,286l6,8c0,0,1,2,2.5,2s2.5-1.5,2.5-1.5l6.5-9c0,0,1-1,0-2c-1-1-4-2-8.5-2
					C73.5,282,67,283,68.5,286z"/>
				<path fill="#4C4C4C" d="M68.5,328l6-8c0,0,1-2,2.5-2s2.5,1.5,2.5,1.5l6.5,9c0,0,1,1,0,2c-1,1-4,2-8.5,2
					C73.5,331.5,67,330.5,68.5,328z"/>
				<path fill="#4C4C4C" d="M95.5,296.5l-7,7.5c0,0-1.5,1-1.5,3c0,1.5,1,3,1,3l7.5,7.5c0,0,1,1,2,0c0.5-1,2-4.5,2-9.5
					C99.5,302,98,294.5,95.5,296.5z"/>
				<path fill="#4C4C4C" d="M60,296.5l7,7.5c0,0,1.5,1,1.5,3c0,1.5-1,3-1,3l-7.5,7.5c0,0-1,1-2,0c-0.5-1-2-4.5-2-9.5
					C56.5,302,57.5,294.5,60,296.5z"/>
			</g>
		</g>
		<g>
			<ellipse fill="#4C4C4C" cx="394" cy="306.5" rx="35.5" ry="41"/>
			<path fill="#C3BFBE" d="M367.5,306.5c0,17,12,31,26.5,31c14.5,0,26.5-13.5,26.5-31s-12-31-26.5-31
				C379.5,276,367.5,290,367.5,306.5z"/>
			<g>
				<path fill="#4C4C4C" d="M385,286l6,8c0,0,1,2,2.5,2c1.5,0,2.5-1.5,2.5-1.5l6.5-9c0,0,1-1,0-2s-4-2-8.5-2
					C390,282,383.5,283,385,286z"/>
				<path fill="#4C4C4C" d="M385,328l6-8c0,0,1-2,2.5-2c1.5,0,2.5,1.5,2.5,1.5l6.5,9c0,0,1,1,0,2c-1,1-4,2-8.5,2
					C390,331.5,383.5,330.5,385,328z"/>
				<path fill="#4C4C4C" d="M412.5,296.5l-7,7.5c0,0-1.5,1-1.5,3c0,1.5,1,3,1,3l7.5,7.5c0,0,1,1,2,0c1-1,2-4.5,2-9.5
					C416,302,415,294.5,412.5,296.5z"/>
				<path fill="#4C4C4C" d="M376.5,296.5l7,7.5c0,0,1.5,1,1.5,3c0,1.5-1,3-1,3l-7.5,7.5c0,0-1,1-2,0c-1-1-2-4.5-2-9.5
					C373,302,374,294.5,376.5,296.5z"/>
			</g>
		</g>
		<path fill="#C3BFBE" d="M241,235.5c0,2,0,2-1.5,2h-17c-1.5,0-1.5,0-1.5-2l0,0c0-2,0-2,1.5-2h17C241,233.5,241,233.5,241,235.5
			L241,235.5z"/>
	</g>
</g>
</svg>
