<?xml version="1.0" encoding="utf-8"?>
<!-- Generator: Adobe Illustrator 18.0.0, SVG Export Plug-In . SVG Version: 6.00 Build 0)  -->
<!DOCTYPE svg PUBLIC "-//W3C//DTD SVG 1.1//EN" "http://www.w3.org/Graphics/SVG/1.1/DTD/svg11.dtd">
<svg version="1.1" id="Layer_1" xmlns="http://www.w3.org/2000/svg" xmlns:xlink="http://www.w3.org/1999/xlink" x="0px" y="0px"
	 viewBox="0 0 500 500" enable-background="new 0 0 500 500" xml:space="preserve">
<g>
	<path fill="#050505" d="M14,307.5L31.5,320c0,0,8.5,0,20-0.5c13,2,57.5,0,57.5,0s18.5,0,27,0c8-7.5,194.5-7.5,194.5-7.5l26.5,7.5
		c0,0,8.5,0,15,0c6.5,0,59.5-6,59.5-6h10l21.5-24l-44.5-72L93,232.5L26,255L14,307.5z"/>
	<path fill="#C3BFBE" d="M53,230.5l-8.5-1.5c0,0-15,3.5-23,11.5c-8.5,9-12,24-12,25.5c0,1.5,28-9.5,28-11.5
		C39.5,255,53,230.5,53,230.5z"/>
	<path fill="#C3BFBE" d="M474.5,209.5c0,0,8-3.5,8,3.5c1.5,6,1.5,11.5,3.5,17c1.5,6,3.5,9.5,1.5,13c-1.5,4-29.5-3-29.5-3
		S457.5,209.5,474.5,209.5z"/>
	<path fill="#27262C" d="M127,322c15-2,199.5-2.5,229.5-2.5L353,312l-226,2C127,317,127,317.5,127,322z"/>
	<path fill="#27262C" d="M403,246c-44.5-3.5-51,56.5-51,56.5v17c3.5,0,5,0,5,0c0-11.5,0-66,46.5-67.5c43,0,38,62,38,62
		s1,0.5,2.5,0.5C451,290.5,441.5,247.5,403,246z"/>
	<path fill="#616161" d="M499,265c0.5-10-9.5-12-9.5-12c0-2-3.5-13-3.5-13s-3.5,0-11.5,0c-8.5,0-10-9.5-13.5-15
		c-1.5-3.5,13.5-11.5,16.5-15c1.5-3.5-26.5-6-33-7.5c-6.5,0-23-13-46.5-26C374.5,163,346,155,288,155c-51.5,0-67.5,9-70,11
		c-16.5,7-55.5,31.5-71.5,42c-1.5,0.5-3,1-4.5,1.5c-2.5,1-5,1.5-6.5,2c-68,7.5-91,17.5-91,17.5s6.5,3,5,5c-1.5,2-20,19-26.5,24.5
		c-7,6-13.5,6-13.5,6c-6.5,2-8,7.5-8,11.5c0,3.5,3.5,22.5,3.5,24.5c0,2-3.5,2-1.5,7.5c1.5,3.5,10,9.5,10,9.5l18,2.5
		c-2-6.5-7-23-3.5-34.5c5-13,16.5-39.5,48-39.5c26.5,0,51,21,51,62.5c0,3.5,0,6,0,7.5l226-3.5V305c0,0,6.5-60.5,51-56.5
		c38,2,44.5,41.5,39.5,66c8,0,28-3.5,31.5-3.5s5-3.5,5-3.5c20-7.5,13-15,13-15C499,280,497.5,274.5,499,265z M388.5,208l-226,11
		c0,0,58.5-47,66.5-49c0,0,38-13,70-9.5c32,3.5,90,9.5,91.5,30.5C391.5,211.5,388.5,208,388.5,208z"/>
	<polygon fill="#27262C" points="282,160 273.5,214 292,214 295,160 	"/>
	<ellipse fill="#27262C" cx="75.5" cy="300.5" rx="36.5" ry="43.5"/>
	<ellipse fill="#C3BFBE" cx="75.5" cy="300.5" rx="28" ry="32"/>
	<g>
		<path fill="#27262C" d="M66,279.5l6.5,7.5c0,0,1.5,2,3.5,2c1.5,0,3.5-2,3.5-2l5-7.5c0,0,1.5-2,0-2c-1.5,0-5-2-8.5-2
			C71,274,64,275.5,66,279.5z"/>
		<path fill="#27262C" d="M66,323l6.5-9.5c0,0,1.5-2,3.5-2c1.5,0,3.5,2,3.5,2l5,9.5c0,0,1.5,2,0,2c-1.5,0-5,2-8.5,2
			C71,326.5,64,325,66,323z"/>
		<path fill="#27262C" d="M94,289l-8,7.5c0,0-1.5,2-1.5,3.5c0,2,1.5,3.5,1.5,3.5l8,7.5c0,0,1.5,2,1.5,0s1.5-6,1.5-9.5
			C97.5,296.5,97.5,287.5,94,289z"/>
		<path fill="#27262C" d="M57.5,289l8,7.5c0,0,1.5,2,1.5,3.5c0,2-1.5,3.5-1.5,3.5l-8,7.5c0,0-1.5,2-1.5,0s-1.5-4.5-1.5-8.5
			C52.5,296.5,54,287.5,57.5,289z"/>
	</g>
	<g>
		<path fill="#27262C" d="M364,302c-0.5-24,15.5-43.5,36-44c20.5-0.5,36.5,19,37,43c0.5,24-16,43.5-36,44C381.5,345,364,326,364,302
			z"/>
		<path fill="#C3BFBE" d="M372.5,302c-0.5-18,12-32,27.5-32.5c15.5,0,28.5,13.5,28.5,31.5c0.5,18-12,32-27.5,32.5
			C385.5,333.5,373,320,372.5,302z"/>
		<g>
			<path fill="#27262C" d="M390,279.5l6.5,9.5c0,0,1.5,2,3.5,2c1.5,0,1.5-2,1.5-2l6.5-9.5c0,0,1.5-2,0-2s-5-2-8.5-2
				C395,275.5,388.5,278,390,279.5z"/>
			<path fill="#27262C" d="M390,323l6.5-9.5l1.5-2l3.5,2l6.5,9.5c0,0,1.5,2,0,2s-5,2-8.5,2C395,326.5,390,326.5,390,323z"/>
			<path fill="#27262C" d="M418,289l-6.5,7.5c0,0-1.5,2-1.5,3.5c0,2,1.5,3.5,1.5,3.5l8.5,7.5c0,0,1.5,2,1.5,0s1.5-6,1.5-9.5
				C423,296.5,421.5,287.5,418,289z"/>
			<path fill="#27262C" d="M381.5,291l8,7.5c0,0,1.5,2,1.5,3.5c0,2-1.5,3.5-1.5,3.5l-6,8c0,0-1.5,2-1.5,0s-1.5-6-1.5-9.5
				C378.5,296.5,378.5,289,381.5,291z"/>
		</g>
	</g>
	<path fill="#27262C" d="M368.5,170.5c0,0-32-12-80-12c0,0-41.5,2.5-59.5,9.5c0,0-30,13-71.5,53h5h1.5h3.5L395,210c0-2,0-7.5,0-13
		C391.5,185.5,392,178.5,368.5,170.5z M386.5,208l-103,3.5l-119.5,6c11.5-9.5,53.5-39.5,68-46.5c19-6,57.5-8.5,63.5-9
		c6,0,49.5,3,79.5,14C377,178.5,393.5,183.5,386.5,208z"/>
	<path fill="#C3BFBE" d="M378.5,227c0,2,0,2-1.5,2h-15c-1.5,0-1.5,0-1.5-2l0,0c0-2,0-2,1.5-2h15C378.5,225,378.5,225,378.5,227
		L378.5,227z"/>
	<path fill="#C3BFBE" d="M264,228.5c0,2,0,2-1.5,2h-15c-1.5,0-1.5,0-1.5-2l0,0c0-2,0-2,1.5-2h15C264,227,264,227,264,228.5
		L264,228.5z"/>
	<path fill="#27262C" d="M75.5,245.5c-31.5,0-43,26-48,39c-3.5,11-1.5,29.5,0,35l4,0.5c-5-30,6-75,49-69.5c43,3.5,44.5,59.5,44.5,65
		c0,3.5,1.5,6,1.5,6s0,0,1.5,0c0-3.5,0-9.5,0-14.5C126.5,265.5,100,245.5,75.5,245.5z"/>
	<path fill="#C3BFBE" d="M157.5,221l10-12c0,0,3.5-9,11-8c6,0.5,15,1.5,15.5,8.5c-0.5,6.5-3.5,7.5-5.5,7.5c-2.5,0-14,0-14,0l1,4
		C173.5,220.5,159.5,222,157.5,221z"/>
</g>
</svg>
