<?xml version="1.0" encoding="utf-8"?>
<!-- Generator: Adobe Illustrator 18.0.0, SVG Export Plug-In . SVG Version: 6.00 Build 0)  -->
<!DOCTYPE svg PUBLIC "-//W3C//DTD SVG 1.1//EN" "http://www.w3.org/Graphics/SVG/1.1/DTD/svg11.dtd">
<svg version="1.1" id="Layer_1" xmlns="http://www.w3.org/2000/svg" xmlns:xlink="http://www.w3.org/1999/xlink" x="0px" y="0px"
	 viewBox="0 0 500 500" enable-background="new 0 0 500 500" xml:space="preserve">
<g>
	<g>
		<path d="M64.2,344.3l7,5.3c0,0,7.1-4.3,11-4.2c3.9,0.1,52.5,1.6,52.5,1.6l9.9,0.8l15.5-22.6l-1-37.9l-39.6-16.2l-35.6,3.2
			l-16.8,16.5l-10.8,25.5L64.2,344.3z"/>
		<path fill="#070707" d="M487.4,315.1L487,317c0,0-7.8,12.4-17.9,14.5s-9.4,2.5-9.4,2.5s-16.5,4.5-22.5,0.7s-56.3,4.7-56.3,4.7
			l-6.8,3.2l-7.2,1.6c0,0-14.2-15.3-14.2-15.5s-0.5-15.1-0.5-15.1l13.5-42.1l28.2-18.9l14-2.5c0,0,42.1,16.3,42.1,16.7
			s5.2,15.2,5.2,15.2l11.9,20l9.8,5.5L487.4,315.1z"/>
		<path fill="#27262C" d="M493,303.9c0,0,1,11.5-0.8,11.9c0,0-13.5,3.4-15.5,2.9s-5.7-7-5.7-7L493,303.9z"/>
		<path fill="#27262C" d="M486.1,290.4l-1.8-15c0,0,0.4-0.7,0.8-1.6c0.1-0.3,0.3-0.8,0.4-1.2c0.4-1.7-0.5-1.7-0.5-1.7l-17.2-2.5
			c0,0-11.6,18.7-11.8,19.1c-0.2,0.5,6.8,10.2,6.8,10.2l6.8-0.1l13.1-0.3l5.1-3.4L486.1,290.4z"/>
		<path fill="#C3BFBE" d="M492.1,252.2c0,0,0.4,4.1-1.7,7.2c-2.2,3-3.8,7.9-3.8,7.9l-15.5,1.4l-0.7-9.7l8.4-7.7L492.1,252.2z"/>
		<path fill="#BC2304" d="M4.5,313.5c0,0,19.6-10.5,55-14.2c0,0-39.8,8.9-39.9,11.1c-0.1,2.3,13,24.9,13,24.9S4.8,326.2,4.5,313.5z"
			/>
		<path fill="none" d="M296.9,235.8c0.3,0.1,0.6,0.3,0.9,0.6C297.5,236.2,297.2,236,296.9,235.8z"/>
		<path fill="none" d="M289.1,233c0.4,0.1,0.8,0.2,1.1,0.3C289.8,233.2,289.4,233.1,289.1,233z"/>
		<path fill="none" d="M287.1,232.6c0.3,0.1,0.5,0.1,0.8,0.2C287.6,232.7,287.3,232.6,287.1,232.6z"/>
		<path fill="none" d="M290.2,233.3c0.4,0.1,0.8,0.2,1.1,0.3C291,233.5,290.6,233.3,290.2,233.3z"/>
		<path fill="none" d="M292.6,234c0.4,0.1,0.7,0.2,1.1,0.3C293.3,234.2,292.9,234.1,292.6,234z"/>
		<path fill="none" d="M294.8,234.9c0.3,0.1,0.7,0.3,1,0.5C295.5,235.1,295.1,235,294.8,234.9z"/>
		<path fill="none" d="M295.8,235.4c0.3,0.1,0.6,0.3,0.9,0.5C296.5,235.7,296.2,235.5,295.8,235.4z"/>
		<path fill="none" d="M286.2,232.3c0.3,0,0.5,0.1,0.8,0.2C286.8,232.4,286.5,232.3,286.2,232.3z"/>
		<path fill="none" d="M291.4,233.7c0.4,0.1,0.7,0.2,1.1,0.3C292.1,233.9,291.8,233.8,291.4,233.7z"/>
		<path fill="none" d="M293.7,234.5c0.4,0.1,0.7,0.2,1,0.5C294.4,234.7,294,234.6,293.7,234.5z"/>
		<path fill="none" d="M287.9,232.7c0.4,0.1,0.8,0.2,1.1,0.2C288.7,232.9,288.3,232.8,287.9,232.7z"/>
		<path fill="none" d="M277.5,231.1c0.1,0,0.3,0,0.4,0C277.8,231.1,277.7,231.1,277.5,231.1z"/>
		<path fill="none" d="M278,231.2c0.1,0,0.3,0,0.4,0C278.3,231.2,278.1,231.2,278,231.2z"/>
		<path fill="none" d="M276.1,231L276.1,231L276.1,231z"/>
		<path fill="none" d="M278.5,231.2c0.2,0,0.3,0,0.5,0C278.8,231.2,278.6,231.2,278.5,231.2z"/>
		<path fill="none" d="M280.9,231.4c0.4,0,0.9,0.1,1.3,0.2C281.8,231.5,281.3,231.5,280.9,231.4z"/>
		<path fill="none" d="M282.3,231.7c0.5,0.1,0.9,0.1,1.4,0.2C283.2,231.8,282.8,231.8,282.3,231.7z"/>
		<path fill="none" d="M285.4,232.2c0.3,0,0.5,0.1,0.8,0.1C285.9,232.3,285.7,232.2,285.4,232.2z"/>
		<path fill="none" d="M279.6,231.3c0.4,0,0.8,0.1,1.2,0.1C280.4,231.4,280,231.3,279.6,231.3z"/>
		<path fill="none" d="M279,231.2c0.2,0,0.3,0,0.5,0C279.3,231.3,279.2,231.3,279,231.2z"/>
		<path fill="none" d="M283.8,231.9c0.5,0.1,1,0.2,1.5,0.2C284.8,232.1,284.3,232,283.8,231.9z"/>
		<path fill="none" d="M301.9,240.7c0.1,0.2,0.2,0.6,0.3,0.9C302.2,241.2,302,240.9,301.9,240.7z"/>
		<path fill="none" d="M299.5,237.6c0.2,0.2,0.5,0.5,0.7,0.7C300,238.1,299.8,237.8,299.5,237.6z"/>
		<path fill="none" d="M277.5,231.1c-0.7-0.1-1.2-0.1-1.3-0.1c0.1,0,0.5,0,1,0.1C277.2,231.1,277.4,231.1,277.5,231.1z"/>
		<path fill="none" d="M300.9,239.1c0.2,0.2,0.4,0.5,0.5,0.8C301.3,239.5,301.1,239.3,300.9,239.1z"/>
		<path fill="none" d="M301.5,239.9c0.2,0.2,0.3,0.6,0.4,0.8C301.8,240.3,301.6,240.1,301.5,239.9z"/>
		<path fill="none" d="M300.3,238.3c0.2,0.2,0.4,0.5,0.6,0.7C300.7,238.7,300.5,238.5,300.3,238.3z"/>
		<path fill="none" d="M297.8,236.4c0.3,0.2,0.6,0.3,0.8,0.6C298.4,236.8,298.1,236.6,297.8,236.4z"/>
		<path fill="none" d="M298.7,237.1c0.3,0.2,0.5,0.5,0.8,0.6C299.2,237.4,299,237.2,298.7,237.1z"/>
		<path fill="#484949" d="M299.9,231.8c0,0-57.8-9.9-98.3,1.6C161.1,245,127,265,127,265c1.4,0.3,2.8,0.8,4.2,1.1
			c7.6-3.7,44.2-21.5,48.8-22.6c5.1-1.2,49.1-16.3,96.1-12.4l0,0l0,0l0,0c0.2,0,0.6,0,1.3,0.1l0,0c0.1,0,0.3,0,0.4,0l0,0
			c0.1,0,0.3,0,0.4,0c0,0,0,0,0.1,0c0.2,0,0.3,0,0.5,0l0,0c0.2,0,0.3,0,0.5,0h0.1c0.4,0,0.8,0.1,1.2,0.1h0.1c0.4,0,0.9,0.1,1.3,0.2
			h0.1c0.5,0.1,0.9,0.1,1.4,0.2h0.1c0.5,0.1,1,0.2,1.5,0.2c0,0,0,0,0.1,0c0.3,0,0.5,0.1,0.8,0.1l0,0c0.3,0,0.5,0.1,0.8,0.2l0,0
			c0.3,0.1,0.5,0.1,0.8,0.2l0,0l0,0c0.4,0.1,0.8,0.2,1.1,0.2l0,0c0.4,0.1,0.8,0.2,1.1,0.3l0,0c0.4,0.1,0.8,0.2,1.1,0.3l0,0
			c0.4,0.1,0.7,0.2,1.1,0.3c0,0,0,0,0.1,0c0.4,0.1,0.7,0.2,1.1,0.3c0,0,0,0,0.1,0c0.4,0.1,0.7,0.2,1,0.5c0,0,0,0,0.1,0
			c0.3,0.1,0.7,0.3,1,0.5c0,0,0,0,0.1,0c0.3,0.1,0.6,0.3,0.9,0.5c0,0,0,0,0.1,0c0.3,0.1,0.6,0.3,0.9,0.6c0,0,0,0,0.1,0
			c0.3,0.2,0.6,0.3,0.8,0.6l0,0c0.3,0.2,0.5,0.5,0.8,0.6l0,0c0.2,0.2,0.5,0.5,0.7,0.7l0,0c0.2,0.2,0.4,0.5,0.6,0.7l0,0
			c0.2,0.2,0.4,0.5,0.5,0.8l0,0c0.2,0.2,0.3,0.6,0.4,0.8l0,0c0.1,0.2,0.2,0.6,0.3,0.9c1,3.2,0.7,6-0.1,8.2c6.2-1,9.9-1.7,9.9-1.7
			L299.9,231.8z"/>
		<path fill="#636363" d="M302.2,241.4c-0.1-0.3-0.2-0.6-0.3-0.9l0,0c-0.1-0.2-0.3-0.6-0.4-0.8l0,0c-0.2-0.2-0.3-0.6-0.5-0.8l0,0
			c-0.2-0.2-0.4-0.5-0.6-0.7l0,0c-0.2-0.2-0.5-0.5-0.7-0.7l0,0c-0.2-0.2-0.5-0.5-0.8-0.6l0,0c-0.3-0.2-0.6-0.3-0.8-0.6
			c0,0,0,0-0.1,0c-0.3-0.2-0.6-0.3-0.9-0.6c0,0,0,0-0.1,0c-0.3-0.1-0.6-0.3-0.9-0.5c0,0,0,0-0.1,0c-0.3-0.1-0.7-0.3-1-0.5
			c0,0,0,0-0.1,0c-0.3-0.1-0.7-0.3-1-0.5c0,0,0,0-0.1,0c-0.4-0.1-0.7-0.2-1.1-0.3c0,0,0,0-0.1,0c-0.4-0.1-0.7-0.2-1.1-0.3l0,0
			c-0.4-0.1-0.7-0.2-1.1-0.3l0,0c-0.4-0.1-0.8-0.2-1.1-0.3l0,0c-0.4-0.1-0.8-0.2-1.1-0.2l0,0l1.2,19.2c5-0.9,9.5-1.6,13.1-2.3
			C303,247.4,303.2,244.6,302.2,241.4z"/>
		<path fill="#636363" d="M289,233C289.1,233,289.1,233,289,233C289.1,233,289.1,233,289,233z"/>
		<path fill="#636363" d="M287.9,232.7L287.9,232.7L287.9,232.7z"/>
		<path fill="#636363" d="M301.4,239.8C301.4,239.8,301.5,239.9,301.4,239.8C301.5,239.9,301.4,239.8,301.4,239.8z"/>
		<path fill="#636363" d="M297.8,236.4L297.8,236.4L297.8,236.4z"/>
		<path fill="#636363" d="M301.9,240.7L301.9,240.7L301.9,240.7z"/>
		<path fill="#636363" d="M298.7,236.9C298.7,236.9,298.7,237.1,298.7,236.9C298.7,237.1,298.7,236.9,298.7,236.9z"/>
		<path fill="#636363" d="M299.5,237.6L299.5,237.6L299.5,237.6z"/>
		<path fill="#636363" d="M295.8,235.4L295.8,235.4L295.8,235.4z"/>
		<path fill="#636363" d="M300.9,239.1L300.9,239.1L300.9,239.1z"/>
		<path fill="#636363" d="M293.6,234.4C293.7,234.4,293.7,234.5,293.6,234.4C293.7,234.5,293.7,234.4,293.6,234.4z"/>
		<path fill="#636363" d="M294.7,234.8C294.7,234.8,294.8,234.8,294.7,234.8C294.8,234.8,294.7,234.8,294.7,234.8z"/>
		<path fill="#636363" d="M292.5,234L292.5,234L292.5,234z"/>
		<path fill="#636363" d="M291.4,233.7L291.4,233.7L291.4,233.7z"/>
		<path fill="#636363" d="M290.2,233.2C290.2,233.2,290.2,233.3,290.2,233.2C290.2,233.3,290.2,233.2,290.2,233.2z"/>
		<path fill="#636363" d="M300.2,238.3L300.2,238.3L300.2,238.3z"/>
		<path fill="#636363" d="M296.8,235.8L296.8,235.8L296.8,235.8z"/>
		<path fill="#616161" d="M486.1,290.4l0.7,3.7l-11.2,0.7l-9-5.3l4.8-18.8l13.6,0.2l1.6-3.6l-14.3,0.2l2.8-9.6c0,0,15-5.2,16.5-4.6
			s2.6-1.2,2-1.8S365.2,226.1,323,223.1s-95.5-5.9-122,5.2v0.1c-49.2,13.2-83.8,32.1-88.7,34.8c-11.4,0.3-46.6,3.7-85.8,30.2
			c0,0-14.6,5.2-25.1,20.5c0,0,7.1,14.5,11.6,17.3c0,0-9.2,13.1-8,14.9c0.2,0.2,0.4,0.5,0.6,0.7c2,1.4,7.2,2.3,16.8,2.5
			C33.5,349.5,71,350,71,350s0.2-0.2,0-1.4c0-0.3-1.3-5.5-2.2-13.1c-2.5-21.2-1.6-56.8,39.4-55.2c53.5,0,35.5,68.4,35.5,68.4
			l223.7-3.9l-6.9-24.5c0,0,0.2-49.8,41.8-51.6s45,34.8,45,34.8V326l12.1-9.1c0,0,14.1,3.2,18.4,1.9c4.6-1.1,21.9-18.6,20.7-24.1
			c-1.2-5.5-3.4-3.7-3.4-3.7L486.1,290.4 M274.6,254.5c-35.2,6-83,14.2-87.2,15c-6.4,1.2-19,6.1-55.5-3.3l74.4-29.7
			c18.1-3.9,43.4-7.7,69.7-5.5l0,0l0,0l0,0c0.1,0,0.5,0,1,0.1L274.6,254.5z"/>
		<path fill="#636363" d="M276.1,231L276.1,231L276.1,231z"/>
		<path fill="#636363" d="M276.1,231L276.1,231L276.1,231z"/>
		<path fill="#27262C" d="M287.9,232.7c-0.3-0.1-0.5-0.1-0.8-0.2l0,0c-0.3-0.1-0.6-0.1-0.8-0.2l0,0c-0.3,0-0.5-0.1-0.8-0.1
			c0,0,0,0-0.1,0c-0.5-0.1-1-0.2-1.5-0.2h-0.1c-0.5-0.1-1-0.1-1.4-0.2h-0.1c-0.5-0.1-0.9-0.1-1.3-0.2h-0.1c-0.4,0-0.8-0.1-1.2-0.1
			h-0.1c-0.2,0-0.4,0-0.5,0l0,0c-0.2,0-0.3,0-0.5,0c0,0,0,0-0.1,0c-0.2,0-0.3,0-0.4,0l0,0c-0.1,0-0.3,0-0.4,0l0,0
			c-0.1,0-0.3,0-0.4,0l-2.5,23.4c5.1-0.9,10-1.7,14.4-2.5L287.9,232.7L287.9,232.7z"/>
		<path fill="#484949" d="M277.5,231.1L277.5,231.1L277.5,231.1z"/>
		<path fill="#484949" d="M278.4,231.2C278.4,231.2,278.5,231.2,278.4,231.2C278.5,231.2,278.4,231.2,278.4,231.2z"/>
		<path fill="#484949" d="M278,231.2L278,231.2L278,231.2z"/>
		<path fill="#484949" d="M279,231.2L279,231.2L279,231.2z"/>
		<path fill="#484949" d="M285.4,232.2L285.4,232.2L285.4,232.2z"/>
		<path fill="#484949" d="M286.2,232.3L286.2,232.3L286.2,232.3z"/>
		<path fill="#484949" d="M287,232.6C287,232.6,287.1,232.6,287,232.6C287.1,232.6,287,232.6,287,232.6z"/>
		<path fill="#484949" d="M283.7,231.9C283.8,231.9,283.8,231.9,283.7,231.9C283.8,231.9,283.8,231.9,283.7,231.9z"/>
		<path fill="#484949" d="M280.8,231.4h0.1H280.8z"/>
		<path fill="#484949" d="M279.5,231.3h0.1H279.5z"/>
		<path fill="#484949" d="M287.9,232.7L287.9,232.7L287.9,232.7L287.9,232.7z"/>
		<path fill="#484949" d="M282.2,231.7C282.2,231.7,282.3,231.7,282.2,231.7C282.3,231.7,282.2,231.7,282.2,231.7z"/>
		<path fill="#27262C" d="M346.2,244.5l-31.8-15l-7.9,0.8l-4.7,3.5l9.8,14.3C311.6,248.2,331.5,243.1,346.2,244.5z"/>
		<path fill="#C3BFBE" d="M54.8,280.2c0,0-17.9,4.8-25,10.1c-7.1,5.4-10.8,10.8-10.8,10.8s4.9-0.1,6.3-1.4
			C26.7,298.5,42.8,285.4,54.8,280.2z"/>
		<path fill="#27262C" d="M20.1,313.5l-7.7,4.2c0,0,3,1.8,3.6,3.5c0.5,1.7,2,4.5,1.7,6.3s-1.9,11.7-1.9,11.7l9.5,1.5l7.4-5.9
			C32.7,334.8,22.6,311.4,20.1,313.5z"/>
		<g>
			<ellipse fill="#27262C" cx="108" cy="323.5" rx="36.5" ry="39.9"/>
			<ellipse fill="#C3BFBE" cx="108.1" cy="321.7" rx="27.6" ry="31.4"/>
			<g>
				<path fill="#27262C" d="M98.6,300.6l6.4,8.2c0,0,1.1,2,2.6,2s2.6-1.4,2.6-1.4l6.7-8.9c0,0,0.9-1.2,0-2.1s-4.2-2.1-8.7-2.1
					C103.6,296.4,96.9,297.8,98.6,300.6z"/>
				<path fill="#27262C" d="M98.6,342.7l6.4-8.2c0,0,1.1-2,2.6-2s2.6,1.4,2.6,1.4l6.7,8.9c0,0,0.9,1.2,0,2.1s-4.2,2.1-8.7,2.1
					C103.6,347,96.9,345.6,98.6,342.7z"/>
				<path fill="#27262C" d="M126.8,311.2l-7.2,7.3c0,0-1.7,1.2-1.7,2.9s1.2,2.9,1.2,2.9l7.8,7.7c0,0,1.1,1,1.9,0
					c0.8-1,1.9-4.7,1.9-9.9C130.5,316.9,129.3,309.3,126.8,311.2z"/>
				<path fill="#27262C" d="M89.9,311.2l7.2,7.3c0,0,1.7,1.2,1.7,2.9s-1.2,2.9-1.2,2.9l-7.8,7.7c0,0-1.1,1-1.9,0s-1.9-4.7-1.9-9.9
					C86.2,316.9,87.4,309.3,89.9,311.2z"/>
			</g>
		</g>
		<g>
			<ellipse fill="#27262C" cx="405.2" cy="314.1" rx="37.1" ry="42.3"/>
			<ellipse fill="#C3BFBE" cx="405.3" cy="314.1" rx="28" ry="32"/>
			<g>
				<path fill="#27262C" d="M395.6,292.8l6.5,8.4c0,0,1.1,2,2.7,2c1.5,0,2.7-1.5,2.7-1.5l6.8-9c0,0,0.9-1.2,0-2.1s-4.2-2.1-8.8-2.1
					C400.7,288.4,394,289.8,395.6,292.8z"/>
				<path fill="#27262C" d="M395.6,335.5l6.5-8.4c0,0,1.1-2,2.7-2c1.5,0,2.7,1.5,2.7,1.5l6.8,9c0,0,0.9,1.2,0,2.1s-4.2,2.1-8.8,2.1
					C400.7,339.8,394,338.4,395.6,335.5z"/>
				<path fill="#27262C" d="M424.3,303.4l-7.4,7.4c0,0-1.8,1.2-1.8,3s1.2,3,1.2,3l7.9,7.8c0,0,1.1,1.1,1.9,0s1.9-4.8,1.9-10.1
					C428.1,309.3,426.9,301.5,424.3,303.4z"/>
				<path fill="#27262C" d="M386.8,303.4l7.4,7.4c0,0,1.8,1.2,1.8,3s-1.2,3-1.2,3l-7.9,7.8c0,0-1.1,1.1-1.9,0s-1.9-4.8-1.9-10.1
					C383,309.3,384.2,301.5,386.8,303.4z"/>
			</g>
		</g>
	</g>
	<path fill="#C3BFBE" d="M128.5,273.9l5.2-10.1c0,0,2-7.7,7.8-7.7c4.9,0,11.6,0,12.5,5.6c0,5.6-2,6.6-3.8,6.6c-2,0-10.7,1-10.7,1
		l1.2,4.3C139.8,273.7,131.1,273.9,128.5,273.9z"/>
	<path fill="#C3BFBE" d="M288.5,270.9c0,1.7,0,1.7-1.5,1.7h-16.7c-1.5,0-1.5,0-1.5-1.7l0,0c0-1.7,0-1.7,1.5-1.7H287
		C288.5,269.4,288.5,269.4,288.5,270.9L288.5,270.9z"/>
</g>
</svg>
