<?xml version="1.0" encoding="utf-8"?>
<!-- Generator: Adobe Illustrator 18.0.0, SVG Export Plug-In . SVG Version: 6.00 Build 0)  -->
<!DOCTYPE svg PUBLIC "-//W3C//DTD SVG 1.1//EN" "http://www.w3.org/Graphics/SVG/1.1/DTD/svg11.dtd">
<svg version="1.1" id="Layer_1" xmlns="http://www.w3.org/2000/svg" xmlns:xlink="http://www.w3.org/1999/xlink" x="0px" y="0px"
	 viewBox="0 0 500 500" enable-background="new 0 0 500 500" xml:space="preserve">
<g>
	<g>
		<g>
			<path fill="#010101" d="M25,315c0,0,11.5,10,12.5,9.5c0.5-0.5,3.5-1.5,4-1.5c0.5,0,4-6,4-6l78,5.5c0,0,11.5,0,13.5,0
				c2-0.5,223-8,223-8l4.5,8c0,0,2.5,0,8-0.5c7-0.5,96-6,98-4c2,3-5-79.5-5-79.5L280,249L65.5,236.5C65,237,17.5,276.5,25,315z"/>
			<path fill="#27262C" d="M11.5,258.5c0,0-6.5,1-7.5,11c-1,10.5-2.5,30,1.5,41.5c3.5,11.5,7,3,7,3L11.5,258.5z"/>
			<path fill="#C3BFBE" d="M26.5,222c0,0-3,2.5-4,4c-1,2-7,13.5-5.5,24.5c1.5,10.5,14.5,4,14.5,4l16-10.5l24-26.5
				C71,218,35,218,26.5,222z"/>
			<path fill="#C3BFBE" d="M474,209.5c0.5-1-8.5-44-11-47.5l-4.5-10.5c0,0-3,2.5-4,5.5c-1,4,2.5,44.5,4,49c2,5.5,16.5,17,16.5,17
				S474.5,210.5,474,209.5z M469.5,201L469.5,201C469.5,201,469.5,201.5,469.5,201L469.5,201L469.5,201z"/>
			<path fill="#151616" d="M479,225.5c0,0-1-2-1-4.5c0-3-4-25-2-25c0,0-5-28-16-51.5c-1-7-4-6.5-4-6.5c-6.5-0.5-15-1-25-2
				c1.5-2.5,0-4-5-4.5c-33.5-4.5-177.5-1-189,0c-7,0.5-13.5,4.5-17,6.5c-15,4-18,7.5-18,7.5l1.5-0.5c-17,10-83,59.5-83,59.5l4.5,7.5
				l11-7.5l92.5,6.5l180-11c0,0,33-35,40.5-45c-2.5,14-1.5,48.5-1.5,48.5L465,230l16,5C480.5,234.5,479.5,231.5,479,225.5z
				 M270.5,195l-92.5,4.5c0,0-3.5-10.5-0.5-14.5c2-4.5,43-36.5,43-36.5h61L270.5,195z M381,191l-89.5,3l6-45l79.5,2l6,14L381,191z
				 M417.5,158c0,0-11.5,22-15,27c-3.5,4.5-4,3-4,3l-15-37.5H411c0,0,5.5,0,7,2.5C419,155,417.5,158,417.5,158z"/>
			<path fill="#27262C" d="M481,235.5L481,235.5L481,235.5z"/>
			<path fill="#27262C" d="M177,179.5l2-2.5h2.5c0,0,1.5,1,1.5,9.5c0,9-1,11-3,11.5C178,199.5,177,179.5,177,179.5z"/>
			<path fill="#C3BFBE" d="M181.5,184L181.5,184c-0.5-5.5-1-6-1.5-6c0.5,0,1,0,0,0l0,0c-0.5,0-2,0-5,0.5c-8,1-9,11-9,13
				c-1,0-2.5,0.5-2.5,2c0,0,2,6.5,5.5,7c3.5,0.5,11-0.5,12.5-1C183,198.5,182,185.5,181.5,184z"/>
			<path fill="#27262C" d="M496.5,302c0.5-2.5,1-4.5,1-7.5c0-0.5,0-1,0-2c4.5-5.5,0-28-1-33c-1-4.5-8-14-8-14V279
				c-3,2.5-3.5,7-3.5,13.5h-6.5c0,0-13.5-58.5-60-58.5c-66.5,1-68.5,68-68.5,68l-205.5-0.5c0,0-7-62.5-61.5-62.5
				c-56,1-58.5,62.5-58.5,62.5h-16c-4-0.5-3,4.5-3,5.5c0,1,0,1-0.5,2c0.5-2,0.5-5.5,0-10c0-6-1-11-2-11.5C2.5,288,2,293,2.5,299
				c0.5,5.5,1,9.5,2,11c0,0.5-0.5,0.5-1,1c-0.5,1-1-2.5-2.5,4.5c-1,7,21.5,7.5,21.5,7.5c0,0.5,2.5,1,2.5,1c10,2,12.5,0,12.5,0
				c-13.5-22,7-76.5,48.5-70c52,8,48,68,48,68h231c-1-4.5-1.5-10.5-0.5-17c3-23,18-50.5,52.5-49c50.5,1.5,49,61,49,61
				s17.5,2.5,25,0.5s7-6,6-7.5C497,308.5,496.5,304.5,496.5,302z"/>
			<g>
				<ellipse fill="#27262C" cx="82.5" cy="308" rx="42.5" ry="47"/>
				<path fill="#C3BFBE" d="M49.5,308c0,20,14.5,35.5,32,35.5s32-16,32-35.5s-14.5-35.5-32-35.5C64.5,272,49.5,288.5,49.5,308z"/>
				<g>
					<path fill="#27262C" d="M71,284l7.5,9.5c0,0,1.5,2.5,3,2.5c1.5,0,3-2,3-2l8-10c0,0,1-2,0-3s-5-3-10-3C76.5,279,69,281,71,284z"
						/>
					<path fill="#27262C" d="M71,332l7.5-9.5c0,0,1.5-2.5,3-2.5c1.5,0,3,2,3,2l8,10c0,0,1,2,0,3s-5,3-10,3C76.5,337,69,336,71,332z"
						/>
					<path fill="#27262C" d="M104.5,295.5l-8.5,8c0,0-2,2-2,3.5c0,2.5,1.5,4,1.5,4l9,9c0,0,1.5,1,2,0c1-1,2-5.5,2-11.5
						C108.5,302,107.5,294,104.5,295.5z"/>
					<path fill="#27262C" d="M60.5,295.5l8.5,8c0,0,2,2,2,3.5c0,2.5-1.5,4-1.5,4l-9,9c0,0-1.5,1-2,0c-1-1-2-5.5-2-11.5
						C56.5,302,57.5,294,60.5,295.5z"/>
				</g>
			</g>
			<g>
				<ellipse fill="#27262C" cx="414.5" cy="310" rx="42.5" ry="47"/>
				<path fill="#C3BFBE" d="M382.5,310c0,20,14.5,35.5,32.5,35.5s32-16,32-35.5s-14.5-35.5-32-35.5C397,274.5,382.5,291,382.5,310z"
					/>
				<g>
					<path fill="#27262C" d="M404,285.5l7.5,9.5c0,0,1.5,2.5,3,2.5c1.5,0,3-2,3-2l8-10c0,0,1-2,0-3c-1-1-5-3-10-3
						C409.5,281.5,402,282.5,404,285.5z"/>
					<path fill="#27262C" d="M404,334l7.5-9.5c0,0,1.5-2.5,3-2.5c1.5,0,3,2,3,2l8,10c0,0,1,2,0,3c-1,1-5,3-10,3
						C409.5,339.5,402,337.5,404,334z"/>
					<path fill="#27262C" d="M437,298l-8.5,8c0,0-2,2-2,4c0,2,1.5,4,1.5,4l9,9c0,0,1.5,1,2,0c1-1,2-5.5,2-11.5
						C441.5,304.5,440,295.5,437,298z"/>
					<path fill="#27262C" d="M393.5,298l8.5,8c0,0,2,2,2,4c0,2-1.5,4-1.5,4l-9,8c0,0-1.5,1-2,0c-1-1-2-5.5-2-11.5
						C389,304.5,390.5,295.5,393.5,298z"/>
				</g>
			</g>
			<path fill="#616161" d="M82.5,242.5c55,0,63,65.5,63,65.5l204-3.5c0,0,2.5-66.5,69.5-66.5c46.5,0,59,56,59,56l10-0.5h-0.5
				c-0.5-0.5,0.5-11,1-13c0.5-2,1-11,1-11s0.5-4,0-15c1-11.5-5.5-15-6-15c-0.5-0.5-3-5.5-3-5.5s-11-9.5-19-16.5c-7.5-7-9-13-9.5-21
				c-1-8-1-43.5-1-43.5l-29-2c2.5,3.5-12,29.5-16,35c-3.5,6-12.5,5.5-12.5,5.5l-113,4.5L152,201.5c0,0-25,2.5-31,1
				c-6-0.5-39,4.5-64.5,9s-32.5,13-32.5,13s-2.5,1.5,3-1c5.5-2,30-5,33-5c3.5,0,5,1.5,5,1.5c-3.5,1-24,18.5-29.5,22
				c-5.5,4-10.5,5.5-14.5,5.5s-3.5-3.5-3.5-3.5c-4,8-6,5.5-8.5,11.5c-2.5,6,0,48,0,48l16.5,0.5C24.5,304,27,242.5,82.5,242.5z"/>
			<path fill="#C3BFBE" d="M475.5,206c0,0-2.5-18.5-1.5-19.5c1.5-0.5,4.5,7.5,6,19.5c1.5,11,0.5,18.5-0.5,18.5
				C477.5,225.5,476,213,475.5,206z"/>
		</g>
	</g>
	<path fill="#C3BFBE" d="M381,206c0,2.5,0,2.5-1.5,2.5H362c-1.5,0-1.5,0-1.5-2.5l0,0c0-2.5,0-2.5,1.5-2.5h17.5
		C381,203.5,381,203.5,381,206L381,206z"/>
	<path fill="#C3BFBE" d="M269.5,210.5c0,2.5,0,2.5-1.5,2.5h-17.5c-1.5,0-1.5,0-1.5-2.5l0,0c0-2.5,0-2.5,1.5-2.5H268
		C269.5,208.5,269.5,208.5,269.5,210.5L269.5,210.5z"/>
</g>
</svg>
