<?xml version="1.0" encoding="utf-8"?>
<!-- Generator: Adobe Illustrator 18.0.0, SVG Export Plug-In . SVG Version: 6.00 Build 0)  -->
<!DOCTYPE svg PUBLIC "-//W3C//DTD SVG 1.1//EN" "http://www.w3.org/Graphics/SVG/1.1/DTD/svg11.dtd">
<svg version="1.1" id="Layer_1" xmlns="http://www.w3.org/2000/svg" xmlns:xlink="http://www.w3.org/1999/xlink" x="0px" y="0px"
	 viewBox="0 0 500 500" enable-background="new 0 0 500 500" xml:space="preserve">
<g>
	<path d="M33,279.5c-11,6-5.5,37-5.5,37h6c0.5-23.5,17.5-42,39.5-42c22-0.5,37.5,18.5,37.5,42H245c-60,0-122-0.5-123.5-0.5
		c-5,0.5-2.5-4.5-6-17.5c-3.5-13.5-14-29-39-31C51.5,264,33,279.5,33,279.5"/>
	<path d="M398.5,266c-45.5,1.5-44.5,42.5-44.5,44c0,2,0,6.5,0,7h5c0-23.5,17.5-43,39.5-43c22-0.5,38.5,19,38.5,43h1.5h3.5
		c0,0,0.5-0.5,1-1h-1C442,316,444,268,398.5,266z"/>
	<path fill="#27262C" d="M499,296.5c0-4-8.5-5.5-9.5-5.5c-1.5,1-3.5,1-3.5,1s0,2,0,7.5s-3,16-3,16h-10c1.5,0.5,3.5,0.5,6,0.5
		C504.5,318,499,300.5,499,296.5z"/>
	<path fill="#C3BFBE" d="M22,281c1-5.5-0.5-26.5-0.5-30.5c0-5.5-3.5-6.5-5-6.5l-0.5,0.5c0,0-5.5,9.5-5.5,15c0,5,0,21,0,21l0,0
		c2-0.5,3.5-0.5,3.5-0.5S18,280.5,22,281z"/>
	<path fill="#3F51B5" d="M353,317C353.5,317,353.5,317,353,317L353,317L353,317L353,317z"/>
	<path fill="#3F51B5" d="M244.5,316.5c52.5,0,103.5,0,108.5,0l0,0H244.5z"/>
	<path fill="#3F51B5" d="M23.5,281L23.5,281h-1C23,281,23,281,23.5,281z"/>
	<path fill="#27262C" d="M36,285.5c0,0,0-1.5-0.5-1.5c-2-1-7-1.5-12-2.5c-0.5,0-0.5,0-1,0h-1l0,0c-4-1-7.5-1.5-7.5-1.5
		s-1.5,0-3.5,0.5c-4,1-10,2.5-10,6c0,5,0,24.5,0,24.5s2,5.5,10.5,5.5s17.5,0,17.5,0S25,291,36,285.5z"/>
	<path fill="#27262C" d="M21.5,280.5"/>
	<path fill="#C3BFBE" d="M484.5,213.5l4.5-5.5c0.5,3,1,6,1,8.5h0.5c-1.5-11.5-2.5-27-6-36.5H476C476,180,484.5,210,484.5,213.5z"/>
	<path fill="#C3BFBE" d="M484,217l6-0.5c-0.5-2.5-1-6-1-8.5l-4.5,5.5c0-3-8.5-33.5-8.5-33.5h8.5l-10.5-0.5C474,179,484,214,484,217z
		"/>
	<path fill="#3F51B5" d="M214,231v16l0,0C214,242,214,236.5,214,231z"/>
	<path fill="#3F51B5" d="M215,313c0,1.5-1.5,1.5-1.5,3C213.5,316.5,215,315,215,313z"/>
	<path fill="#3F51B5" d="M214,247L214,247l1,66C215,312,214.5,281.5,214,247z"/>
	<path fill="#616161" d="M36,285.5c0,0,15-18,40-17s34.5,17,38,30.5c3.5,13.5,3,17.5,8,17.5c1,0,63.5,0,123.5,0.5H354h0.5
		c0-0.5,0-5,0-7c0-1.5-1-40.5,44.5-42c45.5,2,42.5,48,42.5,48h5h27h10c0,0,3-10.5,3-16s0-7.5,0-7.5s2,0,3.5-1c1.5-1,3-2.5,3-5.5
		v-37.5c-0.5,0-1-14-3-31.5l-6,0.5c0-3-10-38-10-37.5l10.5,0.5c-1.5-8.5-5-16.5-10-20c0,0-1.5-13-26.5-9.5h-75.5L202,152
		c0,0-47.5-1.5-59.5,8.5c-17,10.5-58,53-59.5,53c-1.5,0-12.5,4-14.5,5c0,0,0,0.5,0,0L18,241c0,0-1.5,0-1.5,3H17c1.5,0,4.5,1,4.5,6.5
		c0,4.5,1,25,0.5,30.5 M120.5,219.5c-0.5,0-0.5,0-0.5,0c-0.5,0.5-1,0.5-2,0.5c-3,0-4-1.5-4-6.5v-5v-14c0-3,1.5-6.5,4-6.5
		c0.5,0,1,0,1.5,0c0.5,0,0.5,0,1,0c1.5,0,2.5,0.5,3.5,1c2.5-2.5,18.5-19.5,21.5-21.5c1-0.5,2.5-1.5,4-2.5c3.5-2.5,9-6,16-6
		c11.5,0,20,0,20,0H197c0,0,3.5,0,3.5,1.5c0,3,0,50,0,50s0,3-1.5,3s-63.5,2-74,2C124,217.5,123,219.5,120.5,219.5z M202,245.5
		c0,1.5,0,1.5-2,1.5s-2,0-2-1.5V227c0-1.5,0-1.5,2-1.5s2,0,2,1.5V245.5z M221.5,245.5c0,1.5,0,1.5-2,1.5c-2,0-2,0-2-1.5V227
		c0-1.5,0-1.5,2-1.5c2,0,2,0,2,1.5V245.5z M333.5,211c0,2.5-2,5-5,5h-104c-2.5,0-5-2-5-5v-47.5c0-2,1.5-3,3.5-3h106.5c2.5,0,4,2,4,4
		C333.5,164.5,333.5,211,333.5,211z M458.5,212.5c0,2.5-2,4.5-4.5,4.5h-97.5c-2.5,0-5-2-5-5v-47c0.5-2.5,2.5-4.5,4.5-4.5h98
		c2.5,0,4.5,2,4.5,4.5C458.5,165,458.5,212.5,458.5,212.5z"/>
	<path fill="#27262C" d="M428.5,317C428.5,317,429,317,428.5,317c0,18.5-13.5,33-30,33c-16.5,0-30-14.5-30-33l0,0l0,0
		c0-18.5,13.5-33,30-33C415,284,429,299,428.5,317h9c0-24-17.5-44-39.5-43.5c-22,0-39.5,20-39.5,43.5l0,0l0,0
		c0,23.5,17.5,43.5,39.5,43.5s39.5-19.5,39.5-43.5"/>
	<path fill="#C3BFBE" d="M428.5,317c0-18.5-13.5-33-30-33c-16.5,0-30,14.5-30,33l0,0c0,18.5,13.5,33,30,33
		C415.5,350,429,335.5,428.5,317C429,317,428.5,317,428.5,317z M399,289c5,0,8.5,1.5,9.5,2.5c1,1,0,2.5,0,2.5l-7,9
		c0,0-1.5,1.5-3,1.5c-2,0-3-2-3-2l-7-8.5C386.5,292,394,290,399,289z M379,328.5c0,0-1,1-2,0c-1-1-2-5-2-10c0-0.5,0-0.5,0-1
		c0-6,1.5-13,4-10.5l8,8c0,0,2,1.5,2,2.5l0,0c0,2-1.5,2.5-1.5,2.5L379,328.5z M408.5,341c-1,0.5-4.5,2.5-9.5,2.5s-12.5-1.5-10.5-5
		l7-8.5c0,0,1-2,3-2c1.5,0,3,1.5,3,1.5l7,9C408.5,339,409.5,340.5,408.5,341z M421,327.5c-1,1-2,0-2,0l-8.5-8c0,0-1.5-0.5-1.5-2.5
		l0,0c0-1,2-2.5,2-2.5l8-8c2.5-2,4,5.5,4,10.5v0.5C423,323,422,326.5,421,327.5z"/>
	<path fill="#27262C" d="M395.5,303c0,0,1,2,3,2c1.5,0,3-1.5,3-1.5l7-9c0,0,1-1.5,0-2.5c-1-1-4.5-2.5-9.5-2.5
		c-5,1-12.5,2.5-10.5,5.5L395.5,303z"/>
	<path fill="#27262C" d="M399,344c5,0,8.5-2,9.5-2.5c1-0.5,0-2,0-2l-7-9.5c0,0-1.5-1.5-3-1.5c-2,0-3,2-3,2l-7,8.5
		C386.5,342,394,344,399,344z"/>
	<path fill="#27262C" d="M423,317c0-5.5-1.5-13-4-10.5l-8,8c0,0-2,1.5-2,2.5l0,0c0,2,1.5,2.5,1.5,2.5l8.5,8c0,0,1,1,2,0
		c1-1,2-5,2-10C423.5,317,423,317,423,317z"/>
	<path fill="#27262C" d="M388.5,317c0-1-2-2.5-2-2.5l-7.5-8c-2.5-2-4,5-4,10.5c0,0.5,0,0.5,0,1c0,5.5,1,9,2,10c1,1,2,0,2,0l8.5-8.5
		C387.5,319.5,389,319,388.5,317C389,317,388.5,317,388.5,317z"/>
	<path fill="#27262C" d="M112,316.5c0-24-17.5-43.5-39.5-43c-22,0-39,19.5-39.5,43v0.5c0,23.5,17.5,43.5,39.5,43.5
		C95,360.5,112.5,341,112,316.5C112.5,316.5,112,316.5,112,316.5z M73.5,350c-16.5,0-30-14.5-30-33v-0.5c0.5-18.5,13.5-32,30-32
		s30,14.5,30,32v0.5C103.5,335.5,90,350,73.5,350z"/>
	<path fill="#C3BFBE" d="M103,316.5c0-18.5-13.5-32-30-32s-29.5,14-30,32v0.5c0,18.5,13.5,33,30,33S103.5,335.5,103,316.5
		C103.5,316.5,103,316.5,103,316.5z M73.5,289c5,0,8.5,1.5,9.5,2.5c1,1,0,2.5,0,2.5l-7,9c0,0-1.5,1.5-3,1.5c-2,0-3-2-3-2l-7-8.5
		C61,292,68.5,290,73.5,289z M53.5,328.5c0,0-1,1-2,0c-1-1-2-5-2-10c0-0.5,0-1,0-1.5c0-6,1.5-12.5,4-10l8,8c0,0,1.5,1,2,2v0.5
		c0,2-1.5,2.5-1.5,2.5L53.5,328.5z M83,341c-1,0.5-4.5,2.5-9.5,2.5S61,342,63,338.5l7-8.5c0,0,1-2,3-2c1.5,0,3,1.5,3,1.5l7,9
		C83,339,84,340.5,83,341z M95.5,327.5c-1,1-2,0-2,0l-8.5-8c0,0-1.5-0.5-1.5-2.5v-0.5c0.5-1,2-2,2-2l8-8c2.5-2,4,5,4,10
		c0,0.5,0,0.5,0,1C97.5,323,96.5,326.5,95.5,327.5z"/>
	<path fill="#27262C" d="M70,303c0,0,1,2,3,2c1.5,0,3-1.5,3-1.5l7-9c0,0,1-1.5,0-2.5c-1-1-4.5-2.5-9.5-2.5c-5,1-12.5,2.5-10.5,5.5
		L70,303z"/>
	<path fill="#27262C" d="M73.5,344c5,0,8.5-2,9.5-2.5c1-0.5,0-2,0-2l-7-9.5c0,0-1.5-1.5-3-1.5c-2,0-3,2-3,2l-7,8.5
		C61,342,68.5,344,73.5,344z"/>
	<path fill="#27262C" d="M97.5,317c0-6-1.5-13.5-4.5-11.5l-8.5,9.5c0,0-1.5,1-2,2H83c0,1.5,1.5,2,1.5,2l8.5,8c0,0,1,1,2,0
		C96,326,97.5,323.5,97.5,317C97.5,318,97,317,97.5,317L97.5,317z"/>
	<path fill="#27262C" d="M64.5,316c-0.5-1-2.5-2.5-2.5-2.5l-8.5-9c-3-2.5-4,5.5-4.5,11.5c0,0.5,0,1,0,2c0,6,1,10.5,2.5,11.5
		c1,1,2.5,0,2.5,0l9.5-9.5C63.5,320,65,319,64.5,316C65,316,64.5,316,64.5,316z"/>
	<path fill="#C3BFBE" d="M200,225.5c-2,0-2,0-2,1.5v18.5c0,1.5,0,1.5,2,1.5s2,0,2-1.5V227C202,225.5,202,225.5,200,225.5z"/>
	<path fill="#C3BFBE" d="M219.5,225.5c-2,0-2,0-2,1.5v18.5c0,1.5,0,1.5,2,1.5c2,0,2,0,2-1.5V227
		C221.5,225.5,221.5,225.5,219.5,225.5z"/>
</g>
</svg>
