<?xml version="1.0" encoding="utf-8"?>
<!-- Generator: Adobe Illustrator 18.0.0, SVG Export Plug-In . SVG Version: 6.00 Build 0)  -->
<!DOCTYPE svg PUBLIC "-//W3C//DTD SVG 1.1//EN" "http://www.w3.org/Graphics/SVG/1.1/DTD/svg11.dtd">
<svg version="1.1" id="Layer_1" xmlns="http://www.w3.org/2000/svg" xmlns:xlink="http://www.w3.org/1999/xlink" x="0px" y="0px"
	 viewBox="0 0 500 425" enable-background="new 0 0 500 425" xml:space="preserve">
<g>
	<path fill="#FFFFFF" d="M194.3,150.2v-4.5c2.1-0.1,3.5-0.2,4.3-0.4c1.3-0.3,2.4-0.9,3.2-1.8c0.6-0.6,1-1.4,1.3-2.4
		c0.2-0.6,0.3-1,0.3-1.3h5.5v33.5h-6.7v-23.1H194.3z"/>
</g>
<g>
	<path fill="#FFFFFF" d="M196.6,333.8c0.9-2.2,3.2-4.6,6.6-7.1c3-2.2,5-3.7,5.9-4.7c1.4-1.5,2.1-3.1,2.1-4.8c0-1.4-0.4-2.6-1.2-3.5
		c-0.8-0.9-1.9-1.4-3.4-1.4c-2,0-3.4,0.7-4.1,2.2c-0.4,0.9-0.7,2.2-0.7,4.1h-6.4c0.1-2.8,0.6-5.1,1.5-6.9c1.8-3.3,4.9-5,9.4-5
		c3.5,0,6.4,1,8.5,2.9c2.1,2,3.1,4.6,3.1,7.8c0,2.5-0.7,4.7-2.2,6.6c-1,1.3-2.6,2.7-4.8,4.3l-2.6,1.9c-1.6,1.2-2.8,2-3.4,2.5
		c-0.6,0.5-1.1,1.1-1.5,1.8H218v5.8h-22.9C195.1,338,195.7,335.8,196.6,333.8z"/>
</g>
<g>
	<path fill="#FFFFFF" d="M267,162.1c0,1.3,0.2,2.4,0.6,3.3c0.8,1.6,2.2,2.4,4.3,2.4c1.3,0,2.4-0.4,3.4-1.3c1-0.9,1.4-2.2,1.4-3.8
		c0-2.2-0.9-3.7-2.7-4.4c-1-0.4-2.6-0.6-4.8-0.6V153c2.1,0,3.6-0.2,4.5-0.6c1.5-0.6,2.2-2,2.2-3.9c0-1.3-0.4-2.3-1.1-3.1
		c-0.7-0.8-1.8-1.2-3.1-1.2c-1.5,0-2.7,0.5-3.4,1.5c-0.7,1-1.1,2.3-1,3.9h-6.1c0.1-1.7,0.3-3.2,0.8-4.7c0.5-1.3,1.4-2.5,2.5-3.6
		c0.9-0.8,1.9-1.4,3.1-1.8c1.2-0.4,2.6-0.6,4.4-0.6c3.2,0,5.8,0.8,7.7,2.5c2,1.7,2.9,3.9,2.9,6.7c0,2-0.6,3.6-1.8,5
		c-0.7,0.8-1.5,1.4-2.3,1.7c0.6,0,1.5,0.5,2.6,1.5c1.7,1.6,2.5,3.7,2.5,6.4c0,2.8-1,5.3-2.9,7.5c-2,2.1-4.9,3.2-8.7,3.2
		c-4.7,0-8-1.5-9.9-4.6c-1-1.6-1.5-3.8-1.6-6.5H267z"/>
</g>
<g>
	<path fill="#FFFFFF" d="M283.1,332.7h-3.8v7.3h-6.5v-7.3h-13.3v-5.8l12.4-20.5h7.4v21.1h3.8V332.7z M272.9,327.5v-14.6l-8.4,14.6
		H272.9z"/>
</g>
<g>
	<path fill="#FFFFFF" d="M331.5,163.1c0.3,1.4,0.8,2.5,1.5,3.3c0.7,0.8,1.8,1.2,3.2,1.2c1.6,0,2.9-0.6,3.7-1.7
		c0.8-1.1,1.3-2.6,1.3-4.3c0-1.7-0.4-3.2-1.2-4.3c-0.8-1.2-2-1.8-3.7-1.8c-0.8,0-1.5,0.1-2.1,0.3c-1,0.4-1.8,1.1-2.3,2.1l-5.9-0.3
		l2.3-18.5h18.4v5.6h-13.7l-1.2,7.3c1-0.7,1.8-1.1,2.4-1.3c1-0.4,2.1-0.5,3.5-0.5c2.8,0,5.2,0.9,7.2,2.8c2.1,1.9,3.1,4.6,3.1,8.1
		c0,3.1-1,5.9-3,8.3c-2,2.4-4.9,3.6-8.9,3.6c-3.2,0-5.8-0.9-7.8-2.6c-2-1.7-3.2-4.1-3.4-7.3H331.5z"/>
</g>
<g>
	<path fill="#FFFFFF" d="M161.8,140.4c1.3,0.5,2.3,1.3,3.2,2.4c0.7,0.9,1.3,1.8,1.7,2.9c0.4,1,0.6,2.2,0.6,3.6
		c0,1.6-0.4,3.2-1.2,4.8c-0.8,1.6-2.2,2.7-4,3.3c1.6,0.6,2.7,1.5,3.3,2.7c0.7,1.2,1,2.9,1,5.3v2.3c0,1.6,0.1,2.6,0.2,3.2
		c0.2,0.9,0.6,1.5,1.3,1.9v0.9h-7.8c-0.2-0.8-0.4-1.4-0.5-1.8c-0.2-1-0.3-1.9-0.3-2.9l0-3.2c0-2.2-0.4-3.6-1.1-4.3
		c-0.7-0.7-2.1-1.1-4-1.1h-6.9v13.3h-6.9v-34h16.3C158.8,139.5,160.6,139.8,161.8,140.4z M147.2,145.4v9.1h7.6
		c1.5,0,2.7-0.2,3.4-0.6c1.3-0.6,2-1.9,2-3.8c0-2.1-0.7-3.4-1.9-4.2c-0.7-0.4-1.8-0.6-3.3-0.6H147.2z"/>
</g>
<path fill="#FFFFFF" d="M337.3,185.6c-5,0-9,4-9,9v34.9h-46.8v-34.9c0-5-4-9-9-9c-5,0-9,4-9,9v34.9h-47.7v-34.9c0-5-4-9-9-9
	c-5,0-9,4-9,9v35.7h-38.3v-34.9c0-5-4-9-9-9c-5,0-9,4-9,9v43.9c0,5,4,9,9,9h47.3v34c0,5,4,9,9,9c5,0,9-4,9-9v-34h47.7v34
	c0,5,4,9,9,9c5,0,9-4,9-9v-34.9h46.8v34.9c0,5,4,9,9,9c5,0,9-4,9-9v-87.7C346.3,189.6,342.3,185.6,337.3,185.6z"/>
<g>
	<path fill="#FFFFFF" d="M344,314.6c0-0.5-0.2-1.1-0.6-1.8c-0.7-1-1.8-1.6-3.2-1.6c-2.1,0-3.7,1.2-4.6,3.6c-0.5,1.3-0.8,3.3-1,5.9
		c0.8-1,1.8-1.7,2.8-2.1c1.1-0.4,2.3-0.7,3.7-0.7c3,0,5.4,1,7.3,3c1.9,2,2.8,4.6,2.8,7.7c0,3.1-0.9,5.9-2.8,8.3
		c-1.9,2.4-4.8,3.6-8.7,3.6c-4.2,0-7.3-1.8-9.3-5.3c-1.6-2.8-2.3-6.3-2.3-10.7c0-2.6,0.1-4.6,0.3-6.2c0.4-2.8,1.1-5.2,2.2-7.1
		c1-1.6,2.2-2.9,3.7-3.9c1.5-1,3.4-1.5,5.5-1.5c3.1,0,5.6,0.8,7.4,2.4c1.8,1.6,2.9,3.7,3.1,6.4H344z M336.2,333.4
		c1,1.1,2.2,1.7,3.7,1.7c1.5,0,2.6-0.5,3.4-1.7c0.8-1.1,1.3-2.5,1.3-4.3c0-2-0.5-3.4-1.4-4.5c-1-1-2.1-1.6-3.5-1.6
		c-1.1,0-2.1,0.3-3,1c-1.3,1-1.9,2.6-1.9,4.8C334.7,330.8,335.2,332.3,336.2,333.4z"/>
</g>
<g>
	<path fill="#3F51B5" d="M494.4,263.8c0.8-1.8,3.5-13.7,2.4-16.1c-1.1-2.4-11.9-13-13.1-15c-1.2-2,0.1-19.5,0-22.7
		c-0.1-3.2-2.2-6.8-2.2-6.8s-0.7-8.4-5.5-9.6c-4.8-1.2-28-0.4-44.2-5.7c-16.2-5.3-53-21.6-66.6-24.9c-13.4-3.2-40.9-6.2-56.8-6.5
		c-16-0.3-61.8-3.2-101.3,8.9c-39.5,12-87.4,39.8-87.4,39.8s-5.7,0.5-13.8,2.2c-8.2,1.6-38.6,9.2-49.5,12.1
		c-11,3-16.5,4.2-30.9,13.3S4.7,256.7,4.7,256.7s-1.8,7.2-0.8,15.3c0.9,8.2,3.1,10.4,3.8,13.5s-1.9,4.3-3.9,6.1
		c-2,1.8-0.5,4.5,2.8,7.6c3.4,3.1,23.4,4.5,23.4,4.5s0,2.3,2.4,3.9s18.4,5.4,18.4,5.4l-0.1-8.6H51c-0.8-3.1-1.2-6.3-1.2-9.6
		c0-21.9,17.7-39.6,39.6-39.6s39.6,17.7,39.6,39.6c0,3.3-0.4,6.5-1.2,9.6h5.1l208.1-1.9l5.7-0.3c-0.5-2.4-0.7-4.9-0.7-7.4
		c0-21.9,17.7-39.6,39.6-39.6s39.6,17.7,39.6,39.6c0,2.5-0.2,5-0.7,7.4c9.8-2.3,67.4-15.8,69.4-20.5c2.3-5.1,1.9-8.9,0.8-11.2
		C493.6,267.7,493.6,265.5,494.4,263.8z M36.8,279.7c-0.5,5-0.8,8.2-0.8,8.2h-8.8c0,0-8.6-6.6-9.3-16.7c0,0,4.9-3.2,12.8-4.6
		s9.4-1.2,9.4-1.2S37.2,274.7,36.8,279.7z M15.1,248.9c0,0-0.3-4.9,7.9-10.5c8.2-5.8,17.9-8.9,21.1-9.4c3.2-0.5,10.1,0.6,10.1,0.6
		l28.4-1.8C82.5,227.9,48.9,248.7,15.1,248.9z M155.6,209.5c0,0-2.2,1.5-3.2,2.6c-1,1.1-1.5,2.7-1.5,2.7l-11.9,1v-3.1
		c0,0,11.6-7.7,17.7-9.5L155.6,209.5z M258.6,209.5l-83.7,8.1l-8.1-10.8l1.9-11.7c0,0,32.8-16.1,63.3-20.7
		c30.5-4.6,34.9-3.6,34.9-3.6L258.6,209.5z M359.9,200.5l-81.7,7.6l3-38.3c42.5-0.9,66.7,4.3,66.7,4.3l12.7,18.5L359.9,200.5z
		 M375.6,196.3l-13-18.8c18.7,4.2,37.2,14.6,37.2,14.6L375.6,196.3z M480.4,222.8c-0.6,0.4-17.4-0.3-22.6-1.3
		c-5.2-1-7.1-5.1-7.7-6.3c-0.5-1.2-1.9-3.6,3.2-6.3c5.1-2.7,19.1-8.4,19.1-8.4s2.9-0.3,4.1,0c1.3,0.3,2.4,3.1,4.4,6.5
		C483,210.4,481,222.4,480.4,222.8z"/>
	<path fill="#3F51B5" d="M89.2,258.6c-19.7,0-35.6,15.9-35.6,35.6s15.9,35.6,35.6,35.6s35.6-15.9,35.6-35.6
		C124.9,274.6,108.9,258.6,89.2,258.6z M89.2,321c-14.7,0-26.7-11.9-26.7-26.7c0-14.7,11.9-26.7,26.7-26.7s26.7,11.9,26.7,26.7
		C115.8,309,103.9,321,89.2,321z"/>
	<path fill="#3F51B5" d="M385.7,258.6c-19.7,0-35.6,15.9-35.6,35.6s15.9,35.6,35.6,35.6c19.7,0,35.6-15.9,35.6-35.6
		C421.3,274.6,405.4,258.6,385.7,258.6z M385.7,321C371,321,359,309,359,294.3c0-14.7,11.9-26.7,26.7-26.7
		c14.7,0,26.7,11.9,26.7,26.7C412.3,309,400.4,321,385.7,321z"/>
</g>
</svg>
