<?xml version="1.0" encoding="utf-8"?>
<!-- Generator: Adobe Illustrator 18.0.0, SVG Export Plug-In . SVG Version: 6.00 Build 0)  -->
<!DOCTYPE svg PUBLIC "-//W3C//DTD SVG 1.1//EN" "http://www.w3.org/Graphics/SVG/1.1/DTD/svg11.dtd">
<svg version="1.1" id="Layer_1" xmlns="http://www.w3.org/2000/svg" xmlns:xlink="http://www.w3.org/1999/xlink" x="0px" y="0px"
	 viewBox="0 0 500 425" enable-background="new 0 0 500 425" xml:space="preserve">
<g>
	<g>
		<path fill="#3F51B5" d="M212.3,400c-55.1,0-99.9-44.8-99.9-99.9c0-55.1,44.8-99.9,99.9-99.9c55.1,0,99.9,44.8,99.9,99.9
			C312.2,355.2,267.4,400,212.3,400z M212.3,213.3c-47.9,0-86.8,38.9-86.8,86.8c0,47.9,38.9,86.8,86.8,86.8
			c47.9,0,86.8-38.9,86.8-86.8C299.1,252.3,260.2,213.3,212.3,213.3z"/>
	</g>
	<path fill="#3F51B5" d="M152.3,45.8c-33.8,0-61.1,27.4-61.1,61.1c0,33.8,27.4,61.1,61.1,61.1c33.8,0,61.1-27.4,61.1-61.1
		C213.4,73.1,186.1,45.8,152.3,45.8z M152.3,126.6c-10.9,0-19.6-8.8-19.6-19.6c0-10.9,8.8-19.6,19.6-19.6c10.9,0,19.6,8.8,19.6,19.6
		C172,117.8,163.2,126.6,152.3,126.6z"/>
	<path fill="#3F51B5" d="M367.3,142.9c-22.9,0-41.5,18.6-41.5,41.5c0,22.9,18.6,41.5,41.5,41.5s41.5-18.6,41.5-41.5
		C408.8,161.5,390.3,142.9,367.3,142.9z M367.3,200.2c-8.7,0-15.8-7.1-15.8-15.8s7.1-15.8,15.8-15.8s15.8,7.1,15.8,15.8
		S376.1,200.2,367.3,200.2z"/>
	<path fill="#3F51B5" d="M212.3,220.4c-44,0-79.7,35.7-79.7,79.7c0,44,35.7,79.7,79.7,79.7c44,0,79.7-35.7,79.7-79.7
		C292,256.1,256.4,220.4,212.3,220.4z M212.3,331.2c-17.2,0-31.1-13.9-31.1-31.1c0-17.2,13.9-31.1,31.1-31.1
		c17.2,0,31.1,13.9,31.1,31.1C243.4,317.3,229.5,331.2,212.3,331.2z"/>
	<path fill="#3F51B5" d="M111.4,160.7c-7.8-5.9-14.3-13.5-18.9-22.2l14.7,133.8c2.9-10.8,7.3-21,13.2-30.2L111.4,160.7z"/>
	<path fill="#3F51B5" d="M341.7,141.3c7.2-4.3,15.4-6.8,24.3-7L201.4,60.4c6.6,7,11.7,15.3,14.9,24.6L341.7,141.3z"/>
	<path fill="#3F51B5" d="M367.3,234.6c-0.7,0-1.4-0.1-2.2-0.1L321,296c0.1,1.4,0.2,2.7,0.2,4.1c0,10.2-1.5,20-4.1,29.4l71.7-99.7
		C382.3,232.8,375,234.6,367.3,234.6z"/>
</g>
</svg>
