<?xml version="1.0" encoding="utf-8"?>
<!-- Generator: Adobe Illustrator 18.0.0, SVG Export Plug-In . SVG Version: 6.00 Build 0)  -->
<!DOCTYPE svg PUBLIC "-//W3C//DTD SVG 1.1//EN" "http://www.w3.org/Graphics/SVG/1.1/DTD/svg11.dtd">
<svg version="1.1" id="Layer_1" xmlns="http://www.w3.org/2000/svg" xmlns:xlink="http://www.w3.org/1999/xlink" x="0px" y="0px"
	 viewBox="0 0 30 25" enable-background="new 0 0 30 25" xml:space="preserve">
<g>
	<g>
		<path fill="#3F51B5" d="M24,19.7c-0.1-0.8-0.4-1.7-1-2.6c-1-1.6-1.6-3.5-1.7-5.8l1.5-1c0.1,0,0.1-0.1,0.1-0.1
			c0.1-0.1,0.1-0.1,0.1-0.2l0.5-2.3c0.1-0.2-0.1-0.5-0.3-0.6l-1.5-0.8c0,0-0.1,0-0.1-0.1l1.4-2c0-0.1,0-0.1,0-0.1l-0.4-0.3
			c-0.1,0-0.1,0-0.1,0l-1.7,2.3c0,0.1-0.1,0.1-0.1,0.1l-0.7,3.9c0,0.1,0,0.1,0,0.1l0.3,0.9c0.1,2.4,0.8,4.5,1.9,6.3
			c0.9,1.5,1.2,2.7,0.7,3.4c-0.3,0.4-0.9,0.5-1.4,0.4c-0.7-0.2-1.2-0.9-1.2-2c-0.1-2-0.9-3.8-2.3-5.2c-0.3-0.3-0.7-0.6-0.9-0.8v-0.1
			h0.5c0.5,0,0.9-0.4,0.9-0.9l0.9-7.4c0.1-0.2,0.1-0.5-0.1-0.7c-0.2-0.2-0.4-0.4-0.7-0.4H6.9c-0.3,0-0.6,0.1-0.7,0.4
			C6,4.3,6,4.6,6,4.8l1,7.4c0,0.5,0.4,0.9,0.9,0.9h0.5v4.4H8.1c-0.5,0-0.9,0.4-0.9,0.9v3c0,0.5,0.4,0.9,0.9,0.9h9.1
			c0.5,0,0.9-0.4,0.9-0.9v-3c0-0.5-0.4-0.9-0.9-0.9h-0.3v-2.8c0.1,0.1,0.1,0.1,0.3,0.2c1.3,1.2,2,2.8,2,4.5c0.1,1.7,1,2.6,1.9,2.8
			c0.2,0.1,0.5,0.1,0.7,0.1c0.7,0,1.3-0.3,1.7-0.8C24,21.1,24.1,20.4,24,19.7z M22.4,7.8l-0.4,1.7L21.3,10l0.2-2.8L22.4,7.8z
			 M16.5,11.1H8.8L8.1,5.7h9.2L16.5,11.1z"/>
		<path fill="#3F51B5" d="M12.7,9l-1.7-2.6c-0.1-0.1-0.1-0.1-0.2-0.1c-0.1,0.1-0.1,0.1-0.1,0.2l1.2,2.8c-0.1,0.2-0.1,0.6,0.1,0.8
			c0.2,0.4,0.7,0.5,1.1,0.3s0.5-0.7,0.3-1.1C13.2,9.1,13,9,12.7,9z"/>
	</g>
</g>
</svg>
