<?xml version="1.0" encoding="utf-8"?>
<!-- Generator: Adobe Illustrator 18.0.0, SVG Export Plug-In . SVG Version: 6.00 Build 0)  -->
<!DOCTYPE svg PUBLIC "-//W3C//DTD SVG 1.1//EN" "http://www.w3.org/Graphics/SVG/1.1/DTD/svg11.dtd">
<svg version="1.1" id="Layer_1" xmlns="http://www.w3.org/2000/svg" xmlns:xlink="http://www.w3.org/1999/xlink" x="0px" y="0px"
	 viewBox="0 0 500 425" enable-background="new 0 0 500 425" xml:space="preserve">
<path fill="#3F51B5" d="M414.6,235.4c0,90.9-73.7,164.6-164.6,164.6c-90.9,0-164.6-73.7-164.6-164.6c0-90.9,73.7-164.6,164.6-164.6
	C340.9,70.8,414.6,144.5,414.6,235.4z"/>
<g>
	<path fill="#FFFFFF" d="M194.3,150.2v-4.5c2.1-0.1,3.5-0.2,4.3-0.4c1.3-0.3,2.4-0.9,3.2-1.8c0.6-0.6,1-1.4,1.3-2.4
		c0.2-0.6,0.3-1,0.3-1.3h5.5v33.5h-6.7v-23.1H194.3z"/>
</g>
<g>
	<path fill="#FFFFFF" d="M196.6,333.8c0.9-2.2,3.2-4.6,6.6-7.1c3-2.2,5-3.7,5.9-4.7c1.4-1.5,2.1-3.1,2.1-4.8c0-1.4-0.4-2.6-1.2-3.5
		c-0.8-0.9-1.9-1.4-3.4-1.4c-2,0-3.4,0.7-4.1,2.2c-0.4,0.9-0.7,2.2-0.7,4.1h-6.4c0.1-2.8,0.6-5.1,1.5-6.9c1.8-3.3,4.9-5,9.4-5
		c3.5,0,6.4,1,8.5,2.9c2.1,2,3.1,4.6,3.1,7.8c0,2.5-0.7,4.7-2.2,6.6c-1,1.3-2.6,2.7-4.8,4.3l-2.6,1.9c-1.6,1.2-2.8,2-3.4,2.5
		c-0.6,0.5-1.1,1.1-1.5,1.8H218v5.8h-22.9C195.1,338,195.7,335.8,196.6,333.8z"/>
</g>
<g>
	<path fill="#FFFFFF" d="M267,162.1c0,1.3,0.2,2.4,0.6,3.3c0.8,1.6,2.2,2.4,4.3,2.4c1.3,0,2.4-0.4,3.4-1.3c1-0.9,1.4-2.2,1.4-3.8
		c0-2.2-0.9-3.7-2.7-4.4c-1-0.4-2.6-0.6-4.8-0.6V153c2.1,0,3.6-0.2,4.5-0.6c1.5-0.6,2.2-2,2.2-3.9c0-1.3-0.4-2.3-1.1-3.1
		c-0.7-0.8-1.8-1.2-3.1-1.2c-1.5,0-2.7,0.5-3.4,1.5c-0.7,1-1.1,2.3-1,3.9h-6.1c0.1-1.7,0.3-3.2,0.8-4.7c0.5-1.3,1.4-2.5,2.5-3.6
		c0.9-0.8,1.9-1.4,3.1-1.8c1.2-0.4,2.6-0.6,4.4-0.6c3.2,0,5.8,0.8,7.7,2.5c2,1.7,2.9,3.9,2.9,6.7c0,2-0.6,3.6-1.8,5
		c-0.7,0.8-1.5,1.4-2.3,1.7c0.6,0,1.5,0.5,2.6,1.5c1.7,1.6,2.5,3.7,2.5,6.4c0,2.8-1,5.3-2.9,7.5c-2,2.1-4.9,3.2-8.7,3.2
		c-4.7,0-8-1.5-9.9-4.6c-1-1.6-1.5-3.8-1.6-6.5H267z"/>
</g>
<g>
	<path fill="#FFFFFF" d="M283.1,332.7h-3.8v7.3h-6.5v-7.3h-13.3v-5.8l12.4-20.5h7.4v21.1h3.8V332.7z M272.9,327.5v-14.6l-8.4,14.6
		H272.9z"/>
</g>
<g>
	<path fill="#FFFFFF" d="M331.5,163.1c0.3,1.4,0.8,2.5,1.5,3.3c0.7,0.8,1.8,1.2,3.2,1.2c1.6,0,2.9-0.6,3.7-1.7
		c0.8-1.1,1.3-2.6,1.3-4.3c0-1.7-0.4-3.2-1.2-4.3c-0.8-1.2-2-1.8-3.7-1.8c-0.8,0-1.5,0.1-2.1,0.3c-1,0.4-1.8,1.1-2.3,2.1l-5.9-0.3
		l2.3-18.5h18.4v5.6h-13.7l-1.2,7.3c1-0.7,1.8-1.1,2.4-1.3c1-0.4,2.1-0.5,3.5-0.5c2.8,0,5.2,0.9,7.2,2.8c2.1,1.9,3.1,4.6,3.1,8.1
		c0,3.1-1,5.9-3,8.3c-2,2.4-4.9,3.6-8.9,3.6c-3.2,0-5.8-0.9-7.8-2.6c-2-1.7-3.2-4.1-3.4-7.3H331.5z"/>
</g>
<g>
	<path fill="#FFFFFF" d="M161.8,140.4c1.3,0.5,2.3,1.3,3.2,2.4c0.7,0.9,1.3,1.8,1.7,2.9c0.4,1,0.6,2.2,0.6,3.6
		c0,1.6-0.4,3.2-1.2,4.8c-0.8,1.6-2.2,2.7-4,3.3c1.6,0.6,2.7,1.5,3.3,2.7c0.7,1.2,1,2.9,1,5.3v2.3c0,1.6,0.1,2.6,0.2,3.2
		c0.2,0.9,0.6,1.5,1.3,1.9v0.9h-7.8c-0.2-0.8-0.4-1.4-0.5-1.8c-0.2-1-0.3-1.9-0.3-2.9l0-3.2c0-2.2-0.4-3.6-1.1-4.3
		c-0.7-0.7-2.1-1.1-4-1.1h-6.9v13.3h-6.9v-34h16.3C158.8,139.5,160.6,139.8,161.8,140.4z M147.2,145.4v9.1h7.6
		c1.5,0,2.7-0.2,3.4-0.6c1.3-0.6,2-1.9,2-3.8c0-2.1-0.7-3.4-1.9-4.2c-0.7-0.4-1.8-0.6-3.3-0.6H147.2z"/>
</g>
<path fill="#FFFFFF" d="M337.3,185.6c-5,0-9,4-9,9v34.9h-46.8v-34.9c0-5-4-9-9-9c-5,0-9,4-9,9v34.9h-47.7v-34.9c0-5-4-9-9-9
	c-5,0-9,4-9,9v35.7h-38.3v-34.9c0-5-4-9-9-9c-5,0-9,4-9,9v43.9c0,5,4,9,9,9h47.3v34c0,5,4,9,9,9c5,0,9-4,9-9v-34h47.7v34
	c0,5,4,9,9,9c5,0,9-4,9-9v-34.9h46.8v34.9c0,5,4,9,9,9c5,0,9-4,9-9v-87.7C346.3,189.6,342.3,185.6,337.3,185.6z"/>
<g>
	<path fill="#FFFFFF" d="M344,314.6c0-0.5-0.2-1.1-0.6-1.8c-0.7-1-1.8-1.6-3.2-1.6c-2.1,0-3.7,1.2-4.6,3.6c-0.5,1.3-0.8,3.3-1,5.9
		c0.8-1,1.8-1.7,2.8-2.1c1.1-0.4,2.3-0.7,3.7-0.7c3,0,5.4,1,7.3,3c1.9,2,2.8,4.6,2.8,7.7c0,3.1-0.9,5.9-2.8,8.3
		c-1.9,2.4-4.8,3.6-8.7,3.6c-4.2,0-7.3-1.8-9.3-5.3c-1.6-2.8-2.3-6.3-2.3-10.7c0-2.6,0.1-4.6,0.3-6.2c0.4-2.8,1.1-5.2,2.2-7.1
		c1-1.6,2.2-2.9,3.7-3.9c1.5-1,3.4-1.5,5.5-1.5c3.1,0,5.6,0.8,7.4,2.4c1.8,1.6,2.9,3.7,3.1,6.4H344z M336.2,333.4
		c1,1.1,2.2,1.7,3.7,1.7c1.5,0,2.6-0.5,3.4-1.7c0.8-1.1,1.3-2.5,1.3-4.3c0-2-0.5-3.4-1.4-4.5c-1-1-2.1-1.6-3.5-1.6
		c-1.1,0-2.1,0.3-3,1c-1.3,1-1.9,2.6-1.9,4.8C334.7,330.8,335.2,332.3,336.2,333.4z"/>
</g>
</svg>
